<svg width="64" height="64" viewBox="0 0 64 64" fill="none" xmlns="http://www.w3.org/2000/svg">
<g clip-path="url(#clip0_6_189)">
<path d="M53.1259 7.95985e-08L0 10.8741L10.8741 64L64 53.1259L53.1259 7.95985e-08Z" fill="#4157FE"/>
<path d="M5.32904 13.1544L4.0717 13.4067L4.324 14.664L5.58134 14.4117L5.32904 13.1544Z" fill="white"/>
<path d="M6.58638 12.9021L5.32904 13.1544L5.58134 14.4117L6.83868 14.1594L6.58638 12.9021Z" fill="white"/>
<path d="M7.84373 12.6498L6.58638 12.9021L6.83868 14.1594L8.09602 13.9071L7.84373 12.6498Z" fill="white"/>
<path d="M9.10107 12.3975L7.84373 12.6498L8.09602 13.9071L9.35336 13.6548L9.10107 12.3975Z" fill="white"/>
<path d="M10.3584 12.1452L9.10107 12.3975L9.35336 13.6548L10.6107 13.4025L10.3584 12.1452Z" fill="white"/>
<path d="M11.6157 11.8929L10.3584 12.1452L10.6107 13.4025L11.868 13.1502L11.6157 11.8929Z" fill="white"/>
<path d="M12.8731 11.6406L11.6157 11.8929L11.868 13.1502L13.1254 12.8979L12.8731 11.6406Z" fill="white"/>
<path d="M15.3878 11.136L14.1304 11.3883L14.3827 12.6456L15.6401 12.3933L15.3878 11.136Z" fill="white"/>
<path d="M17.9025 10.6314L16.6451 10.8837L16.8974 12.141L18.1547 11.8888L17.9025 10.6314Z" fill="white"/>
<path d="M20.4171 10.1268L19.1598 10.3791L19.4121 11.6365L20.6694 11.3842L20.4171 10.1268Z" fill="white"/>
<path d="M24.1892 9.36993L22.9318 9.62222L23.1841 10.8796L24.4415 10.6273L24.1892 9.36993Z" fill="white"/>
<path d="M26.7038 8.86533L25.4465 9.11763L25.6988 10.375L26.9561 10.1227L26.7038 8.86533Z" fill="white"/>
<path d="M27.9612 8.61304L26.7038 8.86533L26.9561 10.1227L28.2135 9.87038L27.9612 8.61304Z" fill="white"/>
<path d="M31.7332 7.85615L30.4759 8.10845L30.7282 9.36579L31.9855 9.11349L31.7332 7.85615Z" fill="white"/>
<path d="M32.9905 7.60385L31.7332 7.85615L31.9855 9.11349L33.2428 8.86119L32.9905 7.60385Z" fill="white"/>
<path d="M36.7626 6.84696L35.5052 7.09926L35.7575 8.3566L37.0149 8.10431L36.7626 6.84696Z" fill="white"/>
<path d="M38.0199 6.59467L36.7626 6.84696L37.0149 8.10431L38.2722 7.85201L38.0199 6.59467Z" fill="white"/>
<path d="M39.2772 6.34237L38.0199 6.59467L38.2722 7.85201L39.5295 7.59971L39.2772 6.34237Z" fill="white"/>
<path d="M40.5346 6.09007L39.2772 6.34237L39.5295 7.59971L40.7869 7.34742L40.5346 6.09007Z" fill="white"/>
<path d="M43.0493 5.58548L41.7919 5.83778L42.0442 7.09512L43.3016 6.84282L43.0493 5.58548Z" fill="white"/>
<path d="M44.3066 5.33319L43.0493 5.58548L43.3016 6.84282L44.5589 6.59053L44.3066 5.33319Z" fill="white"/>
<path d="M45.564 5.08089L44.3066 5.33319L44.5589 6.59053L45.8162 6.33823L45.564 5.08089Z" fill="white"/>
<path d="M46.8213 4.82859L45.564 5.08089L45.8162 6.33823L47.0736 6.08593L46.8213 4.82859Z" fill="white"/>
<path d="M48.0786 4.5763L46.8213 4.82859L47.0736 6.08593L48.3309 5.83364L48.0786 4.5763Z" fill="white"/>
<path d="M49.336 4.324L48.0786 4.5763L48.3309 5.83364L49.5883 5.58134L49.336 4.324Z" fill="white"/>
<path d="M50.5933 4.0717L49.336 4.324L49.5883 5.58134L50.8456 5.32904L50.5933 4.0717Z" fill="white"/>
<path d="M5.58134 14.4117L4.324 14.664L4.5763 15.9214L5.83364 15.6691L5.58134 14.4117Z" fill="white"/>
<path d="M13.1254 12.8979L11.868 13.1502L12.1203 14.4076L13.3777 14.1553L13.1254 12.8979Z" fill="white"/>
<path d="M16.8974 12.141L15.6401 12.3933L15.8924 13.6507L17.1497 13.3984L16.8974 12.141Z" fill="white"/>
<path d="M20.6694 11.3842L19.4121 11.6365L19.6644 12.8938L20.9217 12.6415L20.6694 11.3842Z" fill="white"/>
<path d="M21.9268 11.1319L20.6694 11.3842L20.9217 12.6415L22.1791 12.3892L21.9268 11.1319Z" fill="white"/>
<path d="M25.6988 10.375L24.4415 10.6273L24.6937 11.8846L25.9511 11.6323L25.6988 10.375Z" fill="white"/>
<path d="M26.9561 10.1227L25.6988 10.375L25.9511 11.6323L27.2084 11.38L26.9561 10.1227Z" fill="white"/>
<path d="M29.4708 9.61808L28.2135 9.87038L28.4658 11.1277L29.7231 10.8754L29.4708 9.61808Z" fill="white"/>
<path d="M33.2428 8.86119L31.9855 9.11349L32.2378 10.3708L33.4951 10.1185L33.2428 8.86119Z" fill="white"/>
<path d="M34.5002 8.6089L33.2428 8.86119L33.4951 10.1185L34.7525 9.86624L34.5002 8.6089Z" fill="white"/>
<path d="M35.7575 8.3566L34.5002 8.6089L34.7525 9.86624L36.0098 9.61394L35.7575 8.3566Z" fill="white"/>
<path d="M38.2722 7.85201L37.0149 8.10431L37.2672 9.36165L38.5245 9.10935L38.2722 7.85201Z" fill="white"/>
<path d="M43.3016 6.84282L42.0442 7.09512L42.2965 8.35246L43.5539 8.10016L43.3016 6.84282Z" fill="white"/>
<path d="M50.8456 5.32904L49.5883 5.58134L49.8406 6.83868L51.0979 6.58639L50.8456 5.32904Z" fill="white"/>
<path d="M5.83364 15.6691L4.5763 15.9214L4.82859 17.1787L6.08593 16.9264L5.83364 15.6691Z" fill="white"/>
<path d="M8.34832 15.1645L7.09098 15.4168L7.34327 16.6741L8.60062 16.4218L8.34832 15.1645Z" fill="white"/>
<path d="M9.60566 14.9122L8.34832 15.1645L8.60062 16.4218L9.85796 16.1695L9.60566 14.9122Z" fill="white"/>
<path d="M10.863 14.6599L9.60566 14.9122L9.85796 16.1695L11.1153 15.9172L10.863 14.6599Z" fill="white"/>
<path d="M13.3777 14.1553L12.1203 14.4076L12.3726 15.6649L13.63 15.4126L13.3777 14.1553Z" fill="white"/>
<path d="M17.1497 13.3984L15.8924 13.6507L16.1447 14.908L17.402 14.6557L17.1497 13.3984Z" fill="white"/>
<path d="M19.6644 12.8938L18.407 13.1461L18.6593 14.4034L19.9167 14.1511L19.6644 12.8938Z" fill="white"/>
<path d="M22.1791 12.3892L20.9217 12.6415L21.174 13.8988L22.4314 13.6465L22.1791 12.3892Z" fill="white"/>
<path d="M25.9511 11.6323L24.6937 11.8846L24.946 13.142L26.2034 12.8897L25.9511 11.6323Z" fill="white"/>
<path d="M27.2084 11.38L25.9511 11.6323L26.2034 12.8897L27.4607 12.6374L27.2084 11.38Z" fill="white"/>
<path d="M29.7231 10.8754L28.4658 11.1277L28.7181 12.3851L29.9754 12.1328L29.7231 10.8754Z" fill="white"/>
<path d="M33.4951 10.1185L32.2378 10.3708L32.4901 11.6282L33.7474 11.3759L33.4951 10.1185Z" fill="white"/>
<path d="M34.7525 9.86624L33.4951 10.1185L33.7474 11.3759L35.0048 11.1236L34.7525 9.86624Z" fill="white"/>
<path d="M37.2672 9.36165L36.0098 9.61394L36.2621 10.8713L37.5195 10.619L37.2672 9.36165Z" fill="white"/>
<path d="M41.0392 8.60476L39.7818 8.85705L40.0341 10.1144L41.2915 9.8621L41.0392 8.60476Z" fill="white"/>
<path d="M43.5539 8.10016L42.2965 8.35246L42.5488 9.6098L43.8062 9.35751L43.5539 8.10016Z" fill="white"/>
<path d="M46.0685 7.59557L44.8112 7.84787L45.0635 9.10521L46.3208 8.85291L46.0685 7.59557Z" fill="white"/>
<path d="M47.3259 7.34327L46.0685 7.59557L46.3208 8.85291L47.5782 8.60062L47.3259 7.34327Z" fill="white"/>
<path d="M48.5832 7.09098L47.3259 7.34327L47.5782 8.60062L48.8355 8.34832L48.5832 7.09098Z" fill="white"/>
<path d="M51.0979 6.58639L49.8406 6.83868L50.0929 8.09602L51.3502 7.84373L51.0979 6.58639Z" fill="white"/>
<path d="M6.08593 16.9264L4.82859 17.1787L5.08089 18.436L6.33823 18.1837L6.08593 16.9264Z" fill="white"/>
<path d="M8.60062 16.4218L7.34327 16.6741L7.59557 17.9314L8.85291 17.6791L8.60062 16.4218Z" fill="white"/>
<path d="M9.85796 16.1695L8.60062 16.4218L8.85291 17.6791L10.1103 17.4268L9.85796 16.1695Z" fill="white"/>
<path d="M11.1153 15.9172L9.85796 16.1695L10.1103 17.4268L11.3676 17.1746L11.1153 15.9172Z" fill="white"/>
<path d="M13.63 15.4126L12.3726 15.6649L12.6249 16.9223L13.8823 16.67L13.63 15.4126Z" fill="white"/>
<path d="M16.1447 14.908L14.8873 15.1603L15.1396 16.4177L16.397 16.1654L16.1447 14.908Z" fill="white"/>
<path d="M24.946 13.142L23.6887 13.3942L23.941 14.6516L25.1983 14.3993L24.946 13.142Z" fill="white"/>
<path d="M27.4607 12.6374L26.2034 12.8897L26.4557 14.147L27.713 13.8947L27.4607 12.6374Z" fill="white"/>
<path d="M31.2328 11.8805L29.9754 12.1328L30.2277 13.3901L31.485 13.1378L31.2328 11.8805Z" fill="white"/>
<path d="M32.4901 11.6282L31.2328 11.8805L31.485 13.1378L32.7424 12.8855L32.4901 11.6282Z" fill="white"/>
<path d="M38.7768 10.3667L37.5195 10.619L37.7718 11.8763L39.0291 11.624L38.7768 10.3667Z" fill="white"/>
<path d="M43.8062 9.35751L42.5488 9.6098L42.8011 10.8671L44.0585 10.6148L43.8062 9.35751Z" fill="white"/>
<path d="M46.3208 8.85291L45.0635 9.10521L45.3158 10.3625L46.5731 10.1103L46.3208 8.85291Z" fill="white"/>
<path d="M47.5782 8.60062L46.3208 8.85291L46.5731 10.1103L47.8305 9.85796L47.5782 8.60062Z" fill="white"/>
<path d="M48.8355 8.34832L47.5782 8.60062L47.8305 9.85796L49.0878 9.60566L48.8355 8.34832Z" fill="white"/>
<path d="M51.3502 7.84373L50.0929 8.09602L50.3452 9.35336L51.6025 9.10107L51.3502 7.84373Z" fill="white"/>
<path d="M6.33823 18.1837L5.08089 18.436L5.33319 19.6934L6.59053 19.4411L6.33823 18.1837Z" fill="white"/>
<path d="M8.85291 17.6791L7.59557 17.9314L7.84787 19.1888L9.10521 18.9365L8.85291 17.6791Z" fill="white"/>
<path d="M10.1103 17.4268L8.85291 17.6791L9.10521 18.9365L10.3625 18.6842L10.1103 17.4268Z" fill="white"/>
<path d="M11.3676 17.1746L10.1103 17.4268L10.3625 18.6842L11.6199 18.4319L11.3676 17.1746Z" fill="white"/>
<path d="M13.8823 16.67L12.6249 16.9223L12.8772 18.1796L14.1346 17.9273L13.8823 16.67Z" fill="white"/>
<path d="M16.397 16.1654L15.1396 16.4177L15.3919 17.675L16.6493 17.4227L16.397 16.1654Z" fill="white"/>
<path d="M18.9116 15.6608L17.6543 15.9131L17.9066 17.1704L19.1639 16.9181L18.9116 15.6608Z" fill="white"/>
<path d="M22.6837 14.9039L21.4263 15.1562L21.6786 16.4135L22.936 16.1612L22.6837 14.9039Z" fill="white"/>
<path d="M23.941 14.6516L22.6837 14.9039L22.936 16.1612L24.1933 15.9089L23.941 14.6516Z" fill="white"/>
<path d="M25.1983 14.3993L23.941 14.6516L24.1933 15.9089L25.4506 15.6566L25.1983 14.3993Z" fill="white"/>
<path d="M27.713 13.8947L26.4557 14.147L26.708 15.4043L27.9653 15.152L27.713 13.8947Z" fill="white"/>
<path d="M31.485 13.1378L30.2277 13.3901L30.48 14.6474L31.7373 14.3952L31.485 13.1378Z" fill="white"/>
<path d="M35.2571 12.3809L33.9997 12.6332L34.252 13.8906L35.5094 13.6383L35.2571 12.3809Z" fill="white"/>
<path d="M36.5144 12.1286L35.2571 12.3809L35.5094 13.6383L36.7667 13.386L36.5144 12.1286Z" fill="white"/>
<path d="M39.0291 11.624L37.7718 11.8763L38.024 13.1337L39.2814 12.8814L39.0291 11.624Z" fill="white"/>
<path d="M40.2864 11.3717L39.0291 11.624L39.2814 12.8814L40.5387 12.6291L40.2864 11.3717Z" fill="white"/>
<path d="M41.5438 11.1194L40.2864 11.3717L40.5387 12.6291L41.7961 12.3768L41.5438 11.1194Z" fill="white"/>
<path d="M44.0585 10.6148L42.8011 10.8671L43.0534 12.1245L44.3108 11.8722L44.0585 10.6148Z" fill="white"/>
<path d="M46.5731 10.1103L45.3158 10.3625L45.5681 11.6199L46.8254 11.3676L46.5731 10.1103Z" fill="white"/>
<path d="M47.8305 9.85796L46.5731 10.1103L46.8254 11.3676L48.0828 11.1153L47.8305 9.85796Z" fill="white"/>
<path d="M49.0878 9.60566L47.8305 9.85796L48.0828 11.1153L49.3401 10.863L49.0878 9.60566Z" fill="white"/>
<path d="M51.6025 9.10107L50.3452 9.35336L50.5975 10.6107L51.8548 10.3584L51.6025 9.10107Z" fill="white"/>
<path d="M6.59053 19.4411L5.33319 19.6934L5.58548 20.9507L6.84282 20.6984L6.59053 19.4411Z" fill="white"/>
<path d="M14.1346 17.9273L12.8772 18.1796L13.1295 19.4369L14.3869 19.1846L14.1346 17.9273Z" fill="white"/>
<path d="M16.6493 17.4227L15.3919 17.675L15.6442 18.9323L16.9016 18.68L16.6493 17.4227Z" fill="white"/>
<path d="M19.1639 16.9181L17.9066 17.1704L18.1589 18.4278L19.4162 18.1755L19.1639 16.9181Z" fill="white"/>
<path d="M20.4213 16.6658L19.1639 16.9181L19.4162 18.1755L20.6736 17.9232L20.4213 16.6658Z" fill="white"/>
<path d="M21.6786 16.4135L20.4213 16.6658L20.6736 17.9232L21.9309 17.6709L21.6786 16.4135Z" fill="white"/>
<path d="M22.936 16.1612L21.6786 16.4135L21.9309 17.6709L23.1883 17.4186L22.936 16.1612Z" fill="white"/>
<path d="M25.4506 15.6566L24.1933 15.9089L24.4456 17.1663L25.7029 16.914L25.4506 15.6566Z" fill="white"/>
<path d="M27.9653 15.152L26.708 15.4043L26.9603 16.6617L28.2176 16.4094L27.9653 15.152Z" fill="white"/>
<path d="M32.9947 14.1429L31.7373 14.3952L31.9896 15.6525L33.247 15.4002L32.9947 14.1429Z" fill="white"/>
<path d="M34.252 13.8906L32.9947 14.1429L33.247 15.4002L34.5043 15.1479L34.252 13.8906Z" fill="white"/>
<path d="M38.024 13.1337L36.7667 13.386L37.019 14.6433L38.2763 14.391L38.024 13.1337Z" fill="white"/>
<path d="M39.2814 12.8814L38.024 13.1337L38.2763 14.391L39.5337 14.1387L39.2814 12.8814Z" fill="white"/>
<path d="M41.7961 12.3768L40.5387 12.6291L40.791 13.8864L42.0484 13.6341L41.7961 12.3768Z" fill="white"/>
<path d="M44.3108 11.8722L43.0534 12.1245L43.3057 13.3818L44.563 13.1295L44.3108 11.8722Z" fill="white"/>
<path d="M51.8548 10.3584L50.5975 10.6107L50.8498 11.868L52.1071 11.6157L51.8548 10.3584Z" fill="white"/>
<path d="M6.84282 20.6984L5.58548 20.9507L5.83778 22.2081L7.09512 21.9558L6.84282 20.6984Z" fill="white"/>
<path d="M8.10016 20.4461L6.84282 20.6984L7.09512 21.9558L8.35246 21.7035L8.10016 20.4461Z" fill="white"/>
<path d="M9.3575 20.1938L8.10016 20.4461L8.35246 21.7035L9.6098 21.4512L9.3575 20.1938Z" fill="white"/>
<path d="M10.6148 19.9415L9.3575 20.1938L9.6098 21.4512L10.8671 21.1989L10.6148 19.9415Z" fill="white"/>
<path d="M11.8722 19.6892L10.6148 19.9415L10.8671 21.1989L12.1245 20.9466L11.8722 19.6892Z" fill="white"/>
<path d="M13.1295 19.4369L11.8722 19.6892L12.1245 20.9466L13.3818 20.6943L13.1295 19.4369Z" fill="white"/>
<path d="M14.3869 19.1846L13.1295 19.4369L13.3818 20.6943L14.6392 20.442L14.3869 19.1846Z" fill="white"/>
<path d="M16.9016 18.68L15.6442 18.9323L15.8965 20.1897L17.1538 19.9374L16.9016 18.68Z" fill="white"/>
<path d="M19.4162 18.1755L18.1589 18.4278L18.4112 19.6851L19.6685 19.4328L19.4162 18.1755Z" fill="white"/>
<path d="M21.9309 17.6709L20.6736 17.9232L20.9259 19.1805L22.1832 18.9282L21.9309 17.6709Z" fill="white"/>
<path d="M24.4456 17.1663L23.1883 17.4186L23.4405 18.6759L24.6979 18.4236L24.4456 17.1663Z" fill="white"/>
<path d="M26.9603 16.6617L25.7029 16.914L25.9552 18.1713L27.2126 17.919L26.9603 16.6617Z" fill="white"/>
<path d="M29.475 16.1571L28.2176 16.4094L28.4699 17.6667L29.7273 17.4144L29.475 16.1571Z" fill="white"/>
<path d="M31.9896 15.6525L30.7323 15.9048L30.9846 17.1621L32.2419 16.9098L31.9896 15.6525Z" fill="white"/>
<path d="M34.5043 15.1479L33.247 15.4002L33.4993 16.6575L34.7566 16.4052L34.5043 15.1479Z" fill="white"/>
<path d="M37.019 14.6433L35.7617 14.8956L36.014 16.1529L37.2713 15.9006L37.019 14.6433Z" fill="white"/>
<path d="M39.5337 14.1387L38.2763 14.391L38.5286 15.6484L39.786 15.3961L39.5337 14.1387Z" fill="white"/>
<path d="M42.0484 13.6341L40.791 13.8864L41.0433 15.1438L42.3007 14.8915L42.0484 13.6341Z" fill="white"/>
<path d="M44.563 13.1295L43.3057 13.3818L43.558 14.6392L44.8153 14.3869L44.563 13.1295Z" fill="white"/>
<path d="M45.8204 12.8772L44.563 13.1295L44.8153 14.3869L46.0727 14.1346L45.8204 12.8772Z" fill="white"/>
<path d="M47.0777 12.6249L45.8204 12.8772L46.0727 14.1346L47.33 13.8823L47.0777 12.6249Z" fill="white"/>
<path d="M48.3351 12.3726L47.0777 12.6249L47.33 13.8823L48.5874 13.63L48.3351 12.3726Z" fill="white"/>
<path d="M49.5924 12.1203L48.3351 12.3726L48.5874 13.63L49.8447 13.3777L49.5924 12.1203Z" fill="white"/>
<path d="M50.8498 11.868L49.5924 12.1203L49.8447 13.3777L51.1021 13.1254L50.8498 11.868Z" fill="white"/>
<path d="M52.1071 11.6157L50.8498 11.868L51.1021 13.1254L52.3594 12.8731L52.1071 11.6157Z" fill="white"/>
<path d="M17.1538 19.9374L15.8965 20.1897L16.1488 21.447L17.4061 21.1947L17.1538 19.9374Z" fill="white"/>
<path d="M19.6685 19.4328L18.4112 19.6851L18.6635 20.9424L19.9208 20.6901L19.6685 19.4328Z" fill="white"/>
<path d="M22.1832 18.9282L20.9259 19.1805L21.1782 20.4378L22.4355 20.1855L22.1832 18.9282Z" fill="white"/>
<path d="M23.4405 18.6759L22.1832 18.9282L22.4355 20.1855L23.6928 19.9332L23.4405 18.6759Z" fill="white"/>
<path d="M27.2126 17.919L25.9552 18.1713L26.2075 19.4287L27.4649 19.1764L27.2126 17.919Z" fill="white"/>
<path d="M32.2419 16.9098L30.9846 17.1621L31.2369 18.4195L32.4942 18.1672L32.2419 16.9098Z" fill="white"/>
<path d="M33.4993 16.6575L32.2419 16.9098L32.4942 18.1672L33.7516 17.9149L33.4993 16.6575Z" fill="white"/>
<path d="M39.786 15.3961L38.5286 15.6484L38.7809 16.9057L40.0383 16.6534L39.786 15.3961Z" fill="white"/>
<path d="M41.0433 15.1438L39.786 15.3961L40.0383 16.6534L41.2956 16.4011L41.0433 15.1438Z" fill="white"/>
<path d="M42.3007 14.8915L41.0433 15.1438L41.2956 16.4011L42.553 16.1488L42.3007 14.8915Z" fill="white"/>
<path d="M7.34742 23.2131L6.09007 23.4654L6.34237 24.7227L7.59971 24.4704L7.34742 23.2131Z" fill="white"/>
<path d="M8.60476 22.9608L7.34742 23.2131L7.59971 24.4704L8.85705 24.2181L8.60476 22.9608Z" fill="white"/>
<path d="M9.8621 22.7085L8.60476 22.9608L8.85705 24.2181L10.1144 23.9659L9.8621 22.7085Z" fill="white"/>
<path d="M12.3768 22.2039L11.1194 22.4562L11.3717 23.7136L12.6291 23.4613L12.3768 22.2039Z" fill="white"/>
<path d="M14.8915 21.6993L13.6341 21.9516L13.8864 23.209L15.1438 22.9567L14.8915 21.6993Z" fill="white"/>
<path d="M17.4061 21.1947L16.1488 21.447L16.4011 22.7044L17.6584 22.4521L17.4061 21.1947Z" fill="white"/>
<path d="M19.9208 20.6901L18.6635 20.9424L18.9158 22.1998L20.1731 21.9475L19.9208 20.6901Z" fill="white"/>
<path d="M24.9502 19.681L23.6928 19.9332L23.9451 21.1906L25.2025 20.9383L24.9502 19.681Z" fill="white"/>
<path d="M27.4649 19.1764L26.2075 19.4287L26.4598 20.686L27.7172 20.4337L27.4649 19.1764Z" fill="white"/>
<path d="M28.7222 18.9241L27.4649 19.1764L27.7172 20.4337L28.9745 20.1814L28.7222 18.9241Z" fill="white"/>
<path d="M31.2369 18.4195L29.9796 18.6718L30.2318 19.9291L31.4892 19.6768L31.2369 18.4195Z" fill="white"/>
<path d="M32.4942 18.1672L31.2369 18.4195L31.4892 19.6768L32.7465 19.4245L32.4942 18.1672Z" fill="white"/>
<path d="M33.7516 17.9149L32.4942 18.1672L32.7465 19.4245L34.0039 19.1722L33.7516 17.9149Z" fill="white"/>
<path d="M38.7809 16.9057L37.5236 17.158L37.7759 18.4153L39.0332 18.163L38.7809 16.9057Z" fill="white"/>
<path d="M41.2956 16.4011L40.0383 16.6534L40.2906 17.9107L41.5479 17.6584L41.2956 16.4011Z" fill="white"/>
<path d="M42.553 16.1488L41.2956 16.4011L41.5479 17.6584L42.8053 17.4061L42.553 16.1488Z" fill="white"/>
<path d="M43.8103 15.8965L42.553 16.1488L42.8053 17.4061L44.0626 17.1538L43.8103 15.8965Z" fill="white"/>
<path d="M45.0676 15.6442L43.8103 15.8965L44.0626 17.1538L45.3199 16.9016L45.0676 15.6442Z" fill="white"/>
<path d="M46.325 15.3919L45.0676 15.6442L45.3199 16.9016L46.5773 16.6493L46.325 15.3919Z" fill="white"/>
<path d="M47.5823 15.1396L46.325 15.3919L46.5773 16.6493L47.8346 16.397L47.5823 15.1396Z" fill="white"/>
<path d="M48.8397 14.8873L47.5823 15.1396L47.8346 16.397L49.092 16.1447L48.8397 14.8873Z" fill="white"/>
<path d="M52.6117 14.1304L51.3543 14.3827L51.6066 15.6401L52.864 15.3878L52.6117 14.1304Z" fill="white"/>
<path d="M8.85705 24.2181L7.59971 24.4704L7.85201 25.7278L9.10935 25.4755L8.85705 24.2181Z" fill="white"/>
<path d="M11.3717 23.7136L10.1144 23.9659L10.3667 25.2232L11.624 24.9709L11.3717 23.7136Z" fill="white"/>
<path d="M12.6291 23.4613L11.3717 23.7136L11.624 24.9709L12.8814 24.7186L12.6291 23.4613Z" fill="white"/>
<path d="M16.4011 22.7044L15.1438 22.9567L15.3961 24.214L16.6534 23.9617L16.4011 22.7044Z" fill="white"/>
<path d="M17.6584 22.4521L16.4011 22.7044L16.6534 23.9617L17.9107 23.7094L17.6584 22.4521Z" fill="white"/>
<path d="M18.9158 22.1998L17.6584 22.4521L17.9107 23.7094L19.1681 23.4571L18.9158 22.1998Z" fill="white"/>
<path d="M20.1731 21.9475L18.9158 22.1998L19.1681 23.4571L20.4254 23.2048L20.1731 21.9475Z" fill="white"/>
<path d="M21.4305 21.6952L20.1731 21.9475L20.4254 23.2048L21.6828 22.9525L21.4305 21.6952Z" fill="white"/>
<path d="M23.9451 21.1906L22.6878 21.4429L22.9401 22.7002L24.1974 22.4479L23.9451 21.1906Z" fill="white"/>
<path d="M27.7172 20.4337L26.4598 20.686L26.7121 21.9433L27.9695 21.691L27.7172 20.4337Z" fill="white"/>
<path d="M28.9745 20.1814L27.7172 20.4337L27.9695 21.691L29.2268 21.4387L28.9745 20.1814Z" fill="white"/>
<path d="M30.2318 19.9291L28.9745 20.1814L29.2268 21.4387L30.4841 21.1864L30.2318 19.9291Z" fill="white"/>
<path d="M31.4892 19.6768L30.2318 19.9291L30.4841 21.1864L31.7415 20.9342L31.4892 19.6768Z" fill="white"/>
<path d="M32.7465 19.4245L31.4892 19.6768L31.7415 20.9342L32.9988 20.6819L32.7465 19.4245Z" fill="white"/>
<path d="M34.0039 19.1722L32.7465 19.4245L32.9988 20.6819L34.2562 20.4296L34.0039 19.1722Z" fill="white"/>
<path d="M35.2612 18.9199L34.0039 19.1722L34.2562 20.4296L35.5135 20.1773L35.2612 18.9199Z" fill="white"/>
<path d="M37.7759 18.4153L36.5186 18.6676L36.7708 19.925L38.0282 19.6727L37.7759 18.4153Z" fill="white"/>
<path d="M40.2906 17.9107L39.0332 18.163L39.2855 19.4204L40.5429 19.1681L40.2906 17.9107Z" fill="white"/>
<path d="M41.5479 17.6584L40.2906 17.9107L40.5429 19.1681L41.8002 18.9158L41.5479 17.6584Z" fill="white"/>
<path d="M47.8346 16.397L46.5773 16.6493L46.8296 17.9066L48.0869 17.6543L47.8346 16.397Z" fill="white"/>
<path d="M7.85201 25.7278L6.59467 25.9801L6.84696 27.2374L8.1043 26.9851L7.85201 25.7278Z" fill="white"/>
<path d="M12.8814 24.7186L11.624 24.9709L11.8763 26.2282L13.1337 25.9759L12.8814 24.7186Z" fill="white"/>
<path d="M15.3961 24.214L14.1387 24.4663L14.391 25.7236L15.6484 25.4713L15.3961 24.214Z" fill="white"/>
<path d="M19.1681 23.4571L17.9107 23.7094L18.163 24.9668L19.4204 24.7145L19.1681 23.4571Z" fill="white"/>
<path d="M20.4254 23.2048L19.1681 23.4571L19.4204 24.7145L20.6777 24.4622L20.4254 23.2048Z" fill="white"/>
<path d="M22.9401 22.7002L21.6828 22.9525L21.9351 24.2099L23.1924 23.9576L22.9401 22.7002Z" fill="white"/>
<path d="M25.4548 22.1956L24.1974 22.4479L24.4497 23.7053L25.7071 23.453L25.4548 22.1956Z" fill="white"/>
<path d="M26.7121 21.9433L25.4548 22.1956L25.7071 23.453L26.9644 23.2007L26.7121 21.9433Z" fill="white"/>
<path d="M27.9695 21.691L26.7121 21.9433L26.9644 23.2007L28.2218 22.9484L27.9695 21.691Z" fill="white"/>
<path d="M29.2268 21.4387L27.9695 21.691L28.2218 22.9484L29.4791 22.6961L29.2268 21.4387Z" fill="white"/>
<path d="M31.7415 20.9342L30.4841 21.1864L30.7364 22.4438L31.9938 22.1915L31.7415 20.9342Z" fill="white"/>
<path d="M34.2562 20.4296L32.9988 20.6819L33.2511 21.9392L34.5085 21.6869L34.2562 20.4296Z" fill="white"/>
<path d="M35.5135 20.1773L34.2562 20.4296L34.5085 21.6869L35.7658 21.4346L35.5135 20.1773Z" fill="white"/>
<path d="M36.7708 19.925L35.5135 20.1773L35.7658 21.4346L37.0231 21.1823L36.7708 19.925Z" fill="white"/>
<path d="M38.0282 19.6727L36.7708 19.925L37.0231 21.1823L38.2805 20.93L38.0282 19.6727Z" fill="white"/>
<path d="M39.2855 19.4204L38.0282 19.6727L38.2805 20.93L39.5378 20.6777L39.2855 19.4204Z" fill="white"/>
<path d="M40.5429 19.1681L39.2855 19.4204L39.5378 20.6777L40.7952 20.4254L40.5429 19.1681Z" fill="white"/>
<path d="M43.0576 18.6635L41.8002 18.9158L42.0525 20.1731L43.3099 19.9208L43.0576 18.6635Z" fill="white"/>
<path d="M46.8296 17.9066L45.5722 18.1589L45.8245 19.4162L47.0819 19.1639L46.8296 17.9066Z" fill="white"/>
<path d="M50.6016 17.1497L49.3443 17.402L49.5966 18.6593L50.8539 18.407L50.6016 17.1497Z" fill="white"/>
<path d="M53.1163 16.6451L51.8589 16.8974L52.1112 18.1547L53.3686 17.9025L53.1163 16.6451Z" fill="white"/>
<path d="M11.8763 26.2282L10.619 26.4805L10.8713 27.7379L12.1286 27.4856L11.8763 26.2282Z" fill="white"/>
<path d="M14.391 25.7236L13.1337 25.9759L13.386 27.2333L14.6433 26.981L14.391 25.7236Z" fill="white"/>
<path d="M18.163 24.9668L16.9057 25.219L17.158 26.4764L18.4153 26.2241L18.163 24.9668Z" fill="white"/>
<path d="M19.4204 24.7145L18.163 24.9668L18.4153 26.2241L19.6727 25.9718L19.4204 24.7145Z" fill="white"/>
<path d="M25.7071 23.453L24.4497 23.7053L24.702 24.9626L25.9594 24.7103L25.7071 23.453Z" fill="white"/>
<path d="M33.2511 21.9392L31.9938 22.1915L32.2461 23.4488L33.5034 23.1965L33.2511 21.9392Z" fill="white"/>
<path d="M34.5085 21.6869L33.2511 21.9392L33.5034 23.1965L34.7608 22.9442L34.5085 21.6869Z" fill="white"/>
<path d="M39.5378 20.6777L38.2805 20.93L38.5328 22.1874L39.7901 21.9351L39.5378 20.6777Z" fill="white"/>
<path d="M40.7952 20.4254L39.5378 20.6777L39.7901 21.9351L41.0475 21.6828L40.7952 20.4254Z" fill="white"/>
<path d="M44.5672 19.6685L43.3099 19.9208L43.5621 21.1782L44.8195 20.9259L44.5672 19.6685Z" fill="white"/>
<path d="M47.0819 19.1639L45.8245 19.4162L46.0768 20.6736L47.3342 20.4213L47.0819 19.1639Z" fill="white"/>
<path d="M50.8539 18.407L49.5966 18.6593L49.8489 19.9167L51.1062 19.6644L50.8539 18.407Z" fill="white"/>
<path d="M52.1112 18.1547L50.8539 18.407L51.1062 19.6644L52.3635 19.4121L52.1112 18.1547Z" fill="white"/>
<path d="M53.3686 17.9025L52.1112 18.1547L52.3635 19.4121L53.6209 19.1598L53.3686 17.9025Z" fill="white"/>
<path d="M9.61394 27.9902L8.3566 28.2425L8.6089 29.4998L9.86624 29.2475L9.61394 27.9902Z" fill="white"/>
<path d="M10.8713 27.7379L9.61394 27.9902L9.86624 29.2475L11.1236 28.9952L10.8713 27.7379Z" fill="white"/>
<path d="M13.386 27.2333L12.1286 27.4856L12.3809 28.7429L13.6383 28.4906L13.386 27.2333Z" fill="white"/>
<path d="M14.6433 26.981L13.386 27.2333L13.6383 28.4906L14.8956 28.2383L14.6433 26.981Z" fill="white"/>
<path d="M15.9006 26.7287L14.6433 26.981L14.8956 28.2383L16.1529 27.986L15.9006 26.7287Z" fill="white"/>
<path d="M20.93 25.7195L19.6727 25.9718L19.925 27.2291L21.1823 26.9768L20.93 25.7195Z" fill="white"/>
<path d="M22.1874 25.4672L20.93 25.7195L21.1823 26.9768L22.4396 26.7245L22.1874 25.4672Z" fill="white"/>
<path d="M27.2167 24.458L25.9594 24.7103L26.2117 25.9677L27.469 25.7154L27.2167 24.458Z" fill="white"/>
<path d="M28.4741 24.2057L27.2167 24.458L27.469 25.7154L28.7264 25.4631L28.4741 24.2057Z" fill="white"/>
<path d="M29.7314 23.9534L28.4741 24.2057L28.7264 25.4631L29.9837 25.2108L29.7314 23.9534Z" fill="white"/>
<path d="M30.9887 23.7011L29.7314 23.9534L29.9837 25.2108L31.241 24.9585L30.9887 23.7011Z" fill="white"/>
<path d="M33.5034 23.1965L32.2461 23.4488L32.4984 24.7062L33.7557 24.4539L33.5034 23.1965Z" fill="white"/>
<path d="M36.0181 22.6919L34.7608 22.9442L35.0131 24.2016L36.2704 23.9493L36.0181 22.6919Z" fill="white"/>
<path d="M39.7901 21.9351L38.5328 22.1874L38.7851 23.4447L40.0424 23.1924L39.7901 21.9351Z" fill="white"/>
<path d="M41.0475 21.6828L39.7901 21.9351L40.0424 23.1924L41.2998 22.9401L41.0475 21.6828Z" fill="white"/>
<path d="M42.3048 21.4305L41.0475 21.6828L41.2998 22.9401L42.5571 22.6878L42.3048 21.4305Z" fill="white"/>
<path d="M43.5621 21.1782L42.3048 21.4305L42.5571 22.6878L43.8144 22.4355L43.5621 21.1782Z" fill="white"/>
<path d="M48.5915 20.169L47.3342 20.4213L47.5865 21.6786L48.8438 21.4263L48.5915 20.169Z" fill="white"/>
<path d="M49.8489 19.9167L48.5915 20.169L48.8438 21.4263L50.1011 21.174L49.8489 19.9167Z" fill="white"/>
<path d="M51.1062 19.6644L49.8489 19.9167L50.1011 21.174L51.3585 20.9217L51.1062 19.6644Z" fill="white"/>
<path d="M8.6089 29.4998L7.35156 29.7521L7.60385 31.0094L8.86119 30.7571L8.6089 29.4998Z" fill="white"/>
<path d="M9.86624 29.2475L8.6089 29.4998L8.86119 30.7571L10.1185 30.5048L9.86624 29.2475Z" fill="white"/>
<path d="M12.3809 28.7429L11.1236 28.9952L11.3759 30.2526L12.6332 30.0003L12.3809 28.7429Z" fill="white"/>
<path d="M17.4103 27.7337L16.1529 27.986L16.4052 29.2434L17.6626 28.9911L17.4103 27.7337Z" fill="white"/>
<path d="M21.1823 26.9768L19.925 27.2291L20.1773 28.4865L21.4346 28.2342L21.1823 26.9768Z" fill="white"/>
<path d="M23.697 26.4722L22.4396 26.7245L22.6919 27.9819L23.9493 27.7296L23.697 26.4722Z" fill="white"/>
<path d="M26.2117 25.9677L24.9543 26.22L25.2066 27.4773L26.464 27.225L26.2117 25.9677Z" fill="white"/>
<path d="M27.469 25.7154L26.2117 25.9677L26.464 27.225L27.7213 26.9727L27.469 25.7154Z" fill="white"/>
<path d="M32.4984 24.7062L31.241 24.9585L31.4933 26.2158L32.7507 25.9635L32.4984 24.7062Z" fill="white"/>
<path d="M35.0131 24.2016L33.7557 24.4539L34.008 25.7112L35.2654 25.4589L35.0131 24.2016Z" fill="white"/>
<path d="M38.7851 23.4447L37.5277 23.697L37.78 24.9543L39.0374 24.702L38.7851 23.4447Z" fill="white"/>
<path d="M42.5571 22.6878L41.2998 22.9401L41.5521 24.1974L42.8094 23.9451L42.5571 22.6878Z" fill="white"/>
<path d="M43.8144 22.4355L42.5571 22.6878L42.8094 23.9451L44.0667 23.6928L43.8144 22.4355Z" fill="white"/>
<path d="M48.8438 21.4263L47.5865 21.6786L47.8388 22.936L49.0961 22.6837L48.8438 21.4263Z" fill="white"/>
<path d="M8.86119 30.7571L7.60385 31.0094L7.85615 32.2668L9.11349 32.0145L8.86119 30.7571Z" fill="white"/>
<path d="M10.1185 30.5048L8.86119 30.7571L9.11349 32.0145L10.3708 31.7622L10.1185 30.5048Z" fill="white"/>
<path d="M13.8906 29.748L12.6332 30.0003L12.8855 31.2576L14.1429 31.0053L13.8906 29.748Z" fill="white"/>
<path d="M16.4052 29.2434L15.1479 29.4957L15.4002 30.753L16.6575 30.5007L16.4052 29.2434Z" fill="white"/>
<path d="M17.6626 28.9911L16.4052 29.2434L16.6575 30.5007L17.9149 30.2484L17.6626 28.9911Z" fill="white"/>
<path d="M18.9199 28.7388L17.6626 28.9911L17.9149 30.2484L19.1722 29.9961L18.9199 28.7388Z" fill="white"/>
<path d="M26.464 27.225L25.2066 27.4773L25.4589 28.7346L26.7163 28.4823L26.464 27.225Z" fill="white"/>
<path d="M27.7213 26.9727L26.464 27.225L26.7163 28.4823L27.9736 28.23L27.7213 26.9727Z" fill="white"/>
<path d="M30.236 26.4681L28.9786 26.7204L29.2309 27.9777L30.4883 27.7254L30.236 26.4681Z" fill="white"/>
<path d="M32.7507 25.9635L31.4933 26.2158L31.7456 27.4732L33.003 27.2209L32.7507 25.9635Z" fill="white"/>
<path d="M34.008 25.7112L32.7507 25.9635L33.003 27.2209L34.2603 26.9686L34.008 25.7112Z" fill="white"/>
<path d="M37.78 24.9543L36.5227 25.2066L36.775 26.464L38.0323 26.2117L37.78 24.9543Z" fill="white"/>
<path d="M39.0374 24.702L37.78 24.9543L38.0323 26.2117L39.2897 25.9594L39.0374 24.702Z" fill="white"/>
<path d="M42.8094 23.9451L41.5521 24.1974L41.8044 25.4548L43.0617 25.2025L42.8094 23.9451Z" fill="white"/>
<path d="M45.3241 23.4406L44.0667 23.6928L44.319 24.9502L45.5764 24.6979L45.3241 23.4406Z" fill="white"/>
<path d="M46.5814 23.1883L45.3241 23.4406L45.5764 24.6979L46.8337 24.4456L46.5814 23.1883Z" fill="white"/>
<path d="M51.6108 22.1791L50.3534 22.4314L50.6057 23.6887L51.8631 23.4364L51.6108 22.1791Z" fill="white"/>
<path d="M52.8681 21.9268L51.6108 22.1791L51.8631 23.4364L53.1204 23.1841L52.8681 21.9268Z" fill="white"/>
<path d="M15.4002 30.753L14.1429 31.0053L14.3952 32.2626L15.6525 32.0103L15.4002 30.753Z" fill="white"/>
<path d="M21.6869 29.4915L20.4296 29.7438L20.6819 31.0012L21.9392 30.7489L21.6869 29.4915Z" fill="white"/>
<path d="M24.2016 28.9869L22.9442 29.2392L23.1965 30.4966L24.4539 30.2443L24.2016 28.9869Z" fill="white"/>
<path d="M26.7163 28.4823L25.4589 28.7346L25.7112 29.992L26.9686 29.7397L26.7163 28.4823Z" fill="white"/>
<path d="M27.9736 28.23L26.7163 28.4823L26.9686 29.7397L28.2259 29.4874L27.9736 28.23Z" fill="white"/>
<path d="M29.2309 27.9777L27.9736 28.23L28.2259 29.4874L29.4832 29.2351L29.2309 27.9777Z" fill="white"/>
<path d="M33.003 27.2209L31.7456 27.4732L31.9979 28.7305L33.2553 28.4782L33.003 27.2209Z" fill="white"/>
<path d="M35.5176 26.7163L34.2603 26.9686L34.5126 28.2259L35.7699 27.9736L35.5176 26.7163Z" fill="white"/>
<path d="M36.775 26.464L35.5176 26.7163L35.7699 27.9736L37.0273 27.7213L36.775 26.464Z" fill="white"/>
<path d="M39.2897 25.9594L38.0323 26.2117L38.2846 27.469L39.542 27.2167L39.2897 25.9594Z" fill="white"/>
<path d="M41.8044 25.4548L40.547 25.7071L40.7993 26.9644L42.0566 26.7121L41.8044 25.4548Z" fill="white"/>
<path d="M44.319 24.9502L43.0617 25.2025L43.314 26.4598L44.5713 26.2075L44.319 24.9502Z" fill="white"/>
<path d="M45.5764 24.6979L44.319 24.9502L44.5713 26.2075L45.8287 25.9552L45.5764 24.6979Z" fill="white"/>
<path d="M46.8337 24.4456L45.5764 24.6979L45.8287 25.9552L47.086 25.7029L46.8337 24.4456Z" fill="white"/>
<path d="M49.3484 23.941L48.0911 24.1933L48.3434 25.4506L49.6007 25.1983L49.3484 23.941Z" fill="white"/>
<path d="M53.1204 23.1841L51.8631 23.4364L52.1154 24.6938L53.3727 24.4415L53.1204 23.1841Z" fill="white"/>
<path d="M9.36579 33.2718L8.10845 33.5241L8.36074 34.7815L9.61808 34.5292L9.36579 33.2718Z" fill="white"/>
<path d="M10.6231 33.0195L9.36579 33.2718L9.61808 34.5292L10.8754 34.2769L10.6231 33.0195Z" fill="white"/>
<path d="M14.3952 32.2626L13.1378 32.5149L13.3901 33.7723L14.6474 33.52L14.3952 32.2626Z" fill="white"/>
<path d="M16.9098 31.758L15.6525 32.0103L15.9048 33.2677L17.1621 33.0154L16.9098 31.758Z" fill="white"/>
<path d="M20.6819 31.0012L19.4245 31.2535L19.6768 32.5108L20.9342 32.2585L20.6819 31.0012Z" fill="white"/>
<path d="M21.9392 30.7489L20.6819 31.0012L20.9342 32.2585L22.1915 32.0062L21.9392 30.7489Z" fill="white"/>
<path d="M23.1965 30.4966L21.9392 30.7489L22.1915 32.0062L23.4488 31.7539L23.1965 30.4966Z" fill="white"/>
<path d="M25.7112 29.992L24.4539 30.2443L24.7062 31.5016L25.9635 31.2493L25.7112 29.992Z" fill="white"/>
<path d="M28.2259 29.4874L26.9686 29.7397L27.2209 30.997L28.4782 30.7447L28.2259 29.4874Z" fill="white"/>
<path d="M31.9979 28.7305L30.7406 28.9828L30.9929 30.2401L32.2502 29.9878L31.9979 28.7305Z" fill="white"/>
<path d="M33.2553 28.4782L31.9979 28.7305L32.2502 29.9878L33.5076 29.7355L33.2553 28.4782Z" fill="white"/>
<path d="M37.0273 27.7213L35.7699 27.9736L36.0222 29.2309L37.2796 28.9786L37.0273 27.7213Z" fill="white"/>
<path d="M43.314 26.4598L42.0566 26.7121L42.3089 27.9695L43.5663 27.7172L43.314 26.4598Z" fill="white"/>
<path d="M49.6007 25.1983L48.3434 25.4506L48.5956 26.708L49.853 26.4557L49.6007 25.1983Z" fill="white"/>
<path d="M9.61808 34.5292L8.36074 34.7815L8.61304 36.0388L9.87038 35.7865L9.61808 34.5292Z" fill="white"/>
<path d="M13.3901 33.7723L12.1328 34.0246L12.3851 35.2819L13.6424 35.0296L13.3901 33.7723Z" fill="white"/>
<path d="M18.4195 32.7631L17.1621 33.0154L17.4144 34.2727L18.6718 34.0204L18.4195 32.7631Z" fill="white"/>
<path d="M23.4488 31.7539L22.1915 32.0062L22.4438 33.2635L23.7011 33.0113L23.4488 31.7539Z" fill="white"/>
<path d="M24.7062 31.5016L23.4488 31.7539L23.7011 33.0113L24.9585 32.759L24.7062 31.5016Z" fill="white"/>
<path d="M29.7355 30.4924L28.4782 30.7447L28.7305 32.0021L29.9878 31.7498L29.7355 30.4924Z" fill="white"/>
<path d="M36.0222 29.2309L34.7649 29.4832L35.0172 30.7406L36.2745 30.4883L36.0222 29.2309Z" fill="white"/>
<path d="M39.7943 28.4741L38.5369 28.7264L38.7892 29.9837L40.0466 29.7314L39.7943 28.4741Z" fill="white"/>
<path d="M42.3089 27.9695L41.0516 28.2218L41.3039 29.4791L42.5612 29.2268L42.3089 27.9695Z" fill="white"/>
<path d="M46.081 27.2126L44.8236 27.4649L45.0759 28.7222L46.3333 28.4699L46.081 27.2126Z" fill="white"/>
<path d="M47.3383 26.9603L46.081 27.2126L46.3333 28.4699L47.5906 28.2176L47.3383 26.9603Z" fill="white"/>
<path d="M51.1103 26.2034L49.853 26.4557L50.1053 27.713L51.3626 27.4607L51.1103 26.2034Z" fill="white"/>
<path d="M52.3677 25.9511L51.1103 26.2034L51.3626 27.4607L52.62 27.2084L52.3677 25.9511Z" fill="white"/>
<path d="M53.625 25.6988L52.3677 25.9511L52.62 27.2084L53.8773 26.9561L53.625 25.6988Z" fill="white"/>
<path d="M12.3851 35.2819L11.1277 35.5342L11.38 36.7916L12.6374 36.5393L12.3851 35.2819Z" fill="white"/>
<path d="M13.6424 35.0296L12.3851 35.2819L12.6374 36.5393L13.8947 36.287L13.6424 35.0296Z" fill="white"/>
<path d="M17.4144 34.2727L16.1571 34.525L16.4094 35.7824L17.6667 35.5301L17.4144 34.2727Z" fill="white"/>
<path d="M18.6718 34.0204L17.4144 34.2727L17.6667 35.5301L18.9241 35.2778L18.6718 34.0204Z" fill="white"/>
<path d="M21.1864 33.5158L19.9291 33.7681L20.1814 35.0255L21.4387 34.7732L21.1864 33.5158Z" fill="white"/>
<path d="M22.4438 33.2635L21.1864 33.5158L21.4387 34.7732L22.6961 34.5209L22.4438 33.2635Z" fill="white"/>
<path d="M23.7011 33.0113L22.4438 33.2635L22.6961 34.5209L23.9534 34.2686L23.7011 33.0113Z" fill="white"/>
<path d="M27.4732 32.2544L26.2158 32.5067L26.4681 33.764L27.7254 33.5117L27.4732 32.2544Z" fill="white"/>
<path d="M29.9878 31.7498L28.7305 32.0021L28.9828 33.2594L30.2401 33.0071L29.9878 31.7498Z" fill="white"/>
<path d="M36.2745 30.4883L35.0172 30.7406L35.2695 31.9979L36.5268 31.7456L36.2745 30.4883Z" fill="white"/>
<path d="M38.7892 29.9837L37.5319 30.236L37.7842 31.4933L39.0415 31.241L38.7892 29.9837Z" fill="white"/>
<path d="M41.3039 29.4791L40.0466 29.7314L40.2989 30.9887L41.5562 30.7364L41.3039 29.4791Z" fill="white"/>
<path d="M43.8186 28.9745L42.5612 29.2268L42.8135 30.4841L44.0709 30.2318L43.8186 28.9745Z" fill="white"/>
<path d="M45.0759 28.7222L43.8186 28.9745L44.0709 30.2318L45.3282 29.9796L45.0759 28.7222Z" fill="white"/>
<path d="M46.3333 28.4699L45.0759 28.7222L45.3282 29.9796L46.5856 29.7273L46.3333 28.4699Z" fill="white"/>
<path d="M47.5906 28.2176L46.3333 28.4699L46.5856 29.7273L47.8429 29.475L47.5906 28.2176Z" fill="white"/>
<path d="M50.1053 27.713L48.8479 27.9653L49.1002 29.2227L50.3576 28.9704L50.1053 27.713Z" fill="white"/>
<path d="M55.1347 26.7038L53.8773 26.9561L54.1296 28.2135L55.3869 27.9612L55.1347 26.7038Z" fill="white"/>
<path d="M10.1227 37.0439L8.86533 37.2961L9.11763 38.5535L10.375 38.3012L10.1227 37.0439Z" fill="white"/>
<path d="M11.38 36.7916L10.1227 37.0439L10.375 38.3012L11.6323 38.0489L11.38 36.7916Z" fill="white"/>
<path d="M12.6374 36.5393L11.38 36.7916L11.6323 38.0489L12.8897 37.7966L12.6374 36.5393Z" fill="white"/>
<path d="M18.9241 35.2778L17.6667 35.5301L17.919 36.7874L19.1764 36.5351L18.9241 35.2778Z" fill="white"/>
<path d="M20.1814 35.0255L18.9241 35.2778L19.1764 36.5351L20.4337 36.2828L20.1814 35.0255Z" fill="white"/>
<path d="M22.6961 34.5209L21.4387 34.7732L21.691 36.0305L22.9484 35.7782L22.6961 34.5209Z" fill="white"/>
<path d="M23.9534 34.2686L22.6961 34.5209L22.9484 35.7782L24.2057 35.5259L23.9534 34.2686Z" fill="white"/>
<path d="M26.4681 33.764L25.2108 34.0163L25.4631 35.2736L26.7204 35.0213L26.4681 33.764Z" fill="white"/>
<path d="M27.7254 33.5117L26.4681 33.764L26.7204 35.0213L27.9777 34.769L27.7254 33.5117Z" fill="white"/>
<path d="M30.2401 33.0071L28.9828 33.2594L29.2351 34.5167L30.4924 34.2645L30.2401 33.0071Z" fill="white"/>
<path d="M32.7548 32.5025L31.4975 32.7548L31.7498 34.0122L33.0071 33.7599L32.7548 32.5025Z" fill="white"/>
<path d="M34.0122 32.2502L32.7548 32.5025L33.0071 33.7599L34.2645 33.5076L34.0122 32.2502Z" fill="white"/>
<path d="M35.2695 31.9979L34.0122 32.2502L34.2645 33.5076L35.5218 33.2553L35.2695 31.9979Z" fill="white"/>
<path d="M36.5268 31.7456L35.2695 31.9979L35.5218 33.2553L36.7791 33.003L36.5268 31.7456Z" fill="white"/>
<path d="M39.0415 31.241L37.7842 31.4933L38.0365 32.7507L39.2938 32.4984L39.0415 31.241Z" fill="white"/>
<path d="M40.2989 30.9887L39.0415 31.241L39.2938 32.4984L40.5512 32.2461L40.2989 30.9887Z" fill="white"/>
<path d="M41.5562 30.7364L40.2989 30.9887L40.5512 32.2461L41.8085 31.9938L41.5562 30.7364Z" fill="white"/>
<path d="M44.0709 30.2318L42.8135 30.4841L43.0658 31.7415L44.3232 31.4892L44.0709 30.2318Z" fill="white"/>
<path d="M45.3282 29.9796L44.0709 30.2318L44.3232 31.4892L45.5805 31.2369L45.3282 29.9796Z" fill="white"/>
<path d="M46.5856 29.7273L45.3282 29.9796L45.5805 31.2369L46.8379 30.9846L46.5856 29.7273Z" fill="white"/>
<path d="M47.8429 29.475L46.5856 29.7273L46.8379 30.9846L48.0952 30.7323L47.8429 29.475Z" fill="white"/>
<path d="M55.3869 27.9612L54.1296 28.2135L54.3819 29.4708L55.6392 29.2185L55.3869 27.9612Z" fill="white"/>
<path d="M10.375 38.3012L9.11763 38.5535L9.36993 39.8108L10.6273 39.5585L10.375 38.3012Z" fill="white"/>
<path d="M17.919 36.7874L16.6617 37.0397L16.914 38.2971L18.1713 38.0448L17.919 36.7874Z" fill="white"/>
<path d="M19.1764 36.5351L17.919 36.7874L18.1713 38.0448L19.4287 37.7925L19.1764 36.5351Z" fill="white"/>
<path d="M22.9484 35.7782L21.691 36.0305L21.9433 37.2879L23.2007 37.0356L22.9484 35.7782Z" fill="white"/>
<path d="M24.2057 35.5259L22.9484 35.7782L23.2007 37.0356L24.458 36.7833L24.2057 35.5259Z" fill="white"/>
<path d="M27.9777 34.769L26.7204 35.0213L26.9727 36.2787L28.23 36.0264L27.9777 34.769Z" fill="white"/>
<path d="M34.2645 33.5076L33.0071 33.7599L33.2594 35.0172L34.5167 34.7649L34.2645 33.5076Z" fill="white"/>
<path d="M35.5218 33.2553L34.2645 33.5076L34.5167 34.7649L35.7741 34.5126L35.5218 33.2553Z" fill="white"/>
<path d="M36.7791 33.003L35.5218 33.2553L35.7741 34.5126L37.0314 34.2603L36.7791 33.003Z" fill="white"/>
<path d="M38.0365 32.7507L36.7791 33.003L37.0314 34.2603L38.2888 34.008L38.0365 32.7507Z" fill="white"/>
<path d="M39.2938 32.4984L38.0365 32.7507L38.2888 34.008L39.5461 33.7557L39.2938 32.4984Z" fill="white"/>
<path d="M40.5512 32.2461L39.2938 32.4984L39.5461 33.7557L40.8035 33.5034L40.5512 32.2461Z" fill="white"/>
<path d="M46.8379 30.9846L45.5805 31.2369L45.8328 32.4942L47.0902 32.2419L46.8379 30.9846Z" fill="white"/>
<path d="M50.6099 30.2277L49.3525 30.48L49.6048 31.7373L50.8622 31.485L50.6099 30.2277Z" fill="white"/>
<path d="M51.8672 29.9754L50.6099 30.2277L50.8622 31.485L52.1195 31.2328L51.8672 29.9754Z" fill="white"/>
<path d="M10.6273 39.5585L9.36993 39.8108L9.62222 41.0682L10.8796 40.8159L10.6273 39.5585Z" fill="white"/>
<path d="M11.8846 39.3062L10.6273 39.5585L10.8796 40.8159L12.1369 40.5636L11.8846 39.3062Z" fill="white"/>
<path d="M13.142 39.0539L11.8846 39.3062L12.1369 40.5636L13.3942 40.3113L13.142 39.0539Z" fill="white"/>
<path d="M14.3993 38.8016L13.142 39.0539L13.3942 40.3113L14.6516 40.059L14.3993 38.8016Z" fill="white"/>
<path d="M15.6566 38.5493L14.3993 38.8016L14.6516 40.059L15.9089 39.8067L15.6566 38.5493Z" fill="white"/>
<path d="M20.686 37.5402L19.4287 37.7925L19.681 39.0498L20.9383 38.7975L20.686 37.5402Z" fill="white"/>
<path d="M23.2007 37.0356L21.9433 37.2879L22.1956 38.5452L23.453 38.2929L23.2007 37.0356Z" fill="white"/>
<path d="M26.9727 36.2787L25.7154 36.531L25.9677 37.7883L27.225 37.536L26.9727 36.2787Z" fill="white"/>
<path d="M29.4874 35.7741L28.23 36.0264L28.4823 37.2837L29.7397 37.0314L29.4874 35.7741Z" fill="white"/>
<path d="M30.7447 35.5218L29.4874 35.7741L29.7397 37.0314L30.997 36.7791L30.7447 35.5218Z" fill="white"/>
<path d="M33.2594 35.0172L32.0021 35.2695L32.2544 36.5268L33.5117 36.2745L33.2594 35.0172Z" fill="white"/>
<path d="M38.2888 34.008L37.0314 34.2603L37.2837 35.5176L38.5411 35.2654L38.2888 34.008Z" fill="white"/>
<path d="M40.8035 33.5034L39.5461 33.7557L39.7984 35.0131L41.0557 34.7608L40.8035 33.5034Z" fill="white"/>
<path d="M47.0902 32.2419L45.8328 32.4942L46.0851 33.7516L47.3425 33.4993L47.0902 32.2419Z" fill="white"/>
<path d="M49.6048 31.7373L48.3475 31.9896L48.5998 33.247L49.8571 32.9947L49.6048 31.7373Z" fill="white"/>
<path d="M50.8622 31.485L49.6048 31.7373L49.8571 32.9947L51.1145 32.7424L50.8622 31.485Z" fill="white"/>
<path d="M52.1195 31.2328L50.8622 31.485L51.1145 32.7424L52.3718 32.4901L52.1195 31.2328Z" fill="white"/>
<path d="M53.3769 30.9805L52.1195 31.2328L52.3718 32.4901L53.6292 32.2378L53.3769 30.9805Z" fill="white"/>
<path d="M10.8796 40.8159L9.62222 41.0682L9.87452 42.3255L11.1319 42.0732L10.8796 40.8159Z" fill="white"/>
<path d="M12.1369 40.5636L10.8796 40.8159L11.1319 42.0732L12.3892 41.8209L12.1369 40.5636Z" fill="white"/>
<path d="M17.1663 39.5544L15.9089 39.8067L16.1612 41.064L17.4186 40.8117L17.1663 39.5544Z" fill="white"/>
<path d="M18.4236 39.3021L17.1663 39.5544L17.4186 40.8117L18.6759 40.5594L18.4236 39.3021Z" fill="white"/>
<path d="M19.681 39.0498L18.4236 39.3021L18.6759 40.5594L19.9332 40.3071L19.681 39.0498Z" fill="white"/>
<path d="M20.9383 38.7975L19.681 39.0498L19.9332 40.3071L21.1906 40.0548L20.9383 38.7975Z" fill="white"/>
<path d="M27.225 37.536L25.9677 37.7883L26.22 39.0457L27.4773 38.7934L27.225 37.536Z" fill="white"/>
<path d="M29.7397 37.0314L28.4823 37.2837L28.7346 38.5411L29.992 38.2888L29.7397 37.0314Z" fill="white"/>
<path d="M30.997 36.7791L29.7397 37.0314L29.992 38.2888L31.2493 38.0365L30.997 36.7791Z" fill="white"/>
<path d="M32.2544 36.5268L30.997 36.7791L31.2493 38.0365L32.5067 37.7842L32.2544 36.5268Z" fill="white"/>
<path d="M37.2837 35.5176L36.0264 35.7699L36.2787 37.0273L37.536 36.775L37.2837 35.5176Z" fill="white"/>
<path d="M41.0557 34.7608L39.7984 35.0131L40.0507 36.2704L41.308 36.0181L41.0557 34.7608Z" fill="white"/>
<path d="M42.3131 34.5085L41.0557 34.7608L41.308 36.0181L42.5654 35.7658L42.3131 34.5085Z" fill="white"/>
<path d="M43.5704 34.2562L42.3131 34.5085L42.5654 35.7658L43.8227 35.5135L43.5704 34.2562Z" fill="white"/>
<path d="M46.0851 33.7516L44.8278 34.0039L45.0801 35.2612L46.3374 35.0089L46.0851 33.7516Z" fill="white"/>
<path d="M47.3425 33.4993L46.0851 33.7516L46.3374 35.0089L47.5947 34.7566L47.3425 33.4993Z" fill="white"/>
<path d="M52.3718 32.4901L51.1145 32.7424L51.3668 33.9997L52.6241 33.7474L52.3718 32.4901Z" fill="white"/>
<path d="M54.8865 31.9855L53.6292 32.2378L53.8815 33.4951L55.1388 33.2428L54.8865 31.9855Z" fill="white"/>
<path d="M56.1438 31.7332L54.8865 31.9855L55.1388 33.2428L56.3961 32.9905L56.1438 31.7332Z" fill="white"/>
<path d="M11.1319 42.0732L9.87452 42.3255L10.1268 43.5829L11.3842 43.3306L11.1319 42.0732Z" fill="white"/>
<path d="M12.3892 41.8209L11.1319 42.0732L11.3842 43.3306L12.6415 43.0783L12.3892 41.8209Z" fill="white"/>
<path d="M13.6465 41.5686L12.3892 41.8209L12.6415 43.0783L13.8988 42.826L13.6465 41.5686Z" fill="white"/>
<path d="M14.9039 41.3163L13.6465 41.5686L13.8988 42.826L15.1562 42.5737L14.9039 41.3163Z" fill="white"/>
<path d="M17.4186 40.8117L16.1612 41.064L16.4135 42.3214L17.6709 42.0691L17.4186 40.8117Z" fill="white"/>
<path d="M19.9332 40.3071L18.6759 40.5594L18.9282 41.8168L20.1855 41.5645L19.9332 40.3071Z" fill="white"/>
<path d="M21.1906 40.0548L19.9332 40.3071L20.1855 41.5645L21.4429 41.3122L21.1906 40.0548Z" fill="white"/>
<path d="M23.7053 39.5503L22.4479 39.8025L22.7002 41.0599L23.9576 40.8076L23.7053 39.5503Z" fill="white"/>
<path d="M24.9626 39.298L23.7053 39.5503L23.9576 40.8076L25.2149 40.5553L24.9626 39.298Z" fill="white"/>
<path d="M26.22 39.0457L24.9626 39.298L25.2149 40.5553L26.4722 40.303L26.22 39.0457Z" fill="white"/>
<path d="M27.4773 38.7934L26.22 39.0457L26.4722 40.303L27.7296 40.0507L27.4773 38.7934Z" fill="white"/>
<path d="M32.5067 37.7842L31.2493 38.0365L31.5016 39.2938L32.759 39.0415L32.5067 37.7842Z" fill="white"/>
<path d="M35.0213 37.2796L33.764 37.5319L34.0163 38.7892L35.2736 38.5369L35.0213 37.2796Z" fill="white"/>
<path d="M36.2787 37.0273L35.0213 37.2796L35.2736 38.5369L36.531 38.2846L36.2787 37.0273Z" fill="white"/>
<path d="M37.536 36.775L36.2787 37.0273L36.531 38.2846L37.7883 38.0323L37.536 36.775Z" fill="white"/>
<path d="M38.7934 36.5227L37.536 36.775L37.7883 38.0323L39.0457 37.78L38.7934 36.5227Z" fill="white"/>
<path d="M46.3374 35.0089L45.0801 35.2612L45.3324 36.5186L46.5897 36.2663L46.3374 35.0089Z" fill="white"/>
<path d="M48.8521 34.5043L47.5947 34.7566L47.847 36.014L49.1044 35.7617L48.8521 34.5043Z" fill="white"/>
<path d="M50.1094 34.252L48.8521 34.5043L49.1044 35.7617L50.3617 35.5094L50.1094 34.252Z" fill="white"/>
<path d="M12.6415 43.0783L11.3842 43.3306L11.6365 44.5879L12.8938 44.3356L12.6415 43.0783Z" fill="white"/>
<path d="M18.9282 41.8168L17.6709 42.0691L17.9232 43.3264L19.1805 43.0741L18.9282 41.8168Z" fill="white"/>
<path d="M22.7002 41.0599L21.4429 41.3122L21.6952 42.5695L22.9525 42.3172L22.7002 41.0599Z" fill="white"/>
<path d="M25.2149 40.5553L23.9576 40.8076L24.2099 42.0649L25.4672 41.8126L25.2149 40.5553Z" fill="white"/>
<path d="M26.4722 40.303L25.2149 40.5553L25.4672 41.8126L26.7245 41.5603L26.4722 40.303Z" fill="white"/>
<path d="M27.7296 40.0507L26.4722 40.303L26.7245 41.5603L27.9819 41.308L27.7296 40.0507Z" fill="white"/>
<path d="M31.5016 39.2938L30.2443 39.5461L30.4966 40.8035L31.7539 40.5512L31.5016 39.2938Z" fill="white"/>
<path d="M34.0163 38.7892L32.759 39.0415L33.0113 40.2989L34.2686 40.0466L34.0163 38.7892Z" fill="white"/>
<path d="M36.531 38.2846L35.2736 38.5369L35.5259 39.7943L36.7833 39.542L36.531 38.2846Z" fill="white"/>
<path d="M42.8177 37.0231L41.5603 37.2754L41.8126 38.5328L43.07 38.2805L42.8177 37.0231Z" fill="white"/>
<path d="M45.3324 36.5186L44.075 36.7708L44.3273 38.0282L45.5847 37.7759L45.3324 36.5186Z" fill="white"/>
<path d="M46.5897 36.2663L45.3324 36.5186L45.5847 37.7759L46.842 37.5236L46.5897 36.2663Z" fill="white"/>
<path d="M50.3617 35.5094L49.1044 35.7617L49.3567 37.019L50.614 36.7667L50.3617 35.5094Z" fill="white"/>
<path d="M51.6191 35.2571L50.3617 35.5094L50.614 36.7667L51.8714 36.5144L51.6191 35.2571Z" fill="white"/>
<path d="M54.1337 34.7525L52.8764 35.0048L53.1287 36.2621L54.386 36.0098L54.1337 34.7525Z" fill="white"/>
<path d="M56.6484 34.2479L55.3911 34.5002L55.6434 35.7575L56.9007 35.5052L56.6484 34.2479Z" fill="white"/>
<path d="M11.6365 44.5879L10.3791 44.8402L10.6314 46.0975L11.8888 45.8452L11.6365 44.5879Z" fill="white"/>
<path d="M12.8938 44.3356L11.6365 44.5879L11.8888 45.8452L13.1461 45.5929L12.8938 44.3356Z" fill="white"/>
<path d="M14.1511 44.0833L12.8938 44.3356L13.1461 45.5929L14.4034 45.3406L14.1511 44.0833Z" fill="white"/>
<path d="M15.4085 43.831L14.1511 44.0833L14.4034 45.3406L15.6608 45.0883L15.4085 43.831Z" fill="white"/>
<path d="M16.6658 43.5787L15.4085 43.831L15.6608 45.0883L16.9181 44.8361L16.6658 43.5787Z" fill="white"/>
<path d="M20.4378 42.8218L19.1805 43.0741L19.4328 44.3315L20.6901 44.0792L20.4378 42.8218Z" fill="white"/>
<path d="M29.2392 41.0557L27.9819 41.308L28.2342 42.5654L29.4915 42.3131L29.2392 41.0557Z" fill="white"/>
<path d="M31.7539 40.5512L30.4966 40.8035L30.7489 42.0608L32.0062 41.8085L31.7539 40.5512Z" fill="white"/>
<path d="M35.5259 39.7943L34.2686 40.0466L34.5209 41.3039L35.7782 41.0516L35.5259 39.7943Z" fill="white"/>
<path d="M43.07 38.2805L41.8126 38.5328L42.0649 39.7901L43.3223 39.5378L43.07 38.2805Z" fill="white"/>
<path d="M44.3273 38.0282L43.07 38.2805L43.3223 39.5378L44.5796 39.2855L44.3273 38.0282Z" fill="white"/>
<path d="M46.842 37.5236L45.5847 37.7759L45.837 39.0332L47.0943 38.7809L46.842 37.5236Z" fill="white"/>
<path d="M50.614 36.7667L49.3567 37.019L49.609 38.2763L50.8663 38.024L50.614 36.7667Z" fill="white"/>
<path d="M51.8714 36.5144L50.614 36.7667L50.8663 38.024L52.1237 37.7718L51.8714 36.5144Z" fill="white"/>
<path d="M53.1287 36.2621L51.8714 36.5144L52.1237 37.7718L53.381 37.5195L53.1287 36.2621Z" fill="white"/>
<path d="M54.386 36.0098L53.1287 36.2621L53.381 37.5195L54.6383 37.2672L54.386 36.0098Z" fill="white"/>
<path d="M19.4328 44.3315L18.1755 44.5838L18.4278 45.8411L19.6851 45.5888L19.4328 44.3315Z" fill="white"/>
<path d="M20.6901 44.0792L19.4328 44.3315L19.6851 45.5888L20.9424 45.3365L20.6901 44.0792Z" fill="white"/>
<path d="M25.7195 43.07L24.4622 43.3223L24.7145 44.5796L25.9718 44.3273L25.7195 43.07Z" fill="white"/>
<path d="M28.2342 42.5654L26.9768 42.8177L27.2291 44.075L28.4865 43.8227L28.2342 42.5654Z" fill="white"/>
<path d="M29.4915 42.3131L28.2342 42.5654L28.4865 43.8227L29.7438 43.5704L29.4915 42.3131Z" fill="white"/>
<path d="M32.0062 41.8085L30.7489 42.0608L31.0012 43.3181L32.2585 43.0658L32.0062 41.8085Z" fill="white"/>
<path d="M33.2635 41.5562L32.0062 41.8085L32.2585 43.0658L33.5158 42.8135L33.2635 41.5562Z" fill="white"/>
<path d="M34.5209 41.3039L33.2635 41.5562L33.5158 42.8135L34.7732 42.5612L34.5209 41.3039Z" fill="white"/>
<path d="M35.7782 41.0516L34.5209 41.3039L34.7732 42.5612L36.0305 42.3089L35.7782 41.0516Z" fill="white"/>
<path d="M37.0356 40.7993L35.7782 41.0516L36.0305 42.3089L37.2879 42.0566L37.0356 40.7993Z" fill="white"/>
<path d="M38.2929 40.547L37.0356 40.7993L37.2879 42.0566L38.5452 41.8044L38.2929 40.547Z" fill="white"/>
<path d="M39.5503 40.2947L38.2929 40.547L38.5452 41.8044L39.8025 41.5521L39.5503 40.2947Z" fill="white"/>
<path d="M40.8076 40.0424L39.5503 40.2947L39.8025 41.5521L41.0599 41.2998L40.8076 40.0424Z" fill="white"/>
<path d="M42.0649 39.7901L40.8076 40.0424L41.0599 41.2998L42.3172 41.0475L42.0649 39.7901Z" fill="white"/>
<path d="M44.5796 39.2855L43.3223 39.5378L43.5746 40.7952L44.8319 40.5429L44.5796 39.2855Z" fill="white"/>
<path d="M47.0943 38.7809L45.837 39.0332L46.0893 40.2906L47.3466 40.0383L47.0943 38.7809Z" fill="white"/>
<path d="M53.381 37.5195L52.1237 37.7718L52.376 39.0291L53.6333 38.7768L53.381 37.5195Z" fill="white"/>
<path d="M14.6557 46.598L13.3984 46.8503L13.6507 48.1076L14.908 47.8553L14.6557 46.598Z" fill="white"/>
<path d="M22.1998 45.0842L20.9424 45.3365L21.1947 46.5938L22.4521 46.3415L22.1998 45.0842Z" fill="white"/>
<path d="M23.4571 44.8319L22.1998 45.0842L22.4521 46.3415L23.7094 46.0893L23.4571 44.8319Z" fill="white"/>
<path d="M24.7145 44.5796L23.4571 44.8319L23.7094 46.0893L24.9668 45.837L24.7145 44.5796Z" fill="white"/>
<path d="M27.2291 44.075L25.9718 44.3273L26.2241 45.5847L27.4814 45.3324L27.2291 44.075Z" fill="white"/>
<path d="M28.4865 43.8227L27.2291 44.075L27.4814 45.3324L28.7388 45.0801L28.4865 43.8227Z" fill="white"/>
<path d="M29.7438 43.5704L28.4865 43.8227L28.7388 45.0801L29.9961 44.8278L29.7438 43.5704Z" fill="white"/>
<path d="M31.0012 43.3181L29.7438 43.5704L29.9961 44.8278L31.2535 44.5755L31.0012 43.3181Z" fill="white"/>
<path d="M33.5158 42.8135L32.2585 43.0658L32.5108 44.3232L33.7681 44.0709L33.5158 42.8135Z" fill="white"/>
<path d="M34.7732 42.5612L33.5158 42.8135L33.7681 44.0709L35.0255 43.8186L34.7732 42.5612Z" fill="white"/>
<path d="M36.0305 42.3089L34.7732 42.5612L35.0255 43.8186L36.2828 43.5663L36.0305 42.3089Z" fill="white"/>
<path d="M38.5452 41.8044L37.2879 42.0566L37.5402 43.314L38.7975 43.0617L38.5452 41.8044Z" fill="white"/>
<path d="M39.8025 41.5521L38.5452 41.8044L38.7975 43.0617L40.0548 42.8094L39.8025 41.5521Z" fill="white"/>
<path d="M43.5746 40.7952L42.3172 41.0475L42.5695 42.3048L43.8269 42.0525L43.5746 40.7952Z" fill="white"/>
<path d="M44.8319 40.5429L43.5746 40.7952L43.8269 42.0525L45.0842 41.8002L44.8319 40.5429Z" fill="white"/>
<path d="M48.6039 39.786L47.3466 40.0383L47.5989 41.2956L48.8562 41.0433L48.6039 39.786Z" fill="white"/>
<path d="M51.1186 39.2814L49.8613 39.5337L50.1136 40.791L51.3709 40.5387L51.1186 39.2814Z" fill="white"/>
<path d="M52.376 39.0291L51.1186 39.2814L51.3709 40.5387L52.6283 40.2864L52.376 39.0291Z" fill="white"/>
<path d="M13.6507 48.1076L12.3933 48.3599L12.6456 49.6173L13.903 49.365L13.6507 48.1076Z" fill="white"/>
<path d="M17.4227 47.3507L16.1654 47.603L16.4177 48.8604L17.675 48.6081L17.4227 47.3507Z" fill="white"/>
<path d="M19.9374 46.8461L18.68 47.0984L18.9323 48.3558L20.1897 48.1035L19.9374 46.8461Z" fill="white"/>
<path d="M21.1947 46.5938L19.9374 46.8461L20.1897 48.1035L21.447 47.8512L21.1947 46.5938Z" fill="white"/>
<path d="M22.4521 46.3415L21.1947 46.5938L21.447 47.8512L22.7044 47.5989L22.4521 46.3415Z" fill="white"/>
<path d="M28.7388 45.0801L27.4814 45.3324L27.7337 46.5897L28.9911 46.3374L28.7388 45.0801Z" fill="white"/>
<path d="M35.0255 43.8186L33.7681 44.0709L34.0204 45.3282L35.2778 45.0759L35.0255 43.8186Z" fill="white"/>
<path d="M36.2828 43.5663L35.0255 43.8186L35.2778 45.0759L36.5351 44.8236L36.2828 43.5663Z" fill="white"/>
<path d="M37.5402 43.314L36.2828 43.5663L36.5351 44.8236L37.7925 44.5713L37.5402 43.314Z" fill="white"/>
<path d="M40.0548 42.8094L38.7975 43.0617L39.0498 44.319L40.3071 44.0667L40.0548 42.8094Z" fill="white"/>
<path d="M41.3122 42.5571L40.0548 42.8094L40.3071 44.0667L41.5645 43.8144L41.3122 42.5571Z" fill="white"/>
<path d="M42.5695 42.3048L41.3122 42.5571L41.5645 43.8144L42.8218 43.5621L42.5695 42.3048Z" fill="white"/>
<path d="M43.8269 42.0525L42.5695 42.3048L42.8218 43.5621L44.0792 43.3099L43.8269 42.0525Z" fill="white"/>
<path d="M46.3415 41.5479L45.0842 41.8002L45.3365 43.0576L46.5938 42.8053L46.3415 41.5479Z" fill="white"/>
<path d="M47.5989 41.2956L46.3415 41.5479L46.5938 42.8053L47.8512 42.553L47.5989 41.2956Z" fill="white"/>
<path d="M48.8562 41.0433L47.5989 41.2956L47.8512 42.553L49.1085 42.3007L48.8562 41.0433Z" fill="white"/>
<path d="M50.1136 40.791L48.8562 41.0433L49.1085 42.3007L50.3659 42.0484L50.1136 40.791Z" fill="white"/>
<path d="M51.3709 40.5387L50.1136 40.791L50.3659 42.0484L51.6232 41.7961L51.3709 40.5387Z" fill="white"/>
<path d="M52.6283 40.2864L51.3709 40.5387L51.6232 41.7961L52.8805 41.5438L52.6283 40.2864Z" fill="white"/>
<path d="M55.1429 39.7818L53.8856 40.0341L54.1379 41.2915L55.3952 41.0392L55.1429 39.7818Z" fill="white"/>
<path d="M57.6576 39.2773L56.4003 39.5295L56.6526 40.7869L57.9099 40.5346L57.6576 39.2773Z" fill="white"/>
<path d="M22.7044 47.5989L21.447 47.8512L21.6993 49.1085L22.9567 48.8562L22.7044 47.5989Z" fill="white"/>
<path d="M28.9911 46.3374L27.7337 46.5897L27.986 47.847L29.2434 47.5947L28.9911 46.3374Z" fill="white"/>
<path d="M30.2484 46.0851L28.9911 46.3374L29.2434 47.5947L30.5007 47.3425L30.2484 46.0851Z" fill="white"/>
<path d="M31.5058 45.8328L30.2484 46.0851L30.5007 47.3425L31.7581 47.0902L31.5058 45.8328Z" fill="white"/>
<path d="M34.0204 45.3282L32.7631 45.5805L33.0154 46.8379L34.2727 46.5856L34.0204 45.3282Z" fill="white"/>
<path d="M36.5351 44.8236L35.2778 45.0759L35.5301 46.3333L36.7874 46.081L36.5351 44.8236Z" fill="white"/>
<path d="M37.7925 44.5713L36.5351 44.8236L36.7874 46.081L38.0448 45.8287L37.7925 44.5713Z" fill="white"/>
<path d="M39.0498 44.319L37.7925 44.5713L38.0448 45.8287L39.3021 45.5764L39.0498 44.319Z" fill="white"/>
<path d="M42.8218 43.5621L41.5645 43.8144L41.8168 45.0718L43.0741 44.8195L42.8218 43.5621Z" fill="white"/>
<path d="M45.3365 43.0576L44.0792 43.3099L44.3315 44.5672L45.5888 44.3149L45.3365 43.0576Z" fill="white"/>
<path d="M46.5938 42.8053L45.3365 43.0576L45.5888 44.3149L46.8461 44.0626L46.5938 42.8053Z" fill="white"/>
<path d="M47.8512 42.553L46.5938 42.8053L46.8461 44.0626L48.1035 43.8103L47.8512 42.553Z" fill="white"/>
<path d="M52.8805 41.5438L51.6232 41.7961L51.8755 43.0534L53.1328 42.8011L52.8805 41.5438Z" fill="white"/>
<path d="M55.3952 41.0392L54.1379 41.2915L54.3902 42.5488L55.6475 42.2965L55.3952 41.0392Z" fill="white"/>
<path d="M57.9099 40.5346L56.6526 40.7869L56.9049 42.0442L58.1622 41.7919L57.9099 40.5346Z" fill="white"/>
<path d="M12.8979 50.8746L11.6406 51.1269L11.8929 52.3842L13.1502 52.1319L12.8979 50.8746Z" fill="white"/>
<path d="M14.1553 50.6223L12.8979 50.8746L13.1502 52.1319L14.4076 51.8796L14.1553 50.6223Z" fill="white"/>
<path d="M15.4126 50.37L14.1553 50.6223L14.4076 51.8796L15.6649 51.6273L15.4126 50.37Z" fill="white"/>
<path d="M16.67 50.1177L15.4126 50.37L15.6649 51.6273L16.9223 51.3751L16.67 50.1177Z" fill="white"/>
<path d="M17.9273 49.8654L16.67 50.1177L16.9223 51.3751L18.1796 51.1228L17.9273 49.8654Z" fill="white"/>
<path d="M19.1846 49.6131L17.9273 49.8654L18.1796 51.1228L19.4369 50.8705L19.1846 49.6131Z" fill="white"/>
<path d="M20.442 49.3608L19.1846 49.6131L19.4369 50.8705L20.6943 50.6182L20.442 49.3608Z" fill="white"/>
<path d="M24.214 48.6039L22.9567 48.8562L23.209 50.1136L24.4663 49.8613L24.214 48.6039Z" fill="white"/>
<path d="M25.4713 48.3516L24.214 48.6039L24.4663 49.8613L25.7236 49.609L25.4713 48.3516Z" fill="white"/>
<path d="M27.986 47.847L26.7287 48.0993L26.981 49.3567L28.2383 49.1044L27.986 47.847Z" fill="white"/>
<path d="M31.7581 47.0902L30.5007 47.3425L30.753 48.5998L32.0103 48.3475L31.7581 47.0902Z" fill="white"/>
<path d="M33.0154 46.8379L31.7581 47.0902L32.0103 48.3475L33.2677 48.0952L33.0154 46.8379Z" fill="white"/>
<path d="M34.2727 46.5856L33.0154 46.8379L33.2677 48.0952L34.525 47.8429L34.2727 46.5856Z" fill="white"/>
<path d="M35.5301 46.3333L34.2727 46.5856L34.525 47.8429L35.7824 47.5906L35.5301 46.3333Z" fill="white"/>
<path d="M38.0448 45.8287L36.7874 46.081L37.0397 47.3383L38.2971 47.086L38.0448 45.8287Z" fill="white"/>
<path d="M41.8168 45.0718L40.5594 45.3241L40.8117 46.5814L42.0691 46.3291L41.8168 45.0718Z" fill="white"/>
<path d="M43.0741 44.8195L41.8168 45.0718L42.0691 46.3291L43.3264 46.0768L43.0741 44.8195Z" fill="white"/>
<path d="M45.5888 44.3149L44.3315 44.5672L44.5838 45.8245L45.8411 45.5722L45.5888 44.3149Z" fill="white"/>
<path d="M48.1035 43.8103L46.8461 44.0626L47.0984 45.3199L48.3558 45.0676L48.1035 43.8103Z" fill="white"/>
<path d="M50.6182 43.3057L49.3608 43.558L49.6131 44.8153L50.8705 44.563L50.6182 43.3057Z" fill="white"/>
<path d="M53.1328 42.8011L51.8755 43.0534L52.1278 44.3108L53.3851 44.0585L53.1328 42.8011Z" fill="white"/>
<path d="M54.3902 42.5488L53.1328 42.8011L53.3851 44.0585L54.6425 43.8062L54.3902 42.5488Z" fill="white"/>
<path d="M56.9049 42.0442L55.6475 42.2965L55.8998 43.5539L57.1572 43.3016L56.9049 42.0442Z" fill="white"/>
<path d="M13.1502 52.1319L11.8929 52.3842L12.1452 53.6416L13.4025 53.3893L13.1502 52.1319Z" fill="white"/>
<path d="M20.6943 50.6182L19.4369 50.8705L19.6892 52.1278L20.9466 51.8755L20.6943 50.6182Z" fill="white"/>
<path d="M24.4663 49.8613L23.209 50.1136L23.4613 51.3709L24.7186 51.1186L24.4663 49.8613Z" fill="white"/>
<path d="M26.981 49.3567L25.7236 49.609L25.9759 50.8663L27.2333 50.614L26.981 49.3567Z" fill="white"/>
<path d="M32.0103 48.3475L30.753 48.5998L31.0053 49.8571L32.2626 49.6048L32.0103 48.3475Z" fill="white"/>
<path d="M34.525 47.8429L33.2677 48.0952L33.52 49.3525L34.7773 49.1002L34.525 47.8429Z" fill="white"/>
<path d="M35.7824 47.5906L34.525 47.8429L34.7773 49.1002L36.0347 48.8479L35.7824 47.5906Z" fill="white"/>
<path d="M37.0397 47.3383L35.7824 47.5906L36.0347 48.8479L37.292 48.5956L37.0397 47.3383Z" fill="white"/>
<path d="M38.2971 47.086L37.0397 47.3383L37.292 48.5956L38.5493 48.3434L38.2971 47.086Z" fill="white"/>
<path d="M40.8117 46.5814L39.5544 46.8337L39.8067 48.0911L41.064 47.8388L40.8117 46.5814Z" fill="white"/>
<path d="M42.0691 46.3291L40.8117 46.5814L41.064 47.8388L42.3214 47.5865L42.0691 46.3291Z" fill="white"/>
<path d="M47.0984 45.3199L45.8411 45.5722L46.0934 46.8296L47.3507 46.5773L47.0984 45.3199Z" fill="white"/>
<path d="M48.3558 45.0676L47.0984 45.3199L47.3507 46.5773L48.6081 46.325L48.3558 45.0676Z" fill="white"/>
<path d="M53.3851 44.0585L52.1278 44.3108L52.3801 45.5681L53.6374 45.3158L53.3851 44.0585Z" fill="white"/>
<path d="M58.4145 43.0493L57.1572 43.3016L57.4095 44.5589L58.6668 44.3066L58.4145 43.0493Z" fill="white"/>
<path d="M13.4025 53.3893L12.1452 53.6416L12.3975 54.8989L13.6548 54.6466L13.4025 53.3893Z" fill="white"/>
<path d="M15.9172 52.8847L14.6599 53.137L14.9122 54.3943L16.1695 54.142L15.9172 52.8847Z" fill="white"/>
<path d="M17.1746 52.6324L15.9172 52.8847L16.1695 54.142L17.4268 53.8897L17.1746 52.6324Z" fill="white"/>
<path d="M18.4319 52.3801L17.1746 52.6324L17.4268 53.8897L18.6842 53.6374L18.4319 52.3801Z" fill="white"/>
<path d="M20.9466 51.8755L19.6892 52.1278L19.9415 53.3851L21.1989 53.1328L20.9466 51.8755Z" fill="white"/>
<path d="M23.4613 51.3709L22.2039 51.6232L22.4562 52.8805L23.7136 52.6283L23.4613 51.3709Z" fill="white"/>
<path d="M24.7186 51.1186L23.4613 51.3709L23.7136 52.6283L24.9709 52.376L24.7186 51.1186Z" fill="white"/>
<path d="M25.9759 50.8663L24.7186 51.1186L24.9709 52.376L26.2282 52.1237L25.9759 50.8663Z" fill="white"/>
<path d="M29.748 50.1094L28.4906 50.3617L28.7429 51.6191L30.0003 51.3668L29.748 50.1094Z" fill="white"/>
<path d="M31.0053 49.8571L29.748 50.1094L30.0003 51.3668L31.2576 51.1145L31.0053 49.8571Z" fill="white"/>
<path d="M33.52 49.3525L32.2626 49.6048L32.5149 50.8622L33.7723 50.6099L33.52 49.3525Z" fill="white"/>
<path d="M37.292 48.5956L36.0347 48.8479L36.287 50.1053L37.5443 49.853L37.292 48.5956Z" fill="white"/>
<path d="M38.5493 48.3434L37.292 48.5956L37.5443 49.853L38.8016 49.6007L38.5493 48.3434Z" fill="white"/>
<path d="M39.8067 48.0911L38.5493 48.3434L38.8016 49.6007L40.059 49.3484L39.8067 48.0911Z" fill="white"/>
<path d="M42.3214 47.5865L41.064 47.8388L41.3163 49.0961L42.5737 48.8438L42.3214 47.5865Z" fill="white"/>
<path d="M43.5787 47.3342L42.3214 47.5865L42.5737 48.8438L43.831 48.5915L43.5787 47.3342Z" fill="white"/>
<path d="M44.8361 47.0819L43.5787 47.3342L43.831 48.5915L45.0883 48.3392L44.8361 47.0819Z" fill="white"/>
<path d="M48.6081 46.325L47.3507 46.5773L47.603 47.8346L48.8604 47.5823L48.6081 46.325Z" fill="white"/>
<path d="M49.8654 46.0727L48.6081 46.325L48.8604 47.5823L50.1177 47.33L49.8654 46.0727Z" fill="white"/>
<path d="M51.1228 45.8204L49.8654 46.0727L50.1177 47.33L51.3751 47.0777L51.1228 45.8204Z" fill="white"/>
<path d="M52.3801 45.5681L51.1228 45.8204L51.3751 47.0777L52.6324 46.8254L52.3801 45.5681Z" fill="white"/>
<path d="M53.6374 45.3158L52.3801 45.5681L52.6324 46.8254L53.8897 46.5731L53.6374 45.3158Z" fill="white"/>
<path d="M56.1521 44.8112L54.8948 45.0635L55.1471 46.3208L56.4044 46.0685L56.1521 44.8112Z" fill="white"/>
<path d="M57.4095 44.5589L56.1521 44.8112L56.4044 46.0685L57.6618 45.8163L57.4095 44.5589Z" fill="white"/>
<path d="M13.6548 54.6466L12.3975 54.8989L12.6498 56.1563L13.9071 55.904L13.6548 54.6466Z" fill="white"/>
<path d="M16.1695 54.142L14.9122 54.3943L15.1645 55.6517L16.4218 55.3994L16.1695 54.142Z" fill="white"/>
<path d="M17.4268 53.8897L16.1695 54.142L16.4218 55.3994L17.6791 55.1471L17.4268 53.8897Z" fill="white"/>
<path d="M18.6842 53.6374L17.4268 53.8897L17.6791 55.1471L18.9365 54.8948L18.6842 53.6374Z" fill="white"/>
<path d="M21.1989 53.1328L19.9415 53.3851L20.1938 54.6425L21.4512 54.3902L21.1989 53.1328Z" fill="white"/>
<path d="M24.9709 52.376L23.7136 52.6283L23.9659 53.8856L25.2232 53.6333L24.9709 52.376Z" fill="white"/>
<path d="M26.2282 52.1237L24.9709 52.376L25.2232 53.6333L26.4805 53.381L26.2282 52.1237Z" fill="white"/>
<path d="M27.4856 51.8714L26.2282 52.1237L26.4805 53.381L27.7379 53.1287L27.4856 51.8714Z" fill="white"/>
<path d="M28.7429 51.6191L27.4856 51.8714L27.7379 53.1287L28.9952 52.8764L28.7429 51.6191Z" fill="white"/>
<path d="M30.0003 51.3668L28.7429 51.6191L28.9952 52.8764L30.2526 52.6241L30.0003 51.3668Z" fill="white"/>
<path d="M31.2576 51.1145L30.0003 51.3668L30.2526 52.6241L31.5099 52.3718L31.2576 51.1145Z" fill="white"/>
<path d="M32.5149 50.8622L31.2576 51.1145L31.5099 52.3718L32.7672 52.1195L32.5149 50.8622Z" fill="white"/>
<path d="M37.5443 49.853L36.287 50.1053L36.5393 51.3626L37.7966 51.1103L37.5443 49.853Z" fill="white"/>
<path d="M41.3163 49.0961L40.059 49.3484L40.3113 50.6057L41.5686 50.3534L41.3163 49.0961Z" fill="white"/>
<path d="M42.5737 48.8438L41.3163 49.0961L41.5686 50.3534L42.826 50.1011L42.5737 48.8438Z" fill="white"/>
<path d="M47.603 47.8346L46.3457 48.0869L46.598 49.3443L47.8553 49.092L47.603 47.8346Z" fill="white"/>
<path d="M55.1471 46.3208L53.8897 46.5731L54.142 47.8305L55.3994 47.5782L55.1471 46.3208Z" fill="white"/>
<path d="M56.4044 46.0685L55.1471 46.3208L55.3994 47.5782L56.6567 47.3259L56.4044 46.0685Z" fill="white"/>
<path d="M13.9071 55.904L12.6498 56.1563L12.9021 57.4136L14.1594 57.1613L13.9071 55.904Z" fill="white"/>
<path d="M16.4218 55.3994L15.1645 55.6517L15.4168 56.909L16.6741 56.6567L16.4218 55.3994Z" fill="white"/>
<path d="M17.6791 55.1471L16.4218 55.3994L16.6741 56.6567L17.9314 56.4044L17.6791 55.1471Z" fill="white"/>
<path d="M18.9365 54.8948L17.6791 55.1471L17.9314 56.4044L19.1888 56.1521L18.9365 54.8948Z" fill="white"/>
<path d="M21.4512 54.3902L20.1938 54.6425L20.4461 55.8998L21.7035 55.6475L21.4512 54.3902Z" fill="white"/>
<path d="M23.9659 53.8856L22.7085 54.1379L22.9608 55.3952L24.2181 55.1429L23.9659 53.8856Z" fill="white"/>
<path d="M27.7379 53.1287L26.4805 53.381L26.7328 54.6383L27.9902 54.386L27.7379 53.1287Z" fill="white"/>
<path d="M31.5099 52.3718L30.2526 52.6241L30.5048 53.8815L31.7622 53.6292L31.5099 52.3718Z" fill="white"/>
<path d="M32.7672 52.1195L31.5099 52.3718L31.7622 53.6292L33.0195 53.3769L32.7672 52.1195Z" fill="white"/>
<path d="M34.0246 51.8672L32.7672 52.1195L33.0195 53.3769L34.2769 53.1246L34.0246 51.8672Z" fill="white"/>
<path d="M36.5393 51.3626L35.2819 51.6149L35.5342 52.8723L36.7916 52.62L36.5393 51.3626Z" fill="white"/>
<path d="M40.3113 50.6057L39.0539 50.858L39.3062 52.1154L40.5636 51.8631L40.3113 50.6057Z" fill="white"/>
<path d="M42.826 50.1011L41.5686 50.3534L41.8209 51.6108L43.0783 51.3585L42.826 50.1011Z" fill="white"/>
<path d="M47.8553 49.092L46.598 49.3443L46.8503 50.6016L48.1076 50.3493L47.8553 49.092Z" fill="white"/>
<path d="M49.1127 48.8397L47.8553 49.092L48.1076 50.3493L49.365 50.097L49.1127 48.8397Z" fill="white"/>
<path d="M50.37 48.5874L49.1127 48.8397L49.365 50.097L50.6223 49.8447L50.37 48.5874Z" fill="white"/>
<path d="M55.3994 47.5782L54.142 47.8305L54.3943 49.0878L55.6517 48.8355L55.3994 47.5782Z" fill="white"/>
<path d="M57.9141 47.0736L56.6567 47.3259L56.909 48.5832L58.1664 48.3309L57.9141 47.0736Z" fill="white"/>
<path d="M14.1594 57.1613L12.9021 57.4136L13.1544 58.6709L14.4117 58.4186L14.1594 57.1613Z" fill="white"/>
<path d="M21.7035 55.6475L20.4461 55.8998L20.6984 57.1572L21.9558 56.9049L21.7035 55.6475Z" fill="white"/>
<path d="M24.2181 55.1429L22.9608 55.3952L23.2131 56.6526L24.4704 56.4003L24.2181 55.1429Z" fill="white"/>
<path d="M25.4755 54.8906L24.2181 55.1429L24.4704 56.4003L25.7278 56.148L25.4755 54.8906Z" fill="white"/>
<path d="M27.9902 54.386L26.7328 54.6383L26.9851 55.8957L28.2425 55.6434L27.9902 54.386Z" fill="white"/>
<path d="M31.7622 53.6292L30.5048 53.8815L30.7571 55.1388L32.0145 54.8865L31.7622 53.6292Z" fill="white"/>
<path d="M41.8209 51.6108L40.5636 51.8631L40.8159 53.1204L42.0732 52.8681L41.8209 51.6108Z" fill="white"/>
<path d="M44.3356 51.1062L43.0783 51.3585L43.3306 52.6158L44.5879 52.3635L44.3356 51.1062Z" fill="white"/>
<path d="M46.8503 50.6016L45.5929 50.8539L45.8452 52.1112L47.1026 51.8589L46.8503 50.6016Z" fill="white"/>
<path d="M50.6223 49.8447L49.365 50.097L49.6173 51.3543L50.8746 51.1021L50.6223 49.8447Z" fill="white"/>
<path d="M55.6517 48.8355L54.3943 49.0878L54.6466 50.3452L55.904 50.0929L55.6517 48.8355Z" fill="white"/>
<path d="M56.909 48.5832L55.6517 48.8355L55.904 50.0929L57.1613 49.8406L56.909 48.5832Z" fill="white"/>
<path d="M58.1664 48.3309L56.909 48.5832L57.1613 49.8406L58.4186 49.5883L58.1664 48.3309Z" fill="white"/>
<path d="M14.4117 58.4186L13.1544 58.6709L13.4067 59.9283L14.664 59.676L14.4117 58.4186Z" fill="white"/>
<path d="M15.6691 58.1664L14.4117 58.4186L14.664 59.676L15.9214 59.4237L15.6691 58.1664Z" fill="white"/>
<path d="M16.9264 57.9141L15.6691 58.1664L15.9214 59.4237L17.1787 59.1714L16.9264 57.9141Z" fill="white"/>
<path d="M18.1837 57.6618L16.9264 57.9141L17.1787 59.1714L18.436 58.9191L18.1837 57.6618Z" fill="white"/>
<path d="M19.4411 57.4095L18.1837 57.6618L18.436 58.9191L19.6934 58.6668L19.4411 57.4095Z" fill="white"/>
<path d="M20.6984 57.1572L19.4411 57.4095L19.6934 58.6668L20.9507 58.4145L20.6984 57.1572Z" fill="white"/>
<path d="M21.9558 56.9049L20.6984 57.1572L20.9507 58.4145L22.2081 58.1622L21.9558 56.9049Z" fill="white"/>
<path d="M24.4704 56.4003L23.2131 56.6526L23.4654 57.9099L24.7227 57.6576L24.4704 56.4003Z" fill="white"/>
<path d="M26.9851 55.8957L25.7278 56.148L25.9801 57.4053L27.2374 57.153L26.9851 55.8957Z" fill="white"/>
<path d="M28.2425 55.6434L26.9851 55.8957L27.2374 57.153L28.4948 56.9007L28.2425 55.6434Z" fill="white"/>
<path d="M29.4998 55.3911L28.2425 55.6434L28.4948 56.9007L29.7521 56.6484L29.4998 55.3911Z" fill="white"/>
<path d="M32.0145 54.8865L30.7571 55.1388L31.0094 56.3961L32.2668 56.1438L32.0145 54.8865Z" fill="white"/>
<path d="M34.5292 54.3819L33.2718 54.6342L33.5241 55.8915L34.7815 55.6392L34.5292 54.3819Z" fill="white"/>
<path d="M37.0439 53.8773L35.7865 54.1296L36.0388 55.3869L37.2961 55.1347L37.0439 53.8773Z" fill="white"/>
<path d="M38.3012 53.625L37.0439 53.8773L37.2961 55.1347L38.5535 54.8824L38.3012 53.625Z" fill="white"/>
<path d="M42.0732 52.8681L40.8159 53.1204L41.0682 54.3778L42.3255 54.1255L42.0732 52.8681Z" fill="white"/>
<path d="M47.1026 51.8589L45.8452 52.1112L46.0975 53.3686L47.3549 53.1163L47.1026 51.8589Z" fill="white"/>
<path d="M52.1319 50.8498L50.8746 51.1021L51.1269 52.3594L52.3842 52.1071L52.1319 50.8498Z" fill="white"/>
<path d="M53.3893 50.5975L52.1319 50.8498L52.3842 52.1071L53.6416 51.8548L53.3893 50.5975Z" fill="white"/>
<path d="M54.6466 50.3452L53.3893 50.5975L53.6416 51.8548L54.8989 51.6025L54.6466 50.3452Z" fill="white"/>
<path d="M57.1613 49.8406L55.904 50.0929L56.1563 51.3502L57.4136 51.0979L57.1613 49.8406Z" fill="white"/>
<path d="M58.4186 49.5883L57.1613 49.8406L57.4136 51.0979L58.6709 50.8456L58.4186 49.5883Z" fill="white"/>
<path d="M59.676 49.336L58.4186 49.5883L58.6709 50.8456L59.9283 50.5933L59.676 49.336Z" fill="white"/>
</g>
<defs>
<clipPath id="clip0_6_189">
<rect width="53.8496" height="53.8496" fill="white" transform="translate(0 10.8741) scale(1.00702) rotate(-11.5678)"/>
</clipPath>
</defs>
</svg>
