<svg width="62" height="62" viewBox="0 0 62 62" fill="none" xmlns="http://www.w3.org/2000/svg">
<g clip-path="url(#clip0_6_70)">
<path d="M62 16.8397L16.8397 0L-1.52925e-05 45.1603L45.1603 62L62 16.8397Z" fill="white"/>
<path d="M19.7812 4.22965L18.7147 3.82729L18.3124 4.89372L19.3788 5.29608L19.7812 4.22965Z" fill="black"/>
<path d="M20.8476 4.63202L19.7812 4.22965L19.3788 5.29608L20.4452 5.69845L20.8476 4.63202Z" fill="black"/>
<path d="M21.914 5.03438L20.8476 4.63202L20.4452 5.69845L21.5117 6.10081L21.914 5.03438Z" fill="black"/>
<path d="M22.9805 5.43674L21.914 5.03438L21.5117 6.10081L22.5781 6.50318L22.9805 5.43674Z" fill="black"/>
<path d="M24.0469 5.83911L22.9805 5.43674L22.5781 6.50318L23.6445 6.90554L24.0469 5.83911Z" fill="black"/>
<path d="M25.1133 6.24147L24.0469 5.83911L23.6445 6.90554L24.711 7.3079L25.1133 6.24147Z" fill="black"/>
<path d="M26.1798 6.64384L25.1133 6.24147L24.711 7.3079L25.7774 7.71027L26.1798 6.64384Z" fill="black"/>
<path d="M28.3126 7.44857L27.2462 7.0462L26.8438 8.11263L27.9103 8.515L28.3126 7.44857Z" fill="black"/>
<path d="M30.4455 8.2533L29.3791 7.85093L28.9767 8.91736L30.0431 9.31973L30.4455 8.2533Z" fill="black"/>
<path d="M32.5784 9.05803L31.5119 8.65566L31.1096 9.72209L32.176 10.1245L32.5784 9.05803Z" fill="black"/>
<path d="M35.7776 10.2651L34.7112 9.86275L34.3088 10.9292L35.3753 11.3316L35.7776 10.2651Z" fill="black"/>
<path d="M37.9105 11.0698L36.8441 10.6675L36.4417 11.7339L37.5081 12.1363L37.9105 11.0698Z" fill="black"/>
<path d="M38.9769 11.4722L37.9105 11.0698L37.5081 12.1363L38.5746 12.5386L38.9769 11.4722Z" fill="black"/>
<path d="M42.1762 12.6793L41.1098 12.2769L40.7074 13.3434L41.7739 13.7457L42.1762 12.6793Z" fill="black"/>
<path d="M43.2427 13.0817L42.1762 12.6793L41.7739 13.7457L42.8403 14.1481L43.2427 13.0817Z" fill="black"/>
<path d="M46.442 14.2888L45.3755 13.8864L44.9732 14.9528L46.0396 15.3552L46.442 14.2888Z" fill="black"/>
<path d="M47.5084 14.6911L46.442 14.2888L46.0396 15.3552L47.106 15.7576L47.5084 14.6911Z" fill="black"/>
<path d="M48.5748 15.0935L47.5084 14.6911L47.106 15.7576L48.1725 16.1599L48.5748 15.0935Z" fill="black"/>
<path d="M49.6412 15.4959L48.5748 15.0935L48.1725 16.1599L49.2389 16.5623L49.6412 15.4959Z" fill="black"/>
<path d="M51.7741 16.3006L50.7077 15.8982L50.3053 16.9647L51.3717 17.367L51.7741 16.3006Z" fill="black"/>
<path d="M52.8405 16.7029L51.7741 16.3006L51.3717 17.367L52.4382 17.7694L52.8405 16.7029Z" fill="black"/>
<path d="M53.907 17.1053L52.8405 16.7029L52.4382 17.7694L53.5046 18.1717L53.907 17.1053Z" fill="black"/>
<path d="M54.9734 17.5077L53.907 17.1053L53.5046 18.1717L54.571 18.5741L54.9734 17.5077Z" fill="black"/>
<path d="M56.0398 17.91L54.9734 17.5077L54.571 18.5741L55.6375 18.9765L56.0398 17.91Z" fill="black"/>
<path d="M57.1063 18.3124L56.0398 17.91L55.6375 18.9765L56.7039 19.3788L57.1063 18.3124Z" fill="black"/>
<path d="M58.1727 18.7148L57.1063 18.3124L56.7039 19.3788L57.7703 19.7812L58.1727 18.7148Z" fill="black"/>
<path d="M19.3788 5.29608L18.3124 4.89372L17.91 5.96015L18.9764 6.36251L19.3788 5.29608Z" fill="black"/>
<path d="M25.7774 7.71027L24.711 7.3079L24.3086 8.37434L25.375 8.7767L25.7774 7.71027Z" fill="black"/>
<path d="M28.9767 8.91736L27.9103 8.515L27.5079 9.58143L28.5743 9.98379L28.9767 8.91736Z" fill="black"/>
<path d="M32.176 10.1245L31.1096 9.72209L30.7072 10.7885L31.7736 11.1909L32.176 10.1245Z" fill="black"/>
<path d="M33.2424 10.5268L32.176 10.1245L31.7736 11.1909L32.8401 11.5933L33.2424 10.5268Z" fill="black"/>
<path d="M36.4417 11.7339L35.3753 11.3316L34.9729 12.398L36.0393 12.8003L36.4417 11.7339Z" fill="black"/>
<path d="M37.5081 12.1363L36.4417 11.7339L36.0393 12.8003L37.1058 13.2027L37.5081 12.1363Z" fill="black"/>
<path d="M39.641 12.941L38.5746 12.5386L38.1722 13.6051L39.2386 14.0074L39.641 12.941Z" fill="black"/>
<path d="M42.8403 14.1481L41.7739 13.7457L41.3715 14.8122L42.4379 15.2145L42.8403 14.1481Z" fill="black"/>
<path d="M43.9067 14.5505L42.8403 14.1481L42.4379 15.2145L43.5044 15.6169L43.9067 14.5505Z" fill="black"/>
<path d="M44.9732 14.9528L43.9067 14.5505L43.5044 15.6169L44.5708 16.0193L44.9732 14.9528Z" fill="black"/>
<path d="M47.106 15.7576L46.0396 15.3552L45.6372 16.4216L46.7037 16.824L47.106 15.7576Z" fill="black"/>
<path d="M51.3717 17.367L50.3053 16.9647L49.9029 18.0311L50.9694 18.4334L51.3717 17.367Z" fill="black"/>
<path d="M57.7703 19.7812L56.7039 19.3788L56.3015 20.4453L57.368 20.8476L57.7703 19.7812Z" fill="black"/>
<path d="M18.9764 6.36251L17.91 5.96015L17.5077 7.02658L18.5741 7.42895L18.9764 6.36251Z" fill="black"/>
<path d="M21.1093 7.16724L20.0429 6.76488L19.6405 7.83131L20.7069 8.23367L21.1093 7.16724Z" fill="black"/>
<path d="M22.1757 7.56961L21.1093 7.16724L20.7069 8.23367L21.7734 8.63604L22.1757 7.56961Z" fill="black"/>
<path d="M23.2422 7.97197L22.1757 7.56961L21.7734 8.63604L22.8398 9.0384L23.2422 7.97197Z" fill="black"/>
<path d="M25.375 8.7767L24.3086 8.37434L23.9062 9.44077L24.9727 9.84313L25.375 8.7767Z" fill="black"/>
<path d="M28.5743 9.98379L27.5079 9.58143L27.1055 10.6479L28.172 11.0502L28.5743 9.98379Z" fill="black"/>
<path d="M30.7072 10.7885L29.6408 10.3862L29.2384 11.4526L30.3048 11.855L30.7072 10.7885Z" fill="black"/>
<path d="M32.8401 11.5933L31.7736 11.1909L31.3713 12.2573L32.4377 12.6597L32.8401 11.5933Z" fill="black"/>
<path d="M36.0393 12.8003L34.9729 12.398L34.5706 13.4644L35.637 13.8668L36.0393 12.8003Z" fill="black"/>
<path d="M37.1058 13.2027L36.0393 12.8003L35.637 13.8668L36.7034 14.2691L37.1058 13.2027Z" fill="black"/>
<path d="M39.2386 14.0074L38.1722 13.6051L37.7698 14.6715L38.8363 15.0739L39.2386 14.0074Z" fill="black"/>
<path d="M42.4379 15.2145L41.3715 14.8122L40.9691 15.8786L42.0356 16.281L42.4379 15.2145Z" fill="black"/>
<path d="M43.5044 15.6169L42.4379 15.2145L42.0356 16.281L43.102 16.6833L43.5044 15.6169Z" fill="black"/>
<path d="M45.6372 16.4216L44.5708 16.0193L44.1684 17.0857L45.2349 17.4881L45.6372 16.4216Z" fill="black"/>
<path d="M48.8365 17.6287L47.7701 17.2264L47.3677 18.2928L48.4342 18.6951L48.8365 17.6287Z" fill="black"/>
<path d="M50.9694 18.4334L49.9029 18.0311L49.5006 19.0975L50.567 19.4999L50.9694 18.4334Z" fill="black"/>
<path d="M53.1022 19.2382L52.0358 18.8358L51.6334 19.9022L52.6999 20.3046L53.1022 19.2382Z" fill="black"/>
<path d="M54.1687 19.6405L53.1022 19.2382L52.6999 20.3046L53.7663 20.707L54.1687 19.6405Z" fill="black"/>
<path d="M55.2351 20.0429L54.1687 19.6405L53.7663 20.707L54.8327 21.1093L55.2351 20.0429Z" fill="black"/>
<path d="M57.368 20.8476L56.3015 20.4453L55.8992 21.5117L56.9656 21.9141L57.368 20.8476Z" fill="black"/>
<path d="M18.5741 7.42895L17.5077 7.02658L17.1053 8.09301L18.1717 8.49538L18.5741 7.42895Z" fill="black"/>
<path d="M20.7069 8.23367L19.6405 7.83131L19.2382 8.89774L20.3046 9.30011L20.7069 8.23367Z" fill="black"/>
<path d="M21.7734 8.63604L20.7069 8.23367L20.3046 9.30011L21.371 9.70247L21.7734 8.63604Z" fill="black"/>
<path d="M22.8398 9.0384L21.7734 8.63604L21.371 9.70247L22.4374 10.1048L22.8398 9.0384Z" fill="black"/>
<path d="M24.9727 9.84313L23.9062 9.44077L23.5039 10.5072L24.5703 10.9096L24.9727 9.84313Z" fill="black"/>
<path d="M27.1055 10.6479L26.0391 10.2455L25.6367 11.3119L26.7032 11.7143L27.1055 10.6479Z" fill="black"/>
<path d="M34.5706 13.4644L33.5041 13.062L33.1018 14.1285L34.1682 14.5308L34.5706 13.4644Z" fill="black"/>
<path d="M36.7034 14.2691L35.637 13.8668L35.2346 14.9332L36.3011 15.3356L36.7034 14.2691Z" fill="black"/>
<path d="M39.9027 15.4762L38.8363 15.0739L38.4339 16.1403L39.5003 16.5427L39.9027 15.4762Z" fill="black"/>
<path d="M40.9691 15.8786L39.9027 15.4762L39.5003 16.5427L40.5668 16.945L40.9691 15.8786Z" fill="black"/>
<path d="M46.3013 17.8904L45.2349 17.4881L44.8325 18.5545L45.8989 18.9569L46.3013 17.8904Z" fill="black"/>
<path d="M50.567 19.4999L49.5006 19.0975L49.0982 20.1639L50.1647 20.5663L50.567 19.4999Z" fill="black"/>
<path d="M52.6999 20.3046L51.6334 19.9022L51.2311 20.9687L52.2975 21.371L52.6999 20.3046Z" fill="black"/>
<path d="M53.7663 20.707L52.6999 20.3046L52.2975 21.371L53.3639 21.7734L53.7663 20.707Z" fill="black"/>
<path d="M54.8327 21.1093L53.7663 20.707L53.3639 21.7734L54.4304 22.1758L54.8327 21.1093Z" fill="black"/>
<path d="M56.9656 21.9141L55.8992 21.5117L55.4968 22.5781L56.5632 22.9805L56.9656 21.9141Z" fill="black"/>
<path d="M18.1717 8.49538L17.1053 8.09301L16.7029 9.15944L17.7694 9.56181L18.1717 8.49538Z" fill="black"/>
<path d="M20.3046 9.30011L19.2382 8.89774L18.8358 9.96417L19.9022 10.3665L20.3046 9.30011Z" fill="black"/>
<path d="M21.371 9.70247L20.3046 9.30011L19.9022 10.3665L20.9686 10.7689L21.371 9.70247Z" fill="black"/>
<path d="M22.4374 10.1048L21.371 9.70247L20.9686 10.7689L22.0351 11.1713L22.4374 10.1048Z" fill="black"/>
<path d="M24.5703 10.9096L23.5039 10.5072L23.1015 11.5736L24.1679 11.976L24.5703 10.9096Z" fill="black"/>
<path d="M26.7032 11.7143L25.6367 11.3119L25.2344 12.3784L26.3008 12.7807L26.7032 11.7143Z" fill="black"/>
<path d="M28.836 12.519L27.7696 12.1167L27.3672 13.1831L28.4337 13.5855L28.836 12.519Z" fill="black"/>
<path d="M32.0353 13.7261L30.9689 13.3237L30.5665 14.3902L31.633 14.7925L32.0353 13.7261Z" fill="black"/>
<path d="M33.1018 14.1285L32.0353 13.7261L31.633 14.7925L32.6994 15.1949L33.1018 14.1285Z" fill="black"/>
<path d="M34.1682 14.5308L33.1018 14.1285L32.6994 15.1949L33.7658 15.5973L34.1682 14.5308Z" fill="black"/>
<path d="M36.3011 15.3356L35.2346 14.9332L34.8323 15.9996L35.8987 16.402L36.3011 15.3356Z" fill="black"/>
<path d="M39.5003 16.5427L38.4339 16.1403L38.0315 17.2067L39.098 17.6091L39.5003 16.5427Z" fill="black"/>
<path d="M42.6996 17.7498L41.6332 17.3474L41.2308 18.4138L42.2973 18.8162L42.6996 17.7498Z" fill="black"/>
<path d="M43.7661 18.1521L42.6996 17.7498L42.2973 18.8162L43.3637 19.2186L43.7661 18.1521Z" fill="black"/>
<path d="M45.8989 18.9569L44.8325 18.5545L44.4301 19.6209L45.4966 20.0233L45.8989 18.9569Z" fill="black"/>
<path d="M46.9654 19.3592L45.8989 18.9569L45.4966 20.0233L46.563 20.4256L46.9654 19.3592Z" fill="black"/>
<path d="M48.0318 19.7616L46.9654 19.3592L46.563 20.4256L47.6294 20.828L48.0318 19.7616Z" fill="black"/>
<path d="M50.1647 20.5663L49.0982 20.1639L48.6959 21.2304L49.7623 21.6327L50.1647 20.5663Z" fill="black"/>
<path d="M52.2975 21.371L51.2311 20.9687L50.8287 22.0351L51.8952 22.4375L52.2975 21.371Z" fill="black"/>
<path d="M53.3639 21.7734L52.2975 21.371L51.8952 22.4375L52.9616 22.8398L53.3639 21.7734Z" fill="black"/>
<path d="M54.4304 22.1758L53.3639 21.7734L52.9616 22.8398L54.028 23.2422L54.4304 22.1758Z" fill="black"/>
<path d="M56.5632 22.9805L55.4968 22.5781L55.0944 23.6446L56.1609 24.0469L56.5632 22.9805Z" fill="black"/>
<path d="M17.7694 9.56181L16.7029 9.15944L16.3006 10.2259L17.367 10.6282L17.7694 9.56181Z" fill="black"/>
<path d="M24.1679 11.976L23.1015 11.5736L22.6991 12.6401L23.7656 13.0424L24.1679 11.976Z" fill="black"/>
<path d="M26.3008 12.7807L25.2344 12.3784L24.832 13.4448L25.8984 13.8472L26.3008 12.7807Z" fill="black"/>
<path d="M28.4337 13.5855L27.3672 13.1831L26.9649 14.2495L28.0313 14.6519L28.4337 13.5855Z" fill="black"/>
<path d="M29.5001 13.9878L28.4337 13.5855L28.0313 14.6519L29.0977 15.0542L29.5001 13.9878Z" fill="black"/>
<path d="M30.5665 14.3902L29.5001 13.9878L29.0977 15.0542L30.1642 15.4566L30.5665 14.3902Z" fill="black"/>
<path d="M31.633 14.7925L30.5665 14.3902L30.1642 15.4566L31.2306 15.859L31.633 14.7925Z" fill="black"/>
<path d="M33.7658 15.5973L32.6994 15.1949L32.297 16.2613L33.3635 16.6637L33.7658 15.5973Z" fill="black"/>
<path d="M35.8987 16.402L34.8323 15.9996L34.4299 17.0661L35.4963 17.4684L35.8987 16.402Z" fill="black"/>
<path d="M40.1644 18.0115L39.098 17.6091L38.6956 18.6755L39.762 19.0779L40.1644 18.0115Z" fill="black"/>
<path d="M41.2308 18.4138L40.1644 18.0115L39.762 19.0779L40.8285 19.4803L41.2308 18.4138Z" fill="black"/>
<path d="M44.4301 19.6209L43.3637 19.2186L42.9613 20.285L44.0278 20.6873L44.4301 19.6209Z" fill="black"/>
<path d="M45.4966 20.0233L44.4301 19.6209L44.0278 20.6873L45.0942 21.0897L45.4966 20.0233Z" fill="black"/>
<path d="M47.6294 20.828L46.563 20.4256L46.1606 21.4921L47.2271 21.8944L47.6294 20.828Z" fill="black"/>
<path d="M49.7623 21.6327L48.6959 21.2304L48.2935 22.2968L49.3599 22.6992L49.7623 21.6327Z" fill="black"/>
<path d="M56.1609 24.0469L55.0944 23.6446L54.6921 24.711L55.7585 25.1134L56.1609 24.0469Z" fill="black"/>
<path d="M17.367 10.6282L16.3006 10.2259L15.8982 11.2923L16.9646 11.6947L17.367 10.6282Z" fill="black"/>
<path d="M18.4334 11.0306L17.367 10.6282L16.9646 11.6947L18.0311 12.097L18.4334 11.0306Z" fill="black"/>
<path d="M19.4999 11.433L18.4334 11.0306L18.0311 12.097L19.0975 12.4994L19.4999 11.433Z" fill="black"/>
<path d="M20.5663 11.8353L19.4999 11.433L19.0975 12.4994L20.1639 12.9018L20.5663 11.8353Z" fill="black"/>
<path d="M21.6327 12.2377L20.5663 11.8353L20.1639 12.9018L21.2304 13.3041L21.6327 12.2377Z" fill="black"/>
<path d="M22.6991 12.6401L21.6327 12.2377L21.2304 13.3041L22.2968 13.7065L22.6991 12.6401Z" fill="black"/>
<path d="M23.7656 13.0424L22.6991 12.6401L22.2968 13.7065L23.3632 14.1089L23.7656 13.0424Z" fill="black"/>
<path d="M25.8984 13.8472L24.832 13.4448L24.4296 14.5112L25.4961 14.9136L25.8984 13.8472Z" fill="black"/>
<path d="M28.0313 14.6519L26.9649 14.2495L26.5625 15.3159L27.6289 15.7183L28.0313 14.6519Z" fill="black"/>
<path d="M30.1642 15.4566L29.0977 15.0542L28.6954 16.1207L29.7618 16.523L30.1642 15.4566Z" fill="black"/>
<path d="M32.297 16.2613L31.2306 15.859L30.8282 16.9254L31.8947 17.3278L32.297 16.2613Z" fill="black"/>
<path d="M34.4299 17.0661L33.3635 16.6637L32.9611 17.7301L34.0275 18.1325L34.4299 17.0661Z" fill="black"/>
<path d="M36.5627 17.8708L35.4963 17.4684L35.094 18.5349L36.1604 18.9372L36.5627 17.8708Z" fill="black"/>
<path d="M38.6956 18.6755L37.6292 18.2732L37.2268 19.3396L38.2932 19.742L38.6956 18.6755Z" fill="black"/>
<path d="M40.8285 19.4803L39.762 19.0779L39.3597 20.1443L40.4261 20.5467L40.8285 19.4803Z" fill="black"/>
<path d="M42.9613 20.285L41.8949 19.8826L41.4925 20.9491L42.559 21.3514L42.9613 20.285Z" fill="black"/>
<path d="M45.0942 21.0897L44.0278 20.6873L43.6254 21.7538L44.6918 22.1561L45.0942 21.0897Z" fill="black"/>
<path d="M47.2271 21.8944L46.1606 21.4921L45.7583 22.5585L46.8247 22.9609L47.2271 21.8944Z" fill="black"/>
<path d="M49.3599 22.6992L48.2935 22.2968L47.8911 23.3632L48.9576 23.7656L49.3599 22.6992Z" fill="black"/>
<path d="M50.4264 23.1015L49.3599 22.6992L48.9576 23.7656L50.024 24.168L50.4264 23.1015Z" fill="black"/>
<path d="M51.4928 23.5039L50.4264 23.1015L50.024 24.168L51.0904 24.5703L51.4928 23.5039Z" fill="black"/>
<path d="M52.5592 23.9063L51.4928 23.5039L51.0904 24.5703L52.1569 24.9727L52.5592 23.9063Z" fill="black"/>
<path d="M53.6256 24.3086L52.5592 23.9063L52.1569 24.9727L53.2233 25.3751L53.6256 24.3086Z" fill="black"/>
<path d="M54.6921 24.711L53.6256 24.3086L53.2233 25.3751L54.2897 25.7774L54.6921 24.711Z" fill="black"/>
<path d="M55.7585 25.1134L54.6921 24.711L54.2897 25.7774L55.3561 26.1798L55.7585 25.1134Z" fill="black"/>
<path d="M25.4961 14.9136L24.4296 14.5112L24.0273 15.5777L25.0937 15.98L25.4961 14.9136Z" fill="black"/>
<path d="M27.6289 15.7183L26.5625 15.3159L26.1601 16.3824L27.2266 16.7847L27.6289 15.7183Z" fill="black"/>
<path d="M29.7618 16.523L28.6954 16.1207L28.293 17.1871L29.3594 17.5895L29.7618 16.523Z" fill="black"/>
<path d="M30.8282 16.9254L29.7618 16.523L29.3594 17.5895L30.4259 17.9918L30.8282 16.9254Z" fill="black"/>
<path d="M34.0275 18.1325L32.9611 17.7301L32.5587 18.7966L33.6252 19.1989L34.0275 18.1325Z" fill="black"/>
<path d="M38.2932 19.742L37.2268 19.3396L36.8245 20.406L37.8909 20.8084L38.2932 19.742Z" fill="black"/>
<path d="M39.3597 20.1443L38.2932 19.742L37.8909 20.8084L38.9573 21.2108L39.3597 20.1443Z" fill="black"/>
<path d="M44.6918 22.1561L43.6254 21.7538L43.223 22.8202L44.2895 23.2226L44.6918 22.1561Z" fill="black"/>
<path d="M45.7583 22.5585L44.6918 22.1561L44.2895 23.2226L45.3559 23.6249L45.7583 22.5585Z" fill="black"/>
<path d="M46.8247 22.9609L45.7583 22.5585L45.3559 23.6249L46.4223 24.0273L46.8247 22.9609Z" fill="black"/>
<path d="M16.5623 12.7611L15.4958 12.3587L15.0935 13.4252L16.1599 13.8275L16.5623 12.7611Z" fill="black"/>
<path d="M17.6287 13.1635L16.5623 12.7611L16.1599 13.8275L17.2263 14.2299L17.6287 13.1635Z" fill="black"/>
<path d="M18.6951 13.5658L17.6287 13.1635L17.2263 14.2299L18.2928 14.6323L18.6951 13.5658Z" fill="black"/>
<path d="M20.828 14.3706L19.7616 13.9682L19.3592 15.0346L20.4256 15.437L20.828 14.3706Z" fill="black"/>
<path d="M22.9608 15.1753L21.8944 14.7729L21.4921 15.8394L22.5585 16.2417L22.9608 15.1753Z" fill="black"/>
<path d="M25.0937 15.98L24.0273 15.5777L23.6249 16.6441L24.6913 17.0464L25.0937 15.98Z" fill="black"/>
<path d="M27.2266 16.7847L26.1601 16.3824L25.7578 17.4488L26.8242 17.8512L27.2266 16.7847Z" fill="black"/>
<path d="M31.4923 18.3942L30.4259 17.9918L30.0235 19.0583L31.0899 19.4606L31.4923 18.3942Z" fill="black"/>
<path d="M33.6252 19.1989L32.5587 18.7966L32.1564 19.863L33.2228 20.2654L33.6252 19.1989Z" fill="black"/>
<path d="M34.6916 19.6013L33.6252 19.1989L33.2228 20.2654L34.2892 20.6677L34.6916 19.6013Z" fill="black"/>
<path d="M36.8245 20.406L35.758 20.0037L35.3557 21.0701L36.4221 21.4725L36.8245 20.406Z" fill="black"/>
<path d="M37.8909 20.8084L36.8245 20.406L36.4221 21.4725L37.4885 21.8748L37.8909 20.8084Z" fill="black"/>
<path d="M38.9573 21.2108L37.8909 20.8084L37.4885 21.8748L38.5549 22.2772L38.9573 21.2108Z" fill="black"/>
<path d="M43.223 22.8202L42.1566 22.4178L41.7542 23.4843L42.8207 23.8866L43.223 22.8202Z" fill="black"/>
<path d="M45.3559 23.6249L44.2895 23.2226L43.8871 24.289L44.9535 24.6914L45.3559 23.6249Z" fill="black"/>
<path d="M46.4223 24.0273L45.3559 23.6249L44.9535 24.6914L46.02 25.0937L46.4223 24.0273Z" fill="black"/>
<path d="M47.4888 24.4297L46.4223 24.0273L46.02 25.0937L47.0864 25.4961L47.4888 24.4297Z" fill="black"/>
<path d="M48.5552 24.832L47.4888 24.4297L47.0864 25.4961L48.1528 25.8985L48.5552 24.832Z" fill="black"/>
<path d="M49.6216 25.2344L48.5552 24.832L48.1528 25.8985L49.2193 26.3008L49.6216 25.2344Z" fill="black"/>
<path d="M50.6881 25.6368L49.6216 25.2344L49.2193 26.3008L50.2857 26.7032L50.6881 25.6368Z" fill="black"/>
<path d="M51.7545 26.0391L50.6881 25.6368L50.2857 26.7032L51.3521 27.1056L51.7545 26.0391Z" fill="black"/>
<path d="M54.9538 27.2462L53.8874 26.8439L53.485 27.9103L54.5514 28.3127L54.9538 27.2462Z" fill="black"/>
<path d="M17.2263 14.2299L16.1599 13.8275L15.7575 14.894L16.824 15.2963L17.2263 14.2299Z" fill="black"/>
<path d="M19.3592 15.0346L18.2928 14.6323L17.8904 15.6987L18.9568 16.1011L19.3592 15.0346Z" fill="black"/>
<path d="M20.4256 15.437L19.3592 15.0346L18.9568 16.1011L20.0233 16.5034L20.4256 15.437Z" fill="black"/>
<path d="M23.6249 16.6441L22.5585 16.2417L22.1561 17.3081L23.2226 17.7105L23.6249 16.6441Z" fill="black"/>
<path d="M24.6913 17.0464L23.6249 16.6441L23.2226 17.7105L24.289 18.1129L24.6913 17.0464Z" fill="black"/>
<path d="M25.7578 17.4488L24.6913 17.0464L24.289 18.1129L25.3554 18.5152L25.7578 17.4488Z" fill="black"/>
<path d="M26.8242 17.8512L25.7578 17.4488L25.3554 18.5152L26.4218 18.9176L26.8242 17.8512Z" fill="black"/>
<path d="M27.8906 18.2535L26.8242 17.8512L26.4218 18.9176L27.4883 19.32L27.8906 18.2535Z" fill="black"/>
<path d="M30.0235 19.0583L28.9571 18.6559L28.5547 19.7223L29.6211 20.1247L30.0235 19.0583Z" fill="black"/>
<path d="M33.2228 20.2654L32.1564 19.863L31.754 20.9294L32.8204 21.3318L33.2228 20.2654Z" fill="black"/>
<path d="M34.2892 20.6677L33.2228 20.2654L32.8204 21.3318L33.8869 21.7342L34.2892 20.6677Z" fill="black"/>
<path d="M35.3557 21.0701L34.2892 20.6677L33.8869 21.7342L34.9533 22.1365L35.3557 21.0701Z" fill="black"/>
<path d="M36.4221 21.4725L35.3557 21.0701L34.9533 22.1365L36.0197 22.5389L36.4221 21.4725Z" fill="black"/>
<path d="M37.4885 21.8748L36.4221 21.4725L36.0197 22.5389L37.0862 22.9413L37.4885 21.8748Z" fill="black"/>
<path d="M38.5549 22.2772L37.4885 21.8748L37.0862 22.9413L38.1526 23.3436L38.5549 22.2772Z" fill="black"/>
<path d="M39.6214 22.6796L38.5549 22.2772L38.1526 23.3436L39.219 23.746L39.6214 22.6796Z" fill="black"/>
<path d="M41.7542 23.4843L40.6878 23.0819L40.2854 24.1483L41.3519 24.5507L41.7542 23.4843Z" fill="black"/>
<path d="M43.8871 24.289L42.8207 23.8866L42.4183 24.9531L43.4847 25.3554L43.8871 24.289Z" fill="black"/>
<path d="M44.9535 24.6914L43.8871 24.289L43.4847 25.3554L44.5512 25.7578L44.9535 24.6914Z" fill="black"/>
<path d="M50.2857 26.7032L49.2193 26.3008L48.8169 27.3673L49.8833 27.7696L50.2857 26.7032Z" fill="black"/>
<path d="M15.7575 14.894L14.6911 14.4916L14.2887 15.558L15.3552 15.9604L15.7575 14.894Z" fill="black"/>
<path d="M20.0233 16.5034L18.9568 16.1011L18.5545 17.1675L19.6209 17.5699L20.0233 16.5034Z" fill="black"/>
<path d="M22.1561 17.3081L21.0897 16.9058L20.6873 17.9722L21.7538 18.3746L22.1561 17.3081Z" fill="black"/>
<path d="M25.3554 18.5152L24.289 18.1129L23.8866 19.1793L24.953 19.5817L25.3554 18.5152Z" fill="black"/>
<path d="M26.4218 18.9176L25.3554 18.5152L24.953 19.5817L26.0195 19.984L26.4218 18.9176Z" fill="black"/>
<path d="M28.5547 19.7223L27.4883 19.32L27.0859 20.3864L28.1523 20.7888L28.5547 19.7223Z" fill="black"/>
<path d="M30.6876 20.5271L29.6211 20.1247L29.2188 21.1911L30.2852 21.5935L30.6876 20.5271Z" fill="black"/>
<path d="M31.754 20.9294L30.6876 20.5271L30.2852 21.5935L31.3516 21.9959L31.754 20.9294Z" fill="black"/>
<path d="M32.8204 21.3318L31.754 20.9294L31.3516 21.9959L32.4181 22.3982L32.8204 21.3318Z" fill="black"/>
<path d="M33.8869 21.7342L32.8204 21.3318L32.4181 22.3982L33.4845 22.8006L33.8869 21.7342Z" fill="black"/>
<path d="M36.0197 22.5389L34.9533 22.1365L34.5509 23.203L35.6174 23.6053L36.0197 22.5389Z" fill="black"/>
<path d="M38.1526 23.3436L37.0862 22.9413L36.6838 24.0077L37.7502 24.41L38.1526 23.3436Z" fill="black"/>
<path d="M39.219 23.746L38.1526 23.3436L37.7502 24.41L38.8167 24.8124L39.219 23.746Z" fill="black"/>
<path d="M40.2854 24.1483L39.219 23.746L38.8167 24.8124L39.8831 25.2148L40.2854 24.1483Z" fill="black"/>
<path d="M41.3519 24.5507L40.2854 24.1483L39.8831 25.2148L40.9495 25.6171L41.3519 24.5507Z" fill="black"/>
<path d="M42.4183 24.9531L41.3519 24.5507L40.9495 25.6171L42.0159 26.0195L42.4183 24.9531Z" fill="black"/>
<path d="M43.4847 25.3554L42.4183 24.9531L42.0159 26.0195L43.0824 26.4219L43.4847 25.3554Z" fill="black"/>
<path d="M45.6176 26.1602L44.5512 25.7578L44.1488 26.8242L45.2152 27.2266L45.6176 26.1602Z" fill="black"/>
<path d="M48.8169 27.3673L47.7505 26.9649L47.3481 28.0313L48.4145 28.4337L48.8169 27.3673Z" fill="black"/>
<path d="M52.0162 28.5744L50.9498 28.172L50.5474 29.2384L51.6138 29.6408L52.0162 28.5744Z" fill="black"/>
<path d="M54.1491 29.3791L53.0826 28.9767L52.6803 30.0431L53.7467 30.4455L54.1491 29.3791Z" fill="black"/>
<path d="M18.5545 17.1675L17.488 16.7651L17.0857 17.8316L18.1521 18.2339L18.5545 17.1675Z" fill="black"/>
<path d="M20.6873 17.9722L19.6209 17.5699L19.2185 18.6363L20.285 19.0386L20.6873 17.9722Z" fill="black"/>
<path d="M23.8866 19.1793L22.8202 18.7769L22.4178 19.8434L23.4843 20.2457L23.8866 19.1793Z" fill="black"/>
<path d="M24.953 19.5817L23.8866 19.1793L23.4843 20.2457L24.5507 20.6481L24.953 19.5817Z" fill="black"/>
<path d="M30.2852 21.5935L29.2188 21.1911L28.8164 22.2576L29.8828 22.6599L30.2852 21.5935Z" fill="black"/>
<path d="M36.6838 24.0077L35.6174 23.6053L35.215 24.6718L36.2814 25.0741L36.6838 24.0077Z" fill="black"/>
<path d="M37.7502 24.41L36.6838 24.0077L36.2814 25.0741L37.3479 25.4765L37.7502 24.41Z" fill="black"/>
<path d="M42.0159 26.0195L40.9495 25.6171L40.5472 26.6836L41.6136 27.0859L42.0159 26.0195Z" fill="black"/>
<path d="M43.0824 26.4219L42.0159 26.0195L41.6136 27.0859L42.68 27.4883L43.0824 26.4219Z" fill="black"/>
<path d="M46.2817 27.629L45.2152 27.2266L44.8129 28.293L45.8793 28.6954L46.2817 27.629Z" fill="black"/>
<path d="M48.4145 28.4337L47.3481 28.0313L46.9457 29.0978L48.0122 29.5001L48.4145 28.4337Z" fill="black"/>
<path d="M51.6138 29.6408L50.5474 29.2384L50.145 30.3049L51.2115 30.7072L51.6138 29.6408Z" fill="black"/>
<path d="M52.6803 30.0431L51.6138 29.6408L51.2115 30.7072L52.2779 31.1096L52.6803 30.0431Z" fill="black"/>
<path d="M53.7467 30.4455L52.6803 30.0431L52.2779 31.1096L53.3443 31.5119L53.7467 30.4455Z" fill="black"/>
<path d="M16.0192 17.4292L14.9528 17.0268L14.5504 18.0933L15.6169 18.4956L16.0192 17.4292Z" fill="black"/>
<path d="M17.0857 17.8316L16.0192 17.4292L15.6169 18.4956L16.6833 18.898L17.0857 17.8316Z" fill="black"/>
<path d="M19.2185 18.6363L18.1521 18.2339L17.7497 19.3004L18.8162 19.7027L19.2185 18.6363Z" fill="black"/>
<path d="M20.285 19.0386L19.2185 18.6363L18.8162 19.7027L19.8826 20.1051L20.285 19.0386Z" fill="black"/>
<path d="M21.3514 19.441L20.285 19.0386L19.8826 20.1051L20.949 20.5074L21.3514 19.441Z" fill="black"/>
<path d="M25.6171 21.0505L24.5507 20.6481L24.1483 21.7145L25.2147 22.1169L25.6171 21.0505Z" fill="black"/>
<path d="M26.6835 21.4528L25.6171 21.0505L25.2147 22.1169L26.2812 22.5193L26.6835 21.4528Z" fill="black"/>
<path d="M30.9493 23.0623L29.8828 22.6599L29.4805 23.7264L30.5469 24.1287L30.9493 23.0623Z" fill="black"/>
<path d="M32.0157 23.4647L30.9493 23.0623L30.5469 24.1287L31.6133 24.5311L32.0157 23.4647Z" fill="black"/>
<path d="M33.0821 23.867L32.0157 23.4647L31.6133 24.5311L32.6798 24.9335L33.0821 23.867Z" fill="black"/>
<path d="M34.1486 24.2694L33.0821 23.867L32.6798 24.9335L33.7462 25.3358L34.1486 24.2694Z" fill="black"/>
<path d="M36.2814 25.0741L35.215 24.6718L34.8126 25.7382L35.8791 26.1405L36.2814 25.0741Z" fill="black"/>
<path d="M38.4143 25.8788L37.3479 25.4765L36.9455 26.5429L38.0119 26.9453L38.4143 25.8788Z" fill="black"/>
<path d="M41.6136 27.0859L40.5472 26.6836L40.1448 27.75L41.2112 28.1524L41.6136 27.0859Z" fill="black"/>
<path d="M42.68 27.4883L41.6136 27.0859L41.2112 28.1524L42.2776 28.5547L42.68 27.4883Z" fill="black"/>
<path d="M43.7464 27.8907L42.68 27.4883L42.2776 28.5547L43.3441 28.9571L43.7464 27.8907Z" fill="black"/>
<path d="M44.8129 28.293L43.7464 27.8907L43.3441 28.9571L44.4105 29.3595L44.8129 28.293Z" fill="black"/>
<path d="M49.0786 29.9025L48.0122 29.5001L47.6098 30.5666L48.6762 30.9689L49.0786 29.9025Z" fill="black"/>
<path d="M50.145 30.3049L49.0786 29.9025L48.6762 30.9689L49.7427 31.3713L50.145 30.3049Z" fill="black"/>
<path d="M51.2115 30.7072L50.145 30.3049L49.7427 31.3713L50.8091 31.7736L51.2115 30.7072Z" fill="black"/>
<path d="M14.5504 18.0933L13.484 17.6909L13.0816 18.7573L14.1481 19.1597L14.5504 18.0933Z" fill="black"/>
<path d="M15.6169 18.4956L14.5504 18.0933L14.1481 19.1597L15.2145 19.5621L15.6169 18.4956Z" fill="black"/>
<path d="M17.7497 19.3004L16.6833 18.898L16.2809 19.9644L17.3474 20.3668L17.7497 19.3004Z" fill="black"/>
<path d="M22.0155 20.9098L20.949 20.5074L20.5467 21.5739L21.6131 21.9762L22.0155 20.9098Z" fill="black"/>
<path d="M25.2147 22.1169L24.1483 21.7145L23.746 22.781L24.8124 23.1833L25.2147 22.1169Z" fill="black"/>
<path d="M27.3476 22.9216L26.2812 22.5193L25.8788 23.5857L26.9453 23.9881L27.3476 22.9216Z" fill="black"/>
<path d="M29.4805 23.7264L28.414 23.324L28.0117 24.3904L29.0781 24.7928L29.4805 23.7264Z" fill="black"/>
<path d="M30.5469 24.1287L29.4805 23.7264L29.0781 24.7928L30.1445 25.1952L30.5469 24.1287Z" fill="black"/>
<path d="M34.8126 25.7382L33.7462 25.3358L33.3438 26.4022L34.4103 26.8046L34.8126 25.7382Z" fill="black"/>
<path d="M36.9455 26.5429L35.8791 26.1405L35.4767 27.207L36.5431 27.6093L36.9455 26.5429Z" fill="black"/>
<path d="M40.1448 27.75L39.0784 27.3476L38.676 28.4141L39.7424 28.8164L40.1448 27.75Z" fill="black"/>
<path d="M43.3441 28.9571L42.2776 28.5547L41.8753 29.6212L42.9417 30.0235L43.3441 28.9571Z" fill="black"/>
<path d="M44.4105 29.3595L43.3441 28.9571L42.9417 30.0235L44.0081 30.4259L44.4105 29.3595Z" fill="black"/>
<path d="M48.6762 30.9689L47.6098 30.5666L47.2074 31.633L48.2739 32.0353L48.6762 30.9689Z" fill="black"/>
<path d="M14.1481 19.1597L13.0816 18.7573L12.6793 19.8238L13.7457 20.2261L14.1481 19.1597Z" fill="black"/>
<path d="M15.2145 19.5621L14.1481 19.1597L13.7457 20.2261L14.8121 20.6285L15.2145 19.5621Z" fill="black"/>
<path d="M18.4138 20.7691L17.3474 20.3668L16.945 21.4332L18.0114 21.8356L18.4138 20.7691Z" fill="black"/>
<path d="M20.5467 21.5739L19.4802 21.1715L19.0779 22.2379L20.1443 22.6403L20.5467 21.5739Z" fill="black"/>
<path d="M21.6131 21.9762L20.5467 21.5739L20.1443 22.6403L21.2107 23.0427L21.6131 21.9762Z" fill="black"/>
<path d="M22.6795 22.3786L21.6131 21.9762L21.2107 23.0427L22.2772 23.445L22.6795 22.3786Z" fill="black"/>
<path d="M29.0781 24.7928L28.0117 24.3904L27.6093 25.4569L28.6757 25.8592L29.0781 24.7928Z" fill="black"/>
<path d="M30.1445 25.1952L29.0781 24.7928L28.6757 25.8592L29.7422 26.2616L30.1445 25.1952Z" fill="black"/>
<path d="M32.2774 25.9999L31.211 25.5975L30.8086 26.6639L31.875 27.0663L32.2774 25.9999Z" fill="black"/>
<path d="M34.4103 26.8046L33.3438 26.4022L32.9415 27.4687L34.0079 27.871L34.4103 26.8046Z" fill="black"/>
<path d="M35.4767 27.207L34.4103 26.8046L34.0079 27.871L35.0743 28.2734L35.4767 27.207Z" fill="black"/>
<path d="M38.676 28.4141L37.6096 28.0117L37.2072 29.0781L38.2736 29.4805L38.676 28.4141Z" fill="black"/>
<path d="M39.7424 28.8164L38.676 28.4141L38.2736 29.4805L39.3401 29.8829L39.7424 28.8164Z" fill="black"/>
<path d="M42.9417 30.0235L41.8753 29.6212L41.4729 30.6876L42.5394 31.09L42.9417 30.0235Z" fill="black"/>
<path d="M45.0746 30.8283L44.0081 30.4259L43.6058 31.4923L44.6722 31.8947L45.0746 30.8283Z" fill="black"/>
<path d="M46.141 31.2306L45.0746 30.8283L44.6722 31.8947L45.7386 32.2971L46.141 31.2306Z" fill="black"/>
<path d="M50.4067 32.8401L49.3403 32.4377L48.9379 33.5041L50.0044 33.9065L50.4067 32.8401Z" fill="black"/>
<path d="M51.4732 33.2424L50.4067 32.8401L50.0044 33.9065L51.0708 34.3089L51.4732 33.2424Z" fill="black"/>
<path d="M19.0779 22.2379L18.0114 21.8356L17.6091 22.902L18.6755 23.3044L19.0779 22.2379Z" fill="black"/>
<path d="M24.41 24.2498L23.3436 23.8474L22.9412 24.9138L24.0077 25.3162L24.41 24.2498Z" fill="black"/>
<path d="M26.5429 25.0545L25.4765 24.6521L25.0741 25.7186L26.1405 26.1209L26.5429 25.0545Z" fill="black"/>
<path d="M28.6757 25.8592L27.6093 25.4569L27.2069 26.5233L28.2734 26.9257L28.6757 25.8592Z" fill="black"/>
<path d="M29.7422 26.2616L28.6757 25.8592L28.2734 26.9257L29.3398 27.328L29.7422 26.2616Z" fill="black"/>
<path d="M30.8086 26.6639L29.7422 26.2616L29.3398 27.328L30.4062 27.7304L30.8086 26.6639Z" fill="black"/>
<path d="M34.0079 27.871L32.9415 27.4687L32.5391 28.5351L33.6055 28.9375L34.0079 27.871Z" fill="black"/>
<path d="M36.1408 28.6758L35.0743 28.2734L34.672 29.3398L35.7384 29.7422L36.1408 28.6758Z" fill="black"/>
<path d="M37.2072 29.0781L36.1408 28.6758L35.7384 29.7422L36.8048 30.1446L37.2072 29.0781Z" fill="black"/>
<path d="M39.3401 29.8829L38.2736 29.4805L37.8713 30.5469L38.9377 30.9493L39.3401 29.8829Z" fill="black"/>
<path d="M41.4729 30.6876L40.4065 30.2852L40.0041 31.3517L41.0706 31.754L41.4729 30.6876Z" fill="black"/>
<path d="M43.6058 31.4923L42.5394 31.09L42.137 32.1564L43.2034 32.5588L43.6058 31.4923Z" fill="black"/>
<path d="M44.6722 31.8947L43.6058 31.4923L43.2034 32.5588L44.2698 32.9611L44.6722 31.8947Z" fill="black"/>
<path d="M45.7386 32.2971L44.6722 31.8947L44.2698 32.9611L45.3363 33.3635L45.7386 32.2971Z" fill="black"/>
<path d="M47.8715 33.1018L46.8051 32.6994L46.4027 33.7658L47.4691 34.1682L47.8715 33.1018Z" fill="black"/>
<path d="M51.0708 34.3089L50.0044 33.9065L49.602 34.9729L50.6684 35.3753L51.0708 34.3089Z" fill="black"/>
<path d="M13.3433 21.2925L12.2769 20.8902L11.8745 21.9566L12.941 22.359L13.3433 21.2925Z" fill="black"/>
<path d="M14.4098 21.6949L13.3433 21.2925L12.941 22.359L14.0074 22.7613L14.4098 21.6949Z" fill="black"/>
<path d="M17.6091 22.902L16.5426 22.4996L16.1403 23.5661L17.2067 23.9684L17.6091 22.902Z" fill="black"/>
<path d="M19.7419 23.7067L18.6755 23.3044L18.2731 24.3708L19.3396 24.7732L19.7419 23.7067Z" fill="black"/>
<path d="M22.9412 24.9138L21.8748 24.5115L21.4724 25.5779L22.5389 25.9803L22.9412 24.9138Z" fill="black"/>
<path d="M24.0077 25.3162L22.9412 24.9138L22.5389 25.9803L23.6053 26.3826L24.0077 25.3162Z" fill="black"/>
<path d="M25.0741 25.7186L24.0077 25.3162L23.6053 26.3826L24.6717 26.785L25.0741 25.7186Z" fill="black"/>
<path d="M27.2069 26.5233L26.1405 26.1209L25.7382 27.1874L26.8046 27.5897L27.2069 26.5233Z" fill="black"/>
<path d="M29.3398 27.328L28.2734 26.9257L27.871 27.9921L28.9374 28.3944L29.3398 27.328Z" fill="black"/>
<path d="M32.5391 28.5351L31.4727 28.1327L31.0703 29.1992L32.1367 29.6015L32.5391 28.5351Z" fill="black"/>
<path d="M33.6055 28.9375L32.5391 28.5351L32.1367 29.6015L33.2032 30.0039L33.6055 28.9375Z" fill="black"/>
<path d="M36.8048 30.1446L35.7384 29.7422L35.336 30.8086L36.4025 31.211L36.8048 30.1446Z" fill="black"/>
<path d="M42.137 32.1564L41.0706 31.754L40.6682 32.8205L41.7346 33.2228L42.137 32.1564Z" fill="black"/>
<path d="M47.4691 34.1682L46.4027 33.7658L46.0003 34.8323L47.0668 35.2346L47.4691 34.1682Z" fill="black"/>
<path d="M12.941 22.359L11.8745 21.9566L11.4722 23.023L12.5386 23.4254L12.941 22.359Z" fill="black"/>
<path d="M16.1403 23.5661L15.0738 23.1637L14.6715 24.2301L15.7379 24.6325L16.1403 23.5661Z" fill="black"/>
<path d="M20.406 25.1755L19.3396 24.7732L18.9372 25.8396L20.0036 26.242L20.406 25.1755Z" fill="black"/>
<path d="M24.6717 26.785L23.6053 26.3826L23.2029 27.4491L24.2694 27.8514L24.6717 26.785Z" fill="black"/>
<path d="M25.7382 27.1874L24.6717 26.785L24.2694 27.8514L25.3358 28.2538L25.7382 27.1874Z" fill="black"/>
<path d="M30.0039 28.7968L28.9374 28.3944L28.5351 29.4609L29.6015 29.8632L30.0039 28.7968Z" fill="black"/>
<path d="M35.336 30.8086L34.2696 30.4063L33.8672 31.4727L34.9337 31.8751L35.336 30.8086Z" fill="black"/>
<path d="M38.5353 32.0157L37.4689 31.6134L37.0665 32.6798L38.133 33.0822L38.5353 32.0157Z" fill="black"/>
<path d="M40.6682 32.8205L39.6018 32.4181L39.1994 33.4845L40.2658 33.8869L40.6682 32.8205Z" fill="black"/>
<path d="M43.8675 34.0275L42.8011 33.6252L42.3987 34.6916L43.4651 35.094L43.8675 34.0275Z" fill="black"/>
<path d="M44.9339 34.4299L43.8675 34.0275L43.4651 35.094L44.5315 35.4963L44.9339 34.4299Z" fill="black"/>
<path d="M48.1332 35.637L47.0668 35.2346L46.6644 36.3011L47.7308 36.7034L48.1332 35.637Z" fill="black"/>
<path d="M49.1996 36.0394L48.1332 35.637L47.7308 36.7034L48.7973 37.1058L49.1996 36.0394Z" fill="black"/>
<path d="M50.2661 36.4417L49.1996 36.0394L48.7973 37.1058L49.8637 37.5082L50.2661 36.4417Z" fill="black"/>
<path d="M14.6715 24.2301L13.605 23.8278L13.2027 24.8942L14.2691 25.2966L14.6715 24.2301Z" fill="black"/>
<path d="M15.7379 24.6325L14.6715 24.2301L14.2691 25.2966L15.3355 25.6989L15.7379 24.6325Z" fill="black"/>
<path d="M18.9372 25.8396L17.8708 25.4372L17.4684 26.5037L18.5348 26.906L18.9372 25.8396Z" fill="black"/>
<path d="M20.0036 26.242L18.9372 25.8396L18.5348 26.906L19.6013 27.3084L20.0036 26.242Z" fill="black"/>
<path d="M22.1365 27.0467L21.0701 26.6443L20.6677 27.7108L21.7341 28.1131L22.1365 27.0467Z" fill="black"/>
<path d="M23.2029 27.4491L22.1365 27.0467L21.7341 28.1131L22.8006 28.5155L23.2029 27.4491Z" fill="black"/>
<path d="M24.2694 27.8514L23.2029 27.4491L22.8006 28.5155L23.867 28.9179L24.2694 27.8514Z" fill="black"/>
<path d="M27.4687 29.0585L26.4022 28.6561L25.9999 29.7226L27.0663 30.1249L27.4687 29.0585Z" fill="black"/>
<path d="M29.6015 29.8632L28.5351 29.4609L28.1327 30.5273L29.1992 30.9297L29.6015 29.8632Z" fill="black"/>
<path d="M34.9337 31.8751L33.8672 31.4727L33.4649 32.5391L34.5313 32.9415L34.9337 31.8751Z" fill="black"/>
<path d="M37.0665 32.6798L36.0001 32.2774L35.5977 33.3439L36.6642 33.7462L37.0665 32.6798Z" fill="black"/>
<path d="M39.1994 33.4845L38.133 33.0822L37.7306 34.1486L38.797 34.551L39.1994 33.4845Z" fill="black"/>
<path d="M41.3323 34.2893L40.2658 33.8869L39.8635 34.9533L40.9299 35.3557L41.3323 34.2893Z" fill="black"/>
<path d="M42.3987 34.6916L41.3323 34.2893L40.9299 35.3557L41.9963 35.758L42.3987 34.6916Z" fill="black"/>
<path d="M43.4651 35.094L42.3987 34.6916L41.9963 35.758L43.0628 36.1604L43.4651 35.094Z" fill="black"/>
<path d="M44.5315 35.4963L43.4651 35.094L43.0628 36.1604L44.1292 36.5628L44.5315 35.4963Z" fill="black"/>
<path d="M46.6644 36.3011L45.598 35.8987L45.1956 36.9651L46.262 37.3675L46.6644 36.3011Z" fill="black"/>
<path d="M50.9301 37.9105L49.8637 37.5082L49.4613 38.5746L50.5278 38.977L50.9301 37.9105Z" fill="black"/>
<path d="M12.1363 24.4918L11.0698 24.0895L10.6675 25.1559L11.7339 25.5583L12.1363 24.4918Z" fill="black"/>
<path d="M13.2027 24.8942L12.1363 24.4918L11.7339 25.5583L12.8003 25.9606L13.2027 24.8942Z" fill="black"/>
<path d="M14.2691 25.2966L13.2027 24.8942L12.8003 25.9606L13.8667 26.363L14.2691 25.2966Z" fill="black"/>
<path d="M19.6013 27.3084L18.5348 26.906L18.1325 27.9725L19.1989 28.3748L19.6013 27.3084Z" fill="black"/>
<path d="M20.6677 27.7108L19.6013 27.3084L19.1989 28.3748L20.2653 28.7772L20.6677 27.7108Z" fill="black"/>
<path d="M22.8006 28.5155L21.7341 28.1131L21.3318 29.1796L22.3982 29.5819L22.8006 28.5155Z" fill="black"/>
<path d="M23.867 28.9179L22.8006 28.5155L22.3982 29.5819L23.4646 29.9843L23.867 28.9179Z" fill="black"/>
<path d="M25.9999 29.7226L24.9334 29.3202L24.5311 30.3866L25.5975 30.789L25.9999 29.7226Z" fill="black"/>
<path d="M27.0663 30.1249L25.9999 29.7226L25.5975 30.789L26.6639 31.1914L27.0663 30.1249Z" fill="black"/>
<path d="M29.1992 30.9297L28.1327 30.5273L27.7304 31.5937L28.7968 31.9961L29.1992 30.9297Z" fill="black"/>
<path d="M31.332 31.7344L30.2656 31.332L29.8632 32.3985L30.9296 32.8008L31.332 31.7344Z" fill="black"/>
<path d="M32.3984 32.1368L31.332 31.7344L30.9296 32.8008L31.9961 33.2032L32.3984 32.1368Z" fill="black"/>
<path d="M33.4649 32.5391L32.3984 32.1368L31.9961 33.2032L33.0625 33.6056L33.4649 32.5391Z" fill="black"/>
<path d="M34.5313 32.9415L33.4649 32.5391L33.0625 33.6056L34.1289 34.0079L34.5313 32.9415Z" fill="black"/>
<path d="M36.6642 33.7462L35.5977 33.3439L35.1954 34.4103L36.2618 34.8127L36.6642 33.7462Z" fill="black"/>
<path d="M37.7306 34.1486L36.6642 33.7462L36.2618 34.8127L37.3282 35.215L37.7306 34.1486Z" fill="black"/>
<path d="M38.797 34.551L37.7306 34.1486L37.3282 35.215L38.3947 35.6174L38.797 34.551Z" fill="black"/>
<path d="M40.9299 35.3557L39.8635 34.9533L39.4611 36.0198L40.5275 36.4221L40.9299 35.3557Z" fill="black"/>
<path d="M41.9963 35.758L40.9299 35.3557L40.5275 36.4221L41.594 36.8245L41.9963 35.758Z" fill="black"/>
<path d="M43.0628 36.1604L41.9963 35.758L41.594 36.8245L42.6604 37.2268L43.0628 36.1604Z" fill="black"/>
<path d="M44.1292 36.5628L43.0628 36.1604L42.6604 37.2268L43.7268 37.6292L44.1292 36.5628Z" fill="black"/>
<path d="M50.5278 38.977L49.4613 38.5746L49.059 39.641L50.1254 40.0434L50.5278 38.977Z" fill="black"/>
<path d="M11.7339 25.5583L10.6675 25.1559L10.2651 26.2223L11.3315 26.6247L11.7339 25.5583Z" fill="black"/>
<path d="M18.1325 27.9725L17.066 27.5701L16.6637 28.6365L17.7301 29.0389L18.1325 27.9725Z" fill="black"/>
<path d="M19.1989 28.3748L18.1325 27.9725L17.7301 29.0389L18.7965 29.4413L19.1989 28.3748Z" fill="black"/>
<path d="M22.3982 29.5819L21.3318 29.1796L20.9294 30.246L21.9958 30.6483L22.3982 29.5819Z" fill="black"/>
<path d="M23.4646 29.9843L22.3982 29.5819L21.9958 30.6483L23.0623 31.0507L23.4646 29.9843Z" fill="black"/>
<path d="M26.6639 31.1914L25.5975 30.789L25.1951 31.8554L26.2616 32.2578L26.6639 31.1914Z" fill="black"/>
<path d="M31.9961 33.2032L30.9296 32.8008L30.5273 33.8673L31.5937 34.2696L31.9961 33.2032Z" fill="black"/>
<path d="M33.0625 33.6056L31.9961 33.2032L31.5937 34.2696L32.6601 34.672L33.0625 33.6056Z" fill="black"/>
<path d="M34.1289 34.0079L33.0625 33.6056L32.6601 34.672L33.7266 35.0744L34.1289 34.0079Z" fill="black"/>
<path d="M35.1954 34.4103L34.1289 34.0079L33.7266 35.0744L34.793 35.4767L35.1954 34.4103Z" fill="black"/>
<path d="M36.2618 34.8127L35.1954 34.4103L34.793 35.4767L35.8594 35.8791L36.2618 34.8127Z" fill="black"/>
<path d="M37.3282 35.215L36.2618 34.8127L35.8594 35.8791L36.9259 36.2815L37.3282 35.215Z" fill="black"/>
<path d="M42.6604 37.2268L41.594 36.8245L41.1916 37.8909L42.258 38.2933L42.6604 37.2268Z" fill="black"/>
<path d="M45.8597 38.4339L44.7933 38.0316L44.3909 39.098L45.4573 39.5004L45.8597 38.4339Z" fill="black"/>
<path d="M46.9261 38.8363L45.8597 38.4339L45.4573 39.5004L46.5238 39.9027L46.9261 38.8363Z" fill="black"/>
<path d="M11.3315 26.6247L10.2651 26.2223L9.86273 27.2888L10.9292 27.6911L11.3315 26.6247Z" fill="black"/>
<path d="M12.398 27.0271L11.3315 26.6247L10.9292 27.6911L11.9956 28.0935L12.398 27.0271Z" fill="black"/>
<path d="M13.4644 27.4294L12.398 27.0271L11.9956 28.0935L13.062 28.4959L13.4644 27.4294Z" fill="black"/>
<path d="M14.5308 27.8318L13.4644 27.4294L13.062 28.4959L14.1285 28.8982L14.5308 27.8318Z" fill="black"/>
<path d="M15.5972 28.2342L14.5308 27.8318L14.1285 28.8982L15.1949 29.3006L15.5972 28.2342Z" fill="black"/>
<path d="M19.863 29.8436L18.7965 29.4413L18.3942 30.5077L19.4606 30.9101L19.863 29.8436Z" fill="black"/>
<path d="M21.9958 30.6483L20.9294 30.246L20.527 31.3124L21.5935 31.7148L21.9958 30.6483Z" fill="black"/>
<path d="M25.1951 31.8554L24.1287 31.4531L23.7263 32.5195L24.7928 32.9219L25.1951 31.8554Z" fill="black"/>
<path d="M27.328 32.6602L26.2616 32.2578L25.8592 33.3242L26.9256 33.7266L27.328 32.6602Z" fill="black"/>
<path d="M28.3944 33.0625L27.328 32.6602L26.9256 33.7266L27.9921 34.129L28.3944 33.0625Z" fill="black"/>
<path d="M30.5273 33.8673L29.4609 33.4649L29.0585 34.5313L30.1249 34.9337L30.5273 33.8673Z" fill="black"/>
<path d="M34.793 35.4767L33.7266 35.0744L33.3242 36.1408L34.3906 36.5432L34.793 35.4767Z" fill="black"/>
<path d="M36.9259 36.2815L35.8594 35.8791L35.4571 36.9455L36.5235 37.3479L36.9259 36.2815Z" fill="black"/>
<path d="M42.258 38.2933L41.1916 37.8909L40.7892 38.9573L41.8557 39.3597L42.258 38.2933Z" fill="black"/>
<path d="M44.3909 39.098L43.3245 38.6956L42.9221 39.7621L43.9885 40.1644L44.3909 39.098Z" fill="black"/>
<path d="M45.4573 39.5004L44.3909 39.098L43.9885 40.1644L45.055 40.5668L45.4573 39.5004Z" fill="black"/>
<path d="M46.5238 39.9027L45.4573 39.5004L45.055 40.5668L46.1214 40.9692L46.5238 39.9027Z" fill="black"/>
<path d="M47.5902 40.3051L46.5238 39.9027L46.1214 40.9692L47.1878 41.3715L47.5902 40.3051Z" fill="black"/>
<path d="M10.9292 27.6911L9.86273 27.2888L9.46036 28.3552L10.5268 28.7576L10.9292 27.6911Z" fill="black"/>
<path d="M11.9956 28.0935L10.9292 27.6911L10.5268 28.7576L11.5932 29.1599L11.9956 28.0935Z" fill="black"/>
<path d="M16.2613 29.703L15.1949 29.3006L14.7925 30.367L15.8589 30.7694L16.2613 29.703Z" fill="black"/>
<path d="M17.3277 30.1053L16.2613 29.703L15.8589 30.7694L16.9254 31.1718L17.3277 30.1053Z" fill="black"/>
<path d="M18.3942 30.5077L17.3277 30.1053L16.9254 31.1718L17.9918 31.5741L18.3942 30.5077Z" fill="black"/>
<path d="M19.4606 30.9101L18.3942 30.5077L17.9918 31.5741L19.0582 31.9765L19.4606 30.9101Z" fill="black"/>
<path d="M24.7928 32.9219L23.7263 32.5195L23.324 33.5859L24.3904 33.9883L24.7928 32.9219Z" fill="black"/>
<path d="M26.9256 33.7266L25.8592 33.3242L25.4568 34.3907L26.5233 34.793L26.9256 33.7266Z" fill="black"/>
<path d="M27.9921 34.129L26.9256 33.7266L26.5233 34.793L27.5897 35.1954L27.9921 34.129Z" fill="black"/>
<path d="M29.0585 34.5313L27.9921 34.129L27.5897 35.1954L28.6561 35.5978L29.0585 34.5313Z" fill="black"/>
<path d="M33.3242 36.1408L32.2578 35.7384L31.8554 36.8049L32.9218 37.2072L33.3242 36.1408Z" fill="black"/>
<path d="M36.5235 37.3479L35.4571 36.9455L35.0547 38.012L36.1211 38.4143L36.5235 37.3479Z" fill="black"/>
<path d="M37.5899 37.7502L36.5235 37.3479L36.1211 38.4143L37.1876 38.8167L37.5899 37.7502Z" fill="black"/>
<path d="M38.6564 38.1526L37.5899 37.7502L37.1876 38.8167L38.254 39.219L38.6564 38.1526Z" fill="black"/>
<path d="M40.7892 38.9573L39.7228 38.555L39.3204 39.6214L40.3869 40.0238L40.7892 38.9573Z" fill="black"/>
<path d="M41.8557 39.3597L40.7892 38.9573L40.3869 40.0238L41.4533 40.4261L41.8557 39.3597Z" fill="black"/>
<path d="M46.1214 40.9692L45.055 40.5668L44.6526 41.6332L45.719 42.0356L46.1214 40.9692Z" fill="black"/>
<path d="M48.2542 41.7739L47.1878 41.3715L46.7855 42.438L47.8519 42.8403L48.2542 41.7739Z" fill="black"/>
<path d="M49.3207 42.1763L48.2542 41.7739L47.8519 42.8403L48.9183 43.2427L49.3207 42.1763Z" fill="black"/>
<path d="M10.5268 28.7576L9.46036 28.3552L9.058 29.4216L10.1244 29.824L10.5268 28.7576Z" fill="black"/>
<path d="M11.5932 29.1599L10.5268 28.7576L10.1244 29.824L11.1909 30.2264L11.5932 29.1599Z" fill="black"/>
<path d="M12.6597 29.5623L11.5932 29.1599L11.1909 30.2264L12.2573 30.6287L12.6597 29.5623Z" fill="black"/>
<path d="M13.7261 29.9647L12.6597 29.5623L12.2573 30.6287L13.3237 31.0311L13.7261 29.9647Z" fill="black"/>
<path d="M15.8589 30.7694L14.7925 30.367L14.3902 31.4335L15.4566 31.8358L15.8589 30.7694Z" fill="black"/>
<path d="M17.9918 31.5741L16.9254 31.1718L16.523 32.2382L17.5894 32.6406L17.9918 31.5741Z" fill="black"/>
<path d="M19.0582 31.9765L17.9918 31.5741L17.5894 32.6406L18.6559 33.0429L19.0582 31.9765Z" fill="black"/>
<path d="M21.1911 32.7812L20.1247 32.3788L19.7223 33.4453L20.7887 33.8476L21.1911 32.7812Z" fill="black"/>
<path d="M22.2575 33.1836L21.1911 32.7812L20.7887 33.8476L21.8552 34.25L22.2575 33.1836Z" fill="black"/>
<path d="M23.324 33.5859L22.2575 33.1836L21.8552 34.25L22.9216 34.6524L23.324 33.5859Z" fill="black"/>
<path d="M24.3904 33.9883L23.324 33.5859L22.9216 34.6524L23.988 35.0547L24.3904 33.9883Z" fill="black"/>
<path d="M28.6561 35.5978L27.5897 35.1954L27.1873 36.2618L28.2538 36.6642L28.6561 35.5978Z" fill="black"/>
<path d="M30.789 36.4025L29.7226 36.0001L29.3202 37.0666L30.3866 37.4689L30.789 36.4025Z" fill="black"/>
<path d="M31.8554 36.8049L30.789 36.4025L30.3866 37.4689L31.4531 37.8713L31.8554 36.8049Z" fill="black"/>
<path d="M32.9218 37.2072L31.8554 36.8049L31.4531 37.8713L32.5195 38.2737L32.9218 37.2072Z" fill="black"/>
<path d="M33.9883 37.6096L32.9218 37.2072L32.5195 38.2737L33.5859 38.676L33.9883 37.6096Z" fill="black"/>
<path d="M40.3869 40.0238L39.3204 39.6214L38.9181 40.6878L39.9845 41.0902L40.3869 40.0238Z" fill="black"/>
<path d="M42.5197 40.8285L41.4533 40.4261L41.0509 41.4926L42.1174 41.8949L42.5197 40.8285Z" fill="black"/>
<path d="M43.5862 41.2309L42.5197 40.8285L42.1174 41.8949L43.1838 42.2973L43.5862 41.2309Z" fill="black"/>
<path d="M11.1909 30.2264L10.1244 29.824L9.72207 30.8904L10.7885 31.2928L11.1909 30.2264Z" fill="black"/>
<path d="M16.523 32.2382L15.4566 31.8358L15.0542 32.9023L16.1207 33.3046L16.523 32.2382Z" fill="black"/>
<path d="M19.7223 33.4453L18.6559 33.0429L18.2535 34.1093L19.3199 34.5117L19.7223 33.4453Z" fill="black"/>
<path d="M21.8552 34.25L20.7887 33.8476L20.3864 34.9141L21.4528 35.3164L21.8552 34.25Z" fill="black"/>
<path d="M22.9216 34.6524L21.8552 34.25L21.4528 35.3164L22.5192 35.7188L22.9216 34.6524Z" fill="black"/>
<path d="M23.988 35.0547L22.9216 34.6524L22.5192 35.7188L23.5857 36.1212L23.988 35.0547Z" fill="black"/>
<path d="M27.1873 36.2618L26.1209 35.8595L25.7185 36.9259L26.785 37.3283L27.1873 36.2618Z" fill="black"/>
<path d="M29.3202 37.0666L28.2538 36.6642L27.8514 37.7306L28.9178 38.133L29.3202 37.0666Z" fill="black"/>
<path d="M31.4531 37.8713L30.3866 37.4689L29.9843 38.5354L31.0507 38.9377L31.4531 37.8713Z" fill="black"/>
<path d="M36.7852 39.8831L35.7188 39.4807L35.3164 40.5472L36.3828 40.9495L36.7852 39.8831Z" fill="black"/>
<path d="M38.9181 40.6878L37.8516 40.2855L37.4493 41.3519L38.5157 41.7543L38.9181 40.6878Z" fill="black"/>
<path d="M39.9845 41.0902L38.9181 40.6878L38.5157 41.7543L39.5821 42.1566L39.9845 41.0902Z" fill="black"/>
<path d="M43.1838 42.2973L42.1174 41.8949L41.715 42.9614L42.7814 43.3637L43.1838 42.2973Z" fill="black"/>
<path d="M44.2502 42.6997L43.1838 42.2973L42.7814 43.3637L43.8479 43.7661L44.2502 42.6997Z" fill="black"/>
<path d="M46.3831 43.5044L45.3167 43.102L44.9143 44.1685L45.9807 44.5708L46.3831 43.5044Z" fill="black"/>
<path d="M48.516 44.3091L47.4495 43.9068L47.0472 44.9732L48.1136 45.3756L48.516 44.3091Z" fill="black"/>
<path d="M9.72207 30.8904L8.65563 30.4881L8.25327 31.5545L9.3197 31.9569L9.72207 30.8904Z" fill="black"/>
<path d="M10.7885 31.2928L9.72207 30.8904L9.3197 31.9569L10.3861 32.3592L10.7885 31.2928Z" fill="black"/>
<path d="M11.8549 31.6952L10.7885 31.2928L10.3861 32.3592L11.4526 32.7616L11.8549 31.6952Z" fill="black"/>
<path d="M12.9214 32.0975L11.8549 31.6952L11.4526 32.7616L12.519 33.164L12.9214 32.0975Z" fill="black"/>
<path d="M13.9878 32.4999L12.9214 32.0975L12.519 33.164L13.5854 33.5663L13.9878 32.4999Z" fill="black"/>
<path d="M17.1871 33.707L16.1207 33.3046L15.7183 34.371L16.7847 34.7734L17.1871 33.707Z" fill="black"/>
<path d="M24.6521 36.5235L23.5857 36.1212L23.1833 37.1876L24.2497 37.59L24.6521 36.5235Z" fill="black"/>
<path d="M26.785 37.3283L25.7185 36.9259L25.3162 37.9923L26.3826 38.3947L26.785 37.3283Z" fill="black"/>
<path d="M29.9843 38.5354L28.9178 38.133L28.5155 39.1994L29.5819 39.6018L29.9843 38.5354Z" fill="black"/>
<path d="M36.3828 40.9495L35.3164 40.5472L34.914 41.6136L35.9805 42.016L36.3828 40.9495Z" fill="black"/>
<path d="M37.4493 41.3519L36.3828 40.9495L35.9805 42.016L37.0469 42.4183L37.4493 41.3519Z" fill="black"/>
<path d="M39.5821 42.1566L38.5157 41.7543L38.1133 42.8207L39.1798 43.2231L39.5821 42.1566Z" fill="black"/>
<path d="M42.7814 43.3637L41.715 42.9614L41.3126 44.0278L42.3791 44.4302L42.7814 43.3637Z" fill="black"/>
<path d="M43.8479 43.7661L42.7814 43.3637L42.3791 44.4302L43.4455 44.8325L43.8479 43.7661Z" fill="black"/>
<path d="M44.9143 44.1685L43.8479 43.7661L43.4455 44.8325L44.5119 45.2349L44.9143 44.1685Z" fill="black"/>
<path d="M45.9807 44.5708L44.9143 44.1685L44.5119 45.2349L45.5784 45.6373L45.9807 44.5708Z" fill="black"/>
<path d="M15.7183 34.371L14.6519 33.9687L14.2495 35.0351L15.3159 35.4375L15.7183 34.371Z" fill="black"/>
<path d="M16.7847 34.7734L15.7183 34.371L15.3159 35.4375L16.3824 35.8398L16.7847 34.7734Z" fill="black"/>
<path d="M21.0504 36.3829L19.984 35.9805L19.5816 37.0469L20.6481 37.4493L21.0504 36.3829Z" fill="black"/>
<path d="M23.1833 37.1876L22.1169 36.7852L21.7145 37.8517L22.7809 38.254L23.1833 37.1876Z" fill="black"/>
<path d="M24.2497 37.59L23.1833 37.1876L22.7809 38.254L23.8474 38.6564L24.2497 37.59Z" fill="black"/>
<path d="M26.3826 38.3947L25.3162 37.9923L24.9138 39.0588L25.9802 39.4611L26.3826 38.3947Z" fill="black"/>
<path d="M27.449 38.7971L26.3826 38.3947L25.9802 39.4611L27.0467 39.8635L27.449 38.7971Z" fill="black"/>
<path d="M28.5155 39.1994L27.449 38.7971L27.0467 39.8635L28.1131 40.2659L28.5155 39.1994Z" fill="black"/>
<path d="M29.5819 39.6018L28.5155 39.1994L28.1131 40.2659L29.1795 40.6682L29.5819 39.6018Z" fill="black"/>
<path d="M30.6483 40.0041L29.5819 39.6018L29.1795 40.6682L30.246 41.0706L30.6483 40.0041Z" fill="black"/>
<path d="M31.7148 40.4065L30.6483 40.0041L30.246 41.0706L31.3124 41.4729L31.7148 40.4065Z" fill="black"/>
<path d="M32.7812 40.8089L31.7148 40.4065L31.3124 41.4729L32.3788 41.8753L32.7812 40.8089Z" fill="black"/>
<path d="M33.8476 41.2112L32.7812 40.8089L32.3788 41.8753L33.4453 42.2777L33.8476 41.2112Z" fill="black"/>
<path d="M34.914 41.6136L33.8476 41.2112L33.4453 42.2777L34.5117 42.68L34.914 41.6136Z" fill="black"/>
<path d="M37.0469 42.4183L35.9805 42.016L35.5781 43.0824L36.6445 43.4848L37.0469 42.4183Z" fill="black"/>
<path d="M39.1798 43.2231L38.1133 42.8207L37.711 43.8871L38.7774 44.2895L39.1798 43.2231Z" fill="black"/>
<path d="M44.5119 45.2349L43.4455 44.8325L43.0431 45.899L44.1096 46.3013L44.5119 45.2349Z" fill="black"/>
<path d="M11.0502 33.828L9.98377 33.4257L9.5814 34.4921L10.6478 34.8945L11.0502 33.828Z" fill="black"/>
<path d="M17.4488 36.2422L16.3824 35.8398L15.98 36.9063L17.0464 37.3086L17.4488 36.2422Z" fill="black"/>
<path d="M18.5152 36.6446L17.4488 36.2422L17.0464 37.3086L18.1129 37.711L18.5152 36.6446Z" fill="black"/>
<path d="M19.5816 37.0469L18.5152 36.6446L18.1129 37.711L19.1793 38.1134L19.5816 37.0469Z" fill="black"/>
<path d="M21.7145 37.8517L20.6481 37.4493L20.2457 38.5157L21.3121 38.9181L21.7145 37.8517Z" fill="black"/>
<path d="M22.7809 38.254L21.7145 37.8517L21.3121 38.9181L22.3786 39.3205L22.7809 38.254Z" fill="black"/>
<path d="M23.8474 38.6564L22.7809 38.254L22.3786 39.3205L23.445 39.7228L23.8474 38.6564Z" fill="black"/>
<path d="M24.9138 39.0588L23.8474 38.6564L23.445 39.7228L24.5114 40.1252L24.9138 39.0588Z" fill="black"/>
<path d="M27.0467 39.8635L25.9802 39.4611L25.5779 40.5276L26.6443 40.9299L27.0467 39.8635Z" fill="black"/>
<path d="M28.1131 40.2659L27.0467 39.8635L26.6443 40.9299L27.7107 41.3323L28.1131 40.2659Z" fill="black"/>
<path d="M29.1795 40.6682L28.1131 40.2659L27.7107 41.3323L28.7772 41.7346L29.1795 40.6682Z" fill="black"/>
<path d="M31.3124 41.4729L30.246 41.0706L29.8436 42.137L30.91 42.5394L31.3124 41.4729Z" fill="black"/>
<path d="M32.3788 41.8753L31.3124 41.4729L30.91 42.5394L31.9765 42.9417L32.3788 41.8753Z" fill="black"/>
<path d="M35.5781 43.0824L34.5117 42.68L34.1093 43.7465L35.1758 44.1488L35.5781 43.0824Z" fill="black"/>
<path d="M36.6445 43.4848L35.5781 43.0824L35.1758 44.1488L36.2422 44.5512L36.6445 43.4848Z" fill="black"/>
<path d="M39.8438 44.6919L38.7774 44.2895L38.375 45.3559L39.4415 45.7583L39.8438 44.6919Z" fill="black"/>
<path d="M41.9767 45.4966L40.9103 45.0942L40.5079 46.1607L41.5743 46.563L41.9767 45.4966Z" fill="black"/>
<path d="M43.0431 45.899L41.9767 45.4966L41.5743 46.563L42.6408 46.9654L43.0431 45.899Z" fill="black"/>
<path d="M9.5814 34.4921L8.51497 34.0897L8.11261 35.1562L9.17904 35.5585L9.5814 34.4921Z" fill="black"/>
<path d="M12.7807 35.6992L11.7143 35.2968L11.3119 36.3632L12.3783 36.7656L12.7807 35.6992Z" fill="black"/>
<path d="M14.9136 36.5039L13.8471 36.1015L13.4448 37.168L14.5112 37.5703L14.9136 36.5039Z" fill="black"/>
<path d="M15.98 36.9063L14.9136 36.5039L14.5112 37.5703L15.5776 37.9727L15.98 36.9063Z" fill="black"/>
<path d="M17.0464 37.3086L15.98 36.9063L15.5776 37.9727L16.6441 38.3751L17.0464 37.3086Z" fill="black"/>
<path d="M22.3786 39.3205L21.3121 38.9181L20.9098 39.9845L21.9762 40.3869L22.3786 39.3205Z" fill="black"/>
<path d="M27.7107 41.3323L26.6443 40.9299L26.2419 41.9964L27.3084 42.3987L27.7107 41.3323Z" fill="black"/>
<path d="M28.7772 41.7346L27.7107 41.3323L27.3084 42.3987L28.3748 42.8011L28.7772 41.7346Z" fill="black"/>
<path d="M29.8436 42.137L28.7772 41.7346L28.3748 42.8011L29.4412 43.2034L29.8436 42.137Z" fill="black"/>
<path d="M31.9765 42.9417L30.91 42.5394L30.5077 43.6058L31.5741 44.0082L31.9765 42.9417Z" fill="black"/>
<path d="M33.0429 43.3441L31.9765 42.9417L31.5741 44.0082L32.6405 44.4105L33.0429 43.3441Z" fill="black"/>
<path d="M34.1093 43.7465L33.0429 43.3441L32.6405 44.4105L33.707 44.8129L34.1093 43.7465Z" fill="black"/>
<path d="M35.1758 44.1488L34.1093 43.7465L33.707 44.8129L34.7734 45.2153L35.1758 44.1488Z" fill="black"/>
<path d="M37.3086 44.9536L36.2422 44.5512L35.8398 45.6176L36.9062 46.02L37.3086 44.9536Z" fill="black"/>
<path d="M38.375 45.3559L37.3086 44.9536L36.9062 46.02L37.9727 46.4224L38.375 45.3559Z" fill="black"/>
<path d="M39.4415 45.7583L38.375 45.3559L37.9727 46.4224L39.0391 46.8247L39.4415 45.7583Z" fill="black"/>
<path d="M40.5079 46.1607L39.4415 45.7583L39.0391 46.8247L40.1055 47.2271L40.5079 46.1607Z" fill="black"/>
<path d="M41.5743 46.563L40.5079 46.1607L40.1055 47.2271L41.172 47.6295L41.5743 46.563Z" fill="black"/>
<path d="M42.6408 46.9654L41.5743 46.563L41.172 47.6295L42.2384 48.0318L42.6408 46.9654Z" fill="black"/>
<path d="M44.7736 47.7701L43.7072 47.3678L43.3048 48.4342L44.3713 48.8365L44.7736 47.7701Z" fill="black"/>
<path d="M46.9065 48.5748L45.8401 48.1725L45.4377 49.2389L46.5041 49.6413L46.9065 48.5748Z" fill="black"/>
<path d="M16.6441 38.3751L15.5776 37.9727L15.1753 39.0391L16.2417 39.4415L16.6441 38.3751Z" fill="black"/>
<path d="M21.9762 40.3869L20.9098 39.9845L20.5074 41.051L21.5738 41.4533L21.9762 40.3869Z" fill="black"/>
<path d="M23.0426 40.7893L21.9762 40.3869L21.5738 41.4533L22.6403 41.8557L23.0426 40.7893Z" fill="black"/>
<path d="M24.1091 41.1916L23.0426 40.7893L22.6403 41.8557L23.7067 42.2581L24.1091 41.1916Z" fill="black"/>
<path d="M26.2419 41.9964L25.1755 41.594L24.7731 42.6604L25.8396 43.0628L26.2419 41.9964Z" fill="black"/>
<path d="M28.3748 42.8011L27.3084 42.3987L26.906 43.4651L27.9724 43.8675L28.3748 42.8011Z" fill="black"/>
<path d="M29.4412 43.2034L28.3748 42.8011L27.9724 43.8675L29.0389 44.2699L29.4412 43.2034Z" fill="black"/>
<path d="M30.5077 43.6058L29.4412 43.2034L29.0389 44.2699L30.1053 44.6722L30.5077 43.6058Z" fill="black"/>
<path d="M33.707 44.8129L32.6405 44.4105L32.2382 45.477L33.3046 45.8793L33.707 44.8129Z" fill="black"/>
<path d="M35.8398 45.6176L34.7734 45.2153L34.371 46.2817L35.4375 46.6841L35.8398 45.6176Z" fill="black"/>
<path d="M36.9062 46.02L35.8398 45.6176L35.4375 46.6841L36.5039 47.0864L36.9062 46.02Z" fill="black"/>
<path d="M37.9727 46.4224L36.9062 46.02L36.5039 47.0864L37.5703 47.4888L37.9727 46.4224Z" fill="black"/>
<path d="M42.2384 48.0318L41.172 47.6295L40.7696 48.6959L41.836 49.0982L42.2384 48.0318Z" fill="black"/>
<path d="M44.3713 48.8365L43.3048 48.4342L42.9025 49.5006L43.9689 49.903L44.3713 48.8365Z" fill="black"/>
<path d="M46.5041 49.6413L45.4377 49.2389L45.0353 50.3053L46.1018 50.7077L46.5041 49.6413Z" fill="black"/>
<path d="M7.71024 36.2226L6.64381 35.8202L6.24145 36.8867L7.30788 37.289L7.71024 36.2226Z" fill="black"/>
<path d="M8.77668 36.6249L7.71024 36.2226L7.30788 37.289L8.37431 37.6914L8.77668 36.6249Z" fill="black"/>
<path d="M9.84311 37.0273L8.77668 36.6249L8.37431 37.6914L9.44074 38.0937L9.84311 37.0273Z" fill="black"/>
<path d="M10.9095 37.4297L9.84311 37.0273L9.44074 38.0937L10.5072 38.4961L10.9095 37.4297Z" fill="black"/>
<path d="M11.976 37.832L10.9095 37.4297L10.5072 38.4961L11.5736 38.8985L11.976 37.832Z" fill="black"/>
<path d="M13.0424 38.2344L11.976 37.832L11.5736 38.8985L12.64 39.3008L13.0424 38.2344Z" fill="black"/>
<path d="M14.1088 38.6368L13.0424 38.2344L12.64 39.3008L13.7065 39.7032L14.1088 38.6368Z" fill="black"/>
<path d="M17.3081 39.8439L16.2417 39.4415L15.8393 40.5079L16.9058 40.9103L17.3081 39.8439Z" fill="black"/>
<path d="M18.3746 40.2462L17.3081 39.8439L16.9058 40.9103L17.9722 41.3127L18.3746 40.2462Z" fill="black"/>
<path d="M20.5074 41.051L19.441 40.6486L19.0386 41.715L20.1051 42.1174L20.5074 41.051Z" fill="black"/>
<path d="M23.7067 42.2581L22.6403 41.8557L22.2379 42.9221L23.3043 43.3245L23.7067 42.2581Z" fill="black"/>
<path d="M24.7731 42.6604L23.7067 42.2581L23.3043 43.3245L24.3708 43.7268L24.7731 42.6604Z" fill="black"/>
<path d="M25.8396 43.0628L24.7731 42.6604L24.3708 43.7268L25.4372 44.1292L25.8396 43.0628Z" fill="black"/>
<path d="M26.906 43.4651L25.8396 43.0628L25.4372 44.1292L26.5036 44.5316L26.906 43.4651Z" fill="black"/>
<path d="M29.0389 44.2699L27.9724 43.8675L27.5701 44.9339L28.6365 45.3363L29.0389 44.2699Z" fill="black"/>
<path d="M32.2382 45.477L31.1717 45.0746L30.7694 46.141L31.8358 46.5434L32.2382 45.477Z" fill="black"/>
<path d="M33.3046 45.8793L32.2382 45.477L31.8358 46.5434L32.9022 46.9458L33.3046 45.8793Z" fill="black"/>
<path d="M35.4375 46.6841L34.371 46.2817L33.9687 47.3481L35.0351 47.7505L35.4375 46.6841Z" fill="black"/>
<path d="M37.5703 47.4888L36.5039 47.0864L36.1015 48.1529L37.168 48.5552L37.5703 47.4888Z" fill="black"/>
<path d="M39.7032 48.2935L38.6367 47.8912L38.2344 48.9576L39.3008 49.3599L39.7032 48.2935Z" fill="black"/>
<path d="M41.836 49.0982L40.7696 48.6959L40.3672 49.7623L41.4337 50.1647L41.836 49.0982Z" fill="black"/>
<path d="M42.9025 49.5006L41.836 49.0982L41.4337 50.1647L42.5001 50.567L42.9025 49.5006Z" fill="black"/>
<path d="M45.0353 50.3053L43.9689 49.903L43.5665 50.9694L44.633 51.3718L45.0353 50.3053Z" fill="black"/>
<path d="M7.30788 37.289L6.24145 36.8867L5.83908 37.9531L6.90551 38.3554L7.30788 37.289Z" fill="black"/>
<path d="M13.7065 39.7032L12.64 39.3008L12.2377 40.3673L13.3041 40.7696L13.7065 39.7032Z" fill="black"/>
<path d="M16.9058 40.9103L15.8393 40.5079L15.437 41.5744L16.5034 41.9767L16.9058 40.9103Z" fill="black"/>
<path d="M19.0386 41.715L17.9722 41.3127L17.5698 42.3791L18.6363 42.7815L19.0386 41.715Z" fill="black"/>
<path d="M23.3043 43.3245L22.2379 42.9221L21.8356 43.9886L22.902 44.3909L23.3043 43.3245Z" fill="black"/>
<path d="M25.4372 44.1292L24.3708 43.7268L23.9684 44.7933L25.0348 45.1956L25.4372 44.1292Z" fill="black"/>
<path d="M26.5036 44.5316L25.4372 44.1292L25.0348 45.1956L26.1013 45.598L26.5036 44.5316Z" fill="black"/>
<path d="M27.5701 44.9339L26.5036 44.5316L26.1013 45.598L27.1677 46.0004L27.5701 44.9339Z" fill="black"/>
<path d="M28.6365 45.3363L27.5701 44.9339L27.1677 46.0004L28.2341 46.4027L28.6365 45.3363Z" fill="black"/>
<path d="M30.7694 46.141L29.7029 45.7387L29.3006 46.8051L30.367 47.2075L30.7694 46.141Z" fill="black"/>
<path d="M31.8358 46.5434L30.7694 46.141L30.367 47.2075L31.4334 47.6098L31.8358 46.5434Z" fill="black"/>
<path d="M36.1015 48.1529L35.0351 47.7505L34.6327 48.8169L35.6992 49.2193L36.1015 48.1529Z" fill="black"/>
<path d="M37.168 48.5552L36.1015 48.1529L35.6992 49.2193L36.7656 49.6217L37.168 48.5552Z" fill="black"/>
<path d="M41.4337 50.1647L40.3672 49.7623L39.9649 50.8287L41.0313 51.2311L41.4337 50.1647Z" fill="black"/>
<path d="M45.6994 51.7741L44.633 51.3718L44.2306 52.4382L45.297 52.8406L45.6994 51.7741Z" fill="black"/>
<path d="M6.90551 38.3554L5.83908 37.9531L5.43672 39.0195L6.50315 39.4219L6.90551 38.3554Z" fill="black"/>
<path d="M9.03838 39.1602L7.97195 38.7578L7.56958 39.8242L8.63601 40.2266L9.03838 39.1602Z" fill="black"/>
<path d="M10.1048 39.5625L9.03838 39.1602L8.63601 40.2266L9.70244 40.629L10.1048 39.5625Z" fill="black"/>
<path d="M11.1712 39.9649L10.1048 39.5625L9.70244 40.629L10.7689 41.0313L11.1712 39.9649Z" fill="black"/>
<path d="M13.3041 40.7696L12.2377 40.3673L11.8353 41.4337L12.9017 41.8361L13.3041 40.7696Z" fill="black"/>
<path d="M15.437 41.5744L14.3705 41.172L13.9682 42.2384L15.0346 42.6408L15.437 41.5744Z" fill="black"/>
<path d="M16.5034 41.9767L15.437 41.5744L15.0346 42.6408L16.101 43.0432L16.5034 41.9767Z" fill="black"/>
<path d="M17.5698 42.3791L16.5034 41.9767L16.101 43.0432L17.1675 43.4455L17.5698 42.3791Z" fill="black"/>
<path d="M20.7691 43.5862L19.7027 43.1838L19.3003 44.2503L20.3668 44.6526L20.7691 43.5862Z" fill="black"/>
<path d="M21.8356 43.9886L20.7691 43.5862L20.3668 44.6526L21.4332 45.055L21.8356 43.9886Z" fill="black"/>
<path d="M23.9684 44.7933L22.902 44.3909L22.4996 45.4573L23.566 45.8597L23.9684 44.7933Z" fill="black"/>
<path d="M27.1677 46.0004L26.1013 45.598L25.6989 46.6644L26.7653 47.0668L27.1677 46.0004Z" fill="black"/>
<path d="M28.2341 46.4027L27.1677 46.0004L26.7653 47.0668L27.8318 47.4692L28.2341 46.4027Z" fill="black"/>
<path d="M29.3006 46.8051L28.2341 46.4027L27.8318 47.4692L28.8982 47.8715L29.3006 46.8051Z" fill="black"/>
<path d="M31.4334 47.6098L30.367 47.2075L29.9646 48.2739L31.0311 48.6763L31.4334 47.6098Z" fill="black"/>
<path d="M32.4999 48.0122L31.4334 47.6098L31.0311 48.6763L32.0975 49.0786L32.4999 48.0122Z" fill="black"/>
<path d="M33.5663 48.4146L32.4999 48.0122L32.0975 49.0786L33.1639 49.481L33.5663 48.4146Z" fill="black"/>
<path d="M36.7656 49.6217L35.6992 49.2193L35.2968 50.2857L36.3632 50.6881L36.7656 49.6217Z" fill="black"/>
<path d="M37.832 50.024L36.7656 49.6217L36.3632 50.6881L37.4297 51.0904L37.832 50.024Z" fill="black"/>
<path d="M38.8984 50.4264L37.832 50.024L37.4297 51.0904L38.4961 51.4928L38.8984 50.4264Z" fill="black"/>
<path d="M39.9649 50.8287L38.8984 50.4264L38.4961 51.4928L39.5625 51.8952L39.9649 50.8287Z" fill="black"/>
<path d="M41.0313 51.2311L39.9649 50.8287L39.5625 51.8952L40.6289 52.2975L41.0313 51.2311Z" fill="black"/>
<path d="M43.1642 52.0358L42.0977 51.6335L41.6954 52.6999L42.7618 53.1023L43.1642 52.0358Z" fill="black"/>
<path d="M44.2306 52.4382L43.1642 52.0358L42.7618 53.1023L43.8282 53.5046L44.2306 52.4382Z" fill="black"/>
<path d="M6.50315 39.4219L5.43672 39.0195L5.03435 40.0859L6.10078 40.4883L6.50315 39.4219Z" fill="black"/>
<path d="M8.63601 40.2266L7.56958 39.8242L7.16722 40.8907L8.23365 41.293L8.63601 40.2266Z" fill="black"/>
<path d="M9.70244 40.629L8.63601 40.2266L8.23365 41.293L9.30008 41.6954L9.70244 40.629Z" fill="black"/>
<path d="M10.7689 41.0313L9.70244 40.629L9.30008 41.6954L10.3665 42.0978L10.7689 41.0313Z" fill="black"/>
<path d="M12.9017 41.8361L11.8353 41.4337L11.4329 42.5001L12.4994 42.9025L12.9017 41.8361Z" fill="black"/>
<path d="M16.101 43.0432L15.0346 42.6408L14.6322 43.7072L15.6987 44.1096L16.101 43.0432Z" fill="black"/>
<path d="M17.1675 43.4455L16.101 43.0432L15.6987 44.1096L16.7651 44.512L17.1675 43.4455Z" fill="black"/>
<path d="M18.2339 43.8479L17.1675 43.4455L16.7651 44.512L17.8315 44.9143L18.2339 43.8479Z" fill="black"/>
<path d="M19.3003 44.2503L18.2339 43.8479L17.8315 44.9143L18.898 45.3167L19.3003 44.2503Z" fill="black"/>
<path d="M20.3668 44.6526L19.3003 44.2503L18.898 45.3167L19.9644 45.719L20.3668 44.6526Z" fill="black"/>
<path d="M21.4332 45.055L20.3668 44.6526L19.9644 45.719L21.0308 46.1214L21.4332 45.055Z" fill="black"/>
<path d="M22.4996 45.4573L21.4332 45.055L21.0308 46.1214L22.0973 46.5238L22.4996 45.4573Z" fill="black"/>
<path d="M26.7653 47.0668L25.6989 46.6644L25.2965 47.7309L26.363 48.1332L26.7653 47.0668Z" fill="black"/>
<path d="M29.9646 48.2739L28.8982 47.8715L28.4958 48.938L29.5623 49.3403L29.9646 48.2739Z" fill="black"/>
<path d="M31.0311 48.6763L29.9646 48.2739L29.5623 49.3403L30.6287 49.7427L31.0311 48.6763Z" fill="black"/>
<path d="M35.2968 50.2857L34.2304 49.8834L33.828 50.9498L34.8944 51.3522L35.2968 50.2857Z" fill="black"/>
<path d="M41.6954 52.6999L40.6289 52.2975L40.2266 53.364L41.293 53.7663L41.6954 52.6999Z" fill="black"/>
<path d="M42.7618 53.1023L41.6954 52.6999L41.293 53.7663L42.3594 54.1687L42.7618 53.1023Z" fill="black"/>
<path d="M6.10078 40.4883L5.03435 40.0859L4.63199 41.1524L5.69842 41.5547L6.10078 40.4883Z" fill="black"/>
<path d="M8.23365 41.293L7.16722 40.8907L6.76485 41.9571L7.83128 42.3595L8.23365 41.293Z" fill="black"/>
<path d="M9.30008 41.6954L8.23365 41.293L7.83128 42.3595L8.89771 42.7618L9.30008 41.6954Z" fill="black"/>
<path d="M10.3665 42.0978L9.30008 41.6954L8.89771 42.7618L9.96415 43.1642L10.3665 42.0978Z" fill="black"/>
<path d="M12.4994 42.9025L11.4329 42.5001L11.0306 43.5666L12.097 43.9689L12.4994 42.9025Z" fill="black"/>
<path d="M14.6322 43.7072L13.5658 43.3049L13.1634 44.3713L14.2299 44.7737L14.6322 43.7072Z" fill="black"/>
<path d="M17.8315 44.9143L16.7651 44.512L16.3627 45.5784L17.4292 45.9807L17.8315 44.9143Z" fill="black"/>
<path d="M21.0308 46.1214L19.9644 45.719L19.562 46.7855L20.6285 47.1878L21.0308 46.1214Z" fill="black"/>
<path d="M22.0973 46.5238L21.0308 46.1214L20.6285 47.1878L21.6949 47.5902L22.0973 46.5238Z" fill="black"/>
<path d="M23.1637 46.9261L22.0973 46.5238L21.6949 47.5902L22.7613 47.9926L23.1637 46.9261Z" fill="black"/>
<path d="M25.2965 47.7309L24.2301 47.3285L23.8278 48.3949L24.8942 48.7973L25.2965 47.7309Z" fill="black"/>
<path d="M28.4958 48.938L27.4294 48.5356L27.027 49.602L28.0935 50.0044L28.4958 48.938Z" fill="black"/>
<path d="M30.6287 49.7427L29.5623 49.3403L29.1599 50.4068L30.2263 50.8091L30.6287 49.7427Z" fill="black"/>
<path d="M34.8944 51.3522L33.828 50.9498L33.4256 52.0162L34.4921 52.4186L34.8944 51.3522Z" fill="black"/>
<path d="M35.9609 51.7545L34.8944 51.3522L34.4921 52.4186L35.5585 52.8209L35.9609 51.7545Z" fill="black"/>
<path d="M37.0273 52.1569L35.9609 51.7545L35.5585 52.8209L36.6249 53.2233L37.0273 52.1569Z" fill="black"/>
<path d="M41.293 53.7663L40.2266 53.364L39.8242 54.4304L40.8907 54.8328L41.293 53.7663Z" fill="black"/>
<path d="M43.4259 54.5711L42.3594 54.1687L41.9571 55.2351L43.0235 55.6375L43.4259 54.5711Z" fill="black"/>
<path d="M5.69842 41.5547L4.63199 41.1524L4.22963 42.2188L5.29606 42.6212L5.69842 41.5547Z" fill="black"/>
<path d="M12.097 43.9689L11.0306 43.5666L10.6282 44.633L11.6946 45.0354L12.097 43.9689Z" fill="black"/>
<path d="M14.2299 44.7737L13.1634 44.3713L12.7611 45.4377L13.8275 45.8401L14.2299 44.7737Z" fill="black"/>
<path d="M15.2963 45.176L14.2299 44.7737L13.8275 45.8401L14.8939 46.2425L15.2963 45.176Z" fill="black"/>
<path d="M17.4292 45.9807L16.3627 45.5784L15.9604 46.6448L17.0268 47.0472L17.4292 45.9807Z" fill="black"/>
<path d="M20.6285 47.1878L19.562 46.7855L19.1597 47.8519L20.2261 48.2543L20.6285 47.1878Z" fill="black"/>
<path d="M29.1599 50.4068L28.0935 50.0044L27.6911 51.0708L28.7575 51.4732L29.1599 50.4068Z" fill="black"/>
<path d="M31.2928 51.2115L30.2263 50.8091L29.824 51.8756L30.8904 52.2779L31.2928 51.2115Z" fill="black"/>
<path d="M33.4256 52.0162L32.3592 51.6139L31.9568 52.6803L33.0233 53.0826L33.4256 52.0162Z" fill="black"/>
<path d="M36.6249 53.2233L35.5585 52.8209L35.1561 53.8874L36.2226 54.2897L36.6249 53.2233Z" fill="black"/>
<path d="M40.8907 54.8328L39.8242 54.4304L39.4219 55.4968L40.4883 55.8992L40.8907 54.8328Z" fill="black"/>
<path d="M41.9571 55.2351L40.8907 54.8328L40.4883 55.8992L41.5547 56.3016L41.9571 55.2351Z" fill="black"/>
<path d="M43.0235 55.6375L41.9571 55.2351L41.5547 56.3016L42.6211 56.7039L43.0235 55.6375Z" fill="black"/>
<path d="M5.29606 42.6212L4.22963 42.2188L3.82726 43.2852L4.89369 43.6876L5.29606 42.6212Z" fill="black"/>
<path d="M6.36249 43.0235L5.29606 42.6212L4.89369 43.6876L5.96012 44.09L6.36249 43.0235Z" fill="black"/>
<path d="M7.42892 43.4259L6.36249 43.0235L5.96012 44.09L7.02655 44.4923L7.42892 43.4259Z" fill="black"/>
<path d="M8.49535 43.8283L7.42892 43.4259L7.02655 44.4923L8.09299 44.8947L8.49535 43.8283Z" fill="black"/>
<path d="M9.56178 44.2306L8.49535 43.8283L8.09299 44.8947L9.15942 45.2971L9.56178 44.2306Z" fill="black"/>
<path d="M10.6282 44.633L9.56178 44.2306L9.15942 45.2971L10.2258 45.6994L10.6282 44.633Z" fill="black"/>
<path d="M11.6946 45.0354L10.6282 44.633L10.2258 45.6994L11.2923 46.1018L11.6946 45.0354Z" fill="black"/>
<path d="M13.8275 45.8401L12.7611 45.4377L12.3587 46.5042L13.4251 46.9065L13.8275 45.8401Z" fill="black"/>
<path d="M15.9604 46.6448L14.8939 46.2425L14.4916 47.3089L15.558 47.7112L15.9604 46.6448Z" fill="black"/>
<path d="M17.0268 47.0472L15.9604 46.6448L15.558 47.7112L16.6244 48.1136L17.0268 47.0472Z" fill="black"/>
<path d="M18.0932 47.4495L17.0268 47.0472L16.6244 48.1136L17.6909 48.516L18.0932 47.4495Z" fill="black"/>
<path d="M20.2261 48.2543L19.1597 47.8519L18.7573 48.9183L19.8237 49.3207L20.2261 48.2543Z" fill="black"/>
<path d="M22.359 49.059L21.2925 48.6566L20.8902 49.7231L21.9566 50.1254L22.359 49.059Z" fill="black"/>
<path d="M24.4918 49.8637L23.4254 49.4614L23.023 50.5278L24.0895 50.9302L24.4918 49.8637Z" fill="black"/>
<path d="M25.5583 50.2661L24.4918 49.8637L24.0895 50.9302L25.1559 51.3325L25.5583 50.2661Z" fill="black"/>
<path d="M28.7575 51.4732L27.6911 51.0708L27.2887 52.1373L28.3552 52.5396L28.7575 51.4732Z" fill="black"/>
<path d="M33.0233 53.0826L31.9568 52.6803L31.5545 53.7467L32.6209 54.1491L33.0233 53.0826Z" fill="black"/>
<path d="M37.289 54.6921L36.2226 54.2897L35.8202 55.3562L36.8866 55.7585L37.289 54.6921Z" fill="black"/>
<path d="M38.3554 55.0945L37.289 54.6921L36.8866 55.7585L37.9531 56.1609L38.3554 55.0945Z" fill="black"/>
<path d="M39.4219 55.4968L38.3554 55.0945L37.9531 56.1609L39.0195 56.5633L39.4219 55.4968Z" fill="black"/>
<path d="M41.5547 56.3016L40.4883 55.8992L40.0859 56.9656L41.1523 57.368L41.5547 56.3016Z" fill="black"/>
<path d="M42.6211 56.7039L41.5547 56.3016L41.1523 57.368L42.2188 57.7704L42.6211 56.7039Z" fill="black"/>
<path d="M43.6876 57.1063L42.6211 56.7039L42.2188 57.7704L43.2852 58.1727L43.6876 57.1063Z" fill="black"/>
</g>
<defs>
<clipPath id="clip0_6_70">
<rect width="47.5349" height="47.5349" fill="white" transform="translate(16.8397) scale(1.01394) rotate(20.4499)"/>
</clipPath>
</defs>
</svg>
