<svg width="234" height="138" viewBox="0 0 234 138" fill="none" xmlns="http://www.w3.org/2000/svg">
<path d="M204.402 -8.11884e-07L90.4436 22.8667C89.7253 23.0104 89.0694 23.3733 88.567 23.9049C88.0646 24.4366 87.7406 25.1106 87.64 25.8334C87.4364 27.3127 86.7752 28.6927 85.7484 29.7815C84.7215 30.8704 83.3801 31.614 81.9106 31.9088C80.4411 32.2037 78.9166 32.0352 77.5492 31.4268C76.1817 30.8184 75.0393 29.8002 74.2809 28.5141C73.9099 27.8885 73.3533 27.3932 72.6875 27.0962C72.0218 26.7992 71.2797 26.7153 70.5634 26.8558L9.76794 39.0549C10.0882 40.6511 10.0896 42.295 9.77205 43.8927C9.45448 45.4905 8.82416 47.0108 7.9171 48.3668C7.01003 49.7228 5.84398 50.8879 4.48555 51.7957C3.12711 52.7035 1.60289 53.3361 -5.84234e-05 53.6575L14.9621 128.222C16.5649 127.901 18.2152 127.896 19.8187 128.21C21.4221 128.523 22.9474 129.148 24.3074 130.049C25.6674 130.95 26.8354 132.11 27.7448 133.461C28.6541 134.813 29.287 136.33 29.6073 137.926L90.4028 125.727C91.1212 125.584 91.7773 125.221 92.2797 124.689C92.7822 124.158 93.1061 123.483 93.2063 122.76C93.4099 121.281 94.0711 119.901 95.0979 118.812C96.1248 117.723 97.4663 116.98 98.9358 116.685C100.405 116.39 101.93 116.559 103.297 117.167C104.665 117.775 105.807 118.794 106.565 120.08C106.936 120.706 107.493 121.201 108.159 121.498C108.824 121.795 109.567 121.879 110.283 121.738L224.234 98.8726C223.914 97.2767 223.913 95.633 224.23 94.0354C224.547 92.4379 225.178 90.9177 226.084 89.5618C226.991 88.2059 228.157 87.0407 229.515 86.1328C230.873 85.225 232.397 84.5922 234 84.2706L219.038 9.70561C215.802 10.3531 212.442 9.69441 209.698 7.87441C206.953 6.05441 205.048 3.22205 204.402 -8.11884e-07ZM82.0381 35.5492C82.017 35.47 82.0124 35.3874 82.0246 35.3063C82.0368 35.2252 82.0656 35.1475 82.1091 35.0778C82.1526 35.0082 82.21 34.9482 82.2776 34.9014C82.3453 34.8546 82.4218 34.8222 82.5025 34.806C82.5832 34.7898 82.6663 34.7902 82.7468 34.8073C82.8273 34.8243 82.9033 34.8576 82.9703 34.905C83.0373 34.9525 83.0939 35.0131 83.1364 35.0832C83.179 35.1533 83.2066 35.2313 83.2177 35.3125L84.5846 42.1242C84.6056 42.2034 84.6102 42.286 84.598 42.3671C84.5858 42.4482 84.557 42.5259 84.5135 42.5956C84.47 42.6652 84.4126 42.7252 84.345 42.772C84.2773 42.8188 84.2008 42.8512 84.1201 42.8674C84.0394 42.8836 83.9563 42.8832 83.8758 42.8661C83.7954 42.8491 83.7193 42.8158 83.6523 42.7684C83.5853 42.7209 83.5288 42.6603 83.4862 42.5902C83.4437 42.5201 83.416 42.4421 83.4049 42.3609L82.0381 35.5492ZM84.379 47.2154C84.3579 47.1362 84.3533 47.0535 84.3655 46.9724C84.3778 46.8914 84.4065 46.8136 84.45 46.744C84.4935 46.6743 84.5509 46.6143 84.6186 46.5675C84.6862 46.5208 84.7627 46.4883 84.8434 46.4721C84.9241 46.4559 85.0072 46.4564 85.0877 46.4734C85.1682 46.4904 85.2442 46.5237 85.3112 46.5712C85.3783 46.6186 85.4348 46.6793 85.4773 46.7493C85.5199 46.8194 85.5476 46.8975 85.5587 46.9787L86.9255 53.7903C86.9489 53.9063 86.9372 54.0267 86.8919 54.1362C86.8466 54.2457 86.7697 54.3394 86.671 54.4055C86.5722 54.4715 86.4561 54.5069 86.3372 54.5071C86.2184 54.5074 86.1022 54.4725 86.0034 54.4069C85.9371 54.364 85.8801 54.3083 85.8359 54.243C85.7916 54.1778 85.761 54.1043 85.7458 54.027L84.379 47.2154ZM86.7199 58.8815C86.6988 58.8023 86.6942 58.7196 86.7064 58.6386C86.7187 58.5575 86.7474 58.4797 86.7909 58.4101C86.8345 58.3405 86.8918 58.2804 86.9595 58.2337C87.0271 58.1869 87.1036 58.1544 87.1843 58.1383C87.265 58.1221 87.3482 58.1225 87.4286 58.1395C87.5091 58.1566 87.5852 58.1898 87.6522 58.2373C87.7192 58.2847 87.7757 58.3454 87.8182 58.4155C87.8608 58.4856 87.8885 58.5636 87.8996 58.6448L89.2664 65.4564C89.2898 65.5725 89.2781 65.6928 89.2328 65.8024C89.1875 65.9119 89.1106 66.0056 89.0119 66.0716C88.9131 66.1376 88.797 66.173 88.6781 66.1733C88.5593 66.1735 88.4431 66.1386 88.3443 66.073C88.278 66.0302 88.221 65.9744 88.1768 65.9092C88.1325 65.8439 88.1019 65.7705 88.0867 65.6931L86.7199 58.8815ZM89.0608 70.5476C89.0295 70.3916 89.0617 70.2294 89.1504 70.0968C89.2391 69.9642 89.377 69.872 89.5337 69.8406C89.6112 69.8247 89.6911 69.8245 89.7687 69.84C89.8462 69.8554 89.9198 69.8862 89.9851 69.9306C90.0508 69.974 90.1072 70.03 90.151 70.0953C90.1948 70.1606 90.2252 70.2339 90.2405 70.3109L91.6073 77.1226C91.6379 77.278 91.6055 77.4392 91.5173 77.5712C91.429 77.7031 91.292 77.795 91.1362 77.8269C90.98 77.8571 90.8183 77.8249 90.6858 77.7375C90.5532 77.65 90.4606 77.5142 90.4276 77.3593L89.0608 70.5476ZM91.4017 82.2138C91.3806 82.1346 91.3761 82.0519 91.3883 81.9708C91.4005 81.8898 91.4292 81.812 91.4728 81.7424C91.5163 81.6727 91.5736 81.6127 91.6413 81.5659C91.7089 81.5192 91.7855 81.4867 91.8662 81.4705C91.9468 81.4543 92.03 81.4548 92.1104 81.4718C92.1909 81.4888 92.267 81.5221 92.334 81.5696C92.401 81.617 92.4575 81.6777 92.5001 81.7477C92.5426 81.8178 92.5703 81.8959 92.5814 81.9771L93.9482 88.7887C93.9716 88.9047 93.9599 89.0251 93.9146 89.1346C93.8693 89.2441 93.7924 89.3378 93.6937 89.4039C93.5949 89.4699 93.4788 89.5053 93.36 89.5055C93.2411 89.5058 93.1249 89.4709 93.0261 89.4053C92.9598 89.3624 92.9029 89.3067 92.8586 89.2414C92.8144 89.1762 92.7837 89.1027 92.7685 89.0254L91.4017 82.2138ZM98.6296 112.119C98.6608 112.274 98.6288 112.436 98.5406 112.569C98.4524 112.701 98.3152 112.793 98.159 112.825C98.0023 112.856 97.8402 112.823 97.7075 112.735C97.5749 112.647 97.4823 112.511 97.4499 112.355L96.0831 105.544C96.062 105.465 96.0574 105.382 96.0696 105.301C96.0819 105.22 96.1106 105.142 96.1541 105.072C96.1976 105.003 96.255 104.943 96.3227 104.896C96.3903 104.849 96.4668 104.817 96.5475 104.801C96.6282 104.784 96.7114 104.785 96.7918 104.802C96.8723 104.819 96.9483 104.852 97.0154 104.9C97.0824 104.947 97.1389 105.008 97.1814 105.078C97.224 105.148 97.2517 105.226 97.2628 105.307L98.6296 112.119ZM96.2891 100.455C96.3125 100.571 96.3009 100.691 96.2556 100.801C96.2102 100.91 96.1333 101.004 96.0346 101.07C95.9359 101.136 95.8197 101.171 95.7009 101.172C95.582 101.172 95.4658 101.137 95.367 101.071L95.3453 101.057C95.2236 100.969 95.1394 100.839 95.1094 100.692L93.7426 93.8799C93.7194 93.7637 93.7312 93.6431 93.7766 93.5335C93.822 93.4238 93.8989 93.3299 93.9977 93.2637C94.0966 93.1975 94.2128 93.1618 94.3318 93.1613C94.4508 93.1607 94.5673 93.1953 94.6665 93.2606C94.7897 93.3422 94.8777 93.4668 94.9132 93.6098C94.9166 93.6209 94.9189 93.6322 94.92 93.6437L96.2891 100.455Z" fill="#4157FE"/>
</svg>
