<svg width="209" height="146" viewBox="0 0 209 146" fill="none" xmlns="http://www.w3.org/2000/svg">
<path d="M202.563 62.0945L106.204 25.7382C105.597 25.5087 104.934 25.4732 104.307 25.6366C103.679 25.8 103.119 26.1542 102.704 26.65C101.856 27.6657 100.711 28.3919 99.4281 28.7276C98.1451 29.0632 96.788 28.9917 95.5454 28.5229C94.3028 28.054 93.2366 27.2113 92.4951 26.1117C91.7536 25.0122 91.3736 23.7106 91.408 22.388C91.4232 21.7438 91.2377 21.1101 90.877 20.5742C90.5164 20.0384 89.9983 19.6267 89.3941 19.3957L37.9874 4.61421e-07C37.4782 1.34967 36.707 2.58538 35.7178 3.63656C34.7286 4.68775 33.5408 5.53383 32.2223 6.12647C30.9038 6.71911 29.4804 7.0467 28.0333 7.09055C26.5862 7.1344 25.1439 6.89363 23.7886 6.38201L-1.46953e-05 69.4317C1.35543 69.9428 2.59734 70.7149 3.65479 71.7036C4.71223 72.6924 5.56451 73.8787 6.16293 75.1946C6.76135 76.5105 7.0942 77.9303 7.14247 79.3729C7.19074 80.8155 6.9535 82.2527 6.44427 83.6023L57.8509 102.998C58.458 103.228 59.1214 103.264 59.7487 103.1C60.376 102.937 60.936 102.582 61.351 102.086C62.1989 101.071 63.3439 100.344 64.6269 100.009C65.9099 99.673 67.2671 99.7446 68.5097 100.213C69.7522 100.682 70.8184 101.525 71.5599 102.624C72.3015 103.724 72.6814 105.026 72.647 106.348C72.6316 106.993 72.8169 107.626 73.1776 108.162C73.5383 108.698 74.0566 109.11 74.661 109.341L171.014 145.695C171.524 144.345 172.295 143.11 173.284 142.058C174.273 141.007 175.46 140.161 176.779 139.569C178.097 138.976 179.52 138.648 180.967 138.604C182.414 138.56 183.856 138.801 185.211 139.312L209 76.2623C206.265 75.2285 204.05 73.1553 202.843 70.4986C201.636 67.8418 201.535 64.819 202.563 62.0945ZM93.931 31.3178C93.9523 31.2484 93.9877 31.1841 94.035 31.1289C94.0823 31.0738 94.1404 31.0289 94.2058 30.997C94.2712 30.9651 94.3425 30.9469 94.4153 30.9436C94.4881 30.9403 94.5608 30.9518 94.6291 30.9776C94.6973 31.0033 94.7596 31.0427 94.812 31.0933C94.8644 31.1439 94.906 31.2046 94.934 31.2717C94.9621 31.3389 94.9761 31.411 94.9751 31.4836C94.9741 31.5563 94.9583 31.6279 94.9285 31.6941L92.7553 37.4538C92.734 37.5232 92.6986 37.5875 92.6513 37.6427C92.604 37.6978 92.5459 37.7427 92.4805 37.7746C92.4151 37.8065 92.3438 37.8247 92.271 37.828C92.1982 37.8313 92.1254 37.8198 92.0572 37.794C91.989 37.7683 91.9267 37.7289 91.8743 37.6783C91.8218 37.6277 91.7803 37.567 91.7523 37.4999C91.7242 37.4327 91.7102 37.3606 91.7112 37.288C91.7121 37.2153 91.728 37.1437 91.7578 37.0775L93.931 31.3178ZM90.2091 41.1823C90.2304 41.1129 90.2659 41.0486 90.3131 40.9934C90.3604 40.9383 90.4185 40.8934 90.4839 40.8615C90.5493 40.8296 90.6206 40.8114 90.6934 40.8081C90.7662 40.8048 90.839 40.8163 90.9072 40.8421C90.9754 40.8678 91.0377 40.9072 91.0901 40.9578C91.1426 41.0084 91.1841 41.0691 91.2121 41.1362C91.2402 41.2034 91.2542 41.2755 91.2532 41.3481C91.2523 41.4208 91.2364 41.4924 91.2066 41.5586L89.0334 47.3183C88.9965 47.4165 88.9312 47.5015 88.8457 47.5624C88.7602 47.6234 88.6584 47.6577 88.5532 47.6609C88.448 47.6642 88.3441 47.6362 88.2547 47.5805C88.1653 47.5249 88.0944 47.4441 88.051 47.3484C88.0213 47.285 88.0047 47.2164 88.0021 47.1466C87.9996 47.0768 88.011 47.0072 88.0359 46.942L90.2091 41.1823ZM86.4872 51.0468C86.5086 50.9774 86.544 50.9131 86.5912 50.8579C86.6385 50.8028 86.6966 50.7579 86.762 50.726C86.8274 50.6941 86.8987 50.6759 86.9715 50.6726C87.0443 50.6693 87.1171 50.6808 87.1853 50.7066C87.2535 50.7323 87.3158 50.7717 87.3682 50.8223C87.4207 50.8729 87.4622 50.9336 87.4903 51.0008C87.5183 51.0679 87.5323 51.14 87.5313 51.2126C87.5304 51.2853 87.5145 51.3569 87.4847 51.4231L85.3116 57.1828C85.2747 57.281 85.2093 57.366 85.1238 57.427C85.0384 57.488 84.9366 57.5222 84.8314 57.5254C84.7261 57.5287 84.6223 57.5007 84.5329 57.445C84.4435 57.3894 84.3726 57.3086 84.3291 57.2129C84.2995 57.1495 84.2829 57.0809 84.2803 57.0111C84.2777 56.9413 84.2892 56.8717 84.3141 56.8065L86.4872 51.0468ZM82.7653 60.9113C82.8151 60.7793 82.9155 60.6726 83.0444 60.6146C83.1734 60.5567 83.3203 60.5522 83.4528 60.6022C83.5185 60.6267 83.5786 60.6641 83.6296 60.7121C83.6806 60.7602 83.7214 60.8179 83.7497 60.8819C83.7786 60.9454 83.7946 61.014 83.7969 61.0836C83.7992 61.1532 83.7876 61.2226 83.7628 61.2877L81.5897 67.0473C81.5396 67.1785 81.4396 67.2844 81.3113 67.3421C81.183 67.3998 81.0369 67.4045 80.9049 67.3552C80.7733 67.3045 80.6669 67.2044 80.6084 67.0764C80.55 66.9485 80.5441 66.8029 80.5922 66.671L82.7653 60.9113ZM79.0434 70.7758C79.0648 70.7064 79.1002 70.6421 79.1475 70.587C79.1948 70.5318 79.2529 70.4869 79.3183 70.455C79.3837 70.4231 79.455 70.405 79.5278 70.4016C79.6006 70.3983 79.6733 70.4098 79.7416 70.4356C79.8098 70.4613 79.872 70.5007 79.9245 70.5513C79.9769 70.6019 80.0185 70.6626 80.0465 70.7298C80.0746 70.7969 80.0885 70.869 80.0876 70.9417C80.0866 71.0143 80.0708 71.0859 80.0409 71.1522L77.8678 76.9118C77.8309 77.01 77.7656 77.095 77.6801 77.156C77.5946 77.217 77.4928 77.2512 77.3876 77.2545C77.2824 77.2577 77.1785 77.2297 77.0891 77.1741C76.9997 77.1184 76.9288 77.0376 76.8854 76.9419C76.8557 76.8785 76.8391 76.8099 76.8365 76.7401C76.8339 76.6703 76.8454 76.6007 76.8703 76.5355L79.0434 70.7758ZM70.4248 96.639C70.3751 96.7706 70.2751 96.8771 70.1466 96.9352C70.0181 96.9932 69.8716 96.9981 69.7392 96.9487C69.6074 96.8979 69.5008 96.7974 69.4424 96.669C69.384 96.5406 69.3786 96.3946 69.4273 96.2626L71.6004 90.5029C71.6218 90.4335 71.6572 90.3692 71.7044 90.3141C71.7517 90.2589 71.8098 90.214 71.8753 90.1821C71.9407 90.1502 72.012 90.1321 72.0847 90.1287C72.1575 90.1254 72.2303 90.1369 72.2985 90.1627C72.3667 90.1884 72.429 90.2278 72.4815 90.2784C72.5339 90.329 72.5754 90.3897 72.6035 90.4569C72.6315 90.524 72.6455 90.5961 72.6445 90.6688C72.6436 90.7414 72.6277 90.813 72.5979 90.8793L70.4248 96.639ZM74.1459 86.7764C74.109 86.8745 74.0437 86.9595 73.9582 87.0205C73.8727 87.0815 73.7709 87.1157 73.6657 87.119C73.5605 87.1222 73.4566 87.0942 73.3672 87.0386C73.2778 86.9829 73.2069 86.9021 73.1635 86.8064L73.1539 86.7854C73.1039 86.662 73.1019 86.5245 73.1484 86.4L75.3216 80.6403C75.3587 80.542 75.4242 80.457 75.5098 80.396C75.5955 80.3349 75.6974 80.3005 75.8027 80.2972C75.9081 80.2938 76.0122 80.3217 76.1018 80.3772C76.1915 80.4327 76.2628 80.5134 76.3066 80.609C76.3608 80.7282 76.3684 80.8631 76.3279 80.9873C76.3253 80.9972 76.3217 81.0068 76.3172 81.0159L74.1459 86.7764Z" fill="white"/>
</svg>
