<svg width="27" height="27" viewBox="0 0 27 27" fill="none" xmlns="http://www.w3.org/2000/svg">
<path d="M19.3388 5.57999C19.3388 5.59124 19.3388 5.59124 19.3388 5.60249C19.0576 5.59124 18.7763 5.57999 18.4726 5.57999H9.81007L11.0138 4.3875C12.1163 3.27375 13.3313 2.25 14.7376 2.25C16.1551 2.25 17.3701 3.27375 18.4726 4.3875L19.1026 5.01749C19.2601 5.16374 19.3388 5.36624 19.3388 5.57999Z" fill="#260B64"/>
<path d="M23.445 14.8162C23.8838 14.8162 24.2325 14.4562 24.2325 14.0062V13.0162C24.2325 8.59498 22.8825 7.25623 18.4726 7.25623H11.3851H8.52757C4.11758 7.25623 2.76759 8.60623 2.76759 13.0162V13.5C2.76759 13.95 3.11633 14.2987 3.55508 14.2987C4.50008 14.2987 5.25383 15.0637 5.25383 15.9975C5.25383 16.9312 4.50008 17.7075 3.55508 17.7075C3.11633 17.7075 2.76759 18.0562 2.76759 18.5062V18.99C2.76759 23.4112 4.11758 24.7499 8.52757 24.7499H11.3738H18.4613C22.8713 24.7499 24.2213 23.4 24.2213 18.99C24.2213 18.5512 23.8725 18.1912 23.4338 18.1912C22.4888 18.1912 21.735 17.4375 21.735 16.5037C21.7463 15.57 22.5 14.8162 23.445 14.8162ZM12.1726 21.2175C12.1726 21.6562 11.8126 22.0162 11.3738 22.0162C10.9351 22.0162 10.5751 21.6562 10.5751 21.2175V18.2025C10.5751 17.7637 10.9351 17.4037 11.3738 17.4037C11.8126 17.4037 12.1726 17.7637 12.1726 18.2025V21.2175ZM12.1726 13.8037C12.1726 14.2425 11.8126 14.6025 11.3738 14.6025C10.9351 14.6025 10.5751 14.2425 10.5751 13.8037V10.7887C10.5751 10.35 10.9351 9.98998 11.3738 9.98998C11.8126 9.98998 12.1726 10.35 12.1726 10.7887V13.8037Z" fill="#260B64"/>
</svg>
