<svg width="9" height="9" viewBox="0 0 9 9" fill="none" xmlns="http://www.w3.org/2000/svg">
<path d="M6.6363 3.11636C6.63528 3.11909 6.63528 3.11909 6.63425 3.12181C6.56721 3.0934 6.50017 3.065 6.42665 3.03726L4.33016 2.24626L4.73038 2.06757C5.09891 1.89869 5.48645 1.76187 5.82679 1.89028C6.16985 2.01972 6.37042 2.37843 6.53554 2.74865L6.63049 2.95865C6.65525 3.00843 6.65582 3.06463 6.6363 3.11636Z" fill="#260B64"/>
<path d="M6.78669 5.72667C6.89288 5.76674 7.01016 5.71145 7.05125 5.60255L7.14165 5.36295C7.54537 4.29292 7.34089 3.84564 6.27359 3.44295L4.55827 2.79576L3.8667 2.53483C2.7994 2.13214 2.3494 2.33559 1.94671 3.40289L1.90253 3.51997C1.86144 3.62888 1.914 3.74513 2.02019 3.78519C2.24889 3.87149 2.36146 4.12546 2.2762 4.35144C2.19093 4.57743 1.93763 4.69647 1.70892 4.61018C1.60273 4.57011 1.48648 4.62267 1.44539 4.73158L1.40122 4.84866C0.997498 5.91868 1.20198 6.36596 2.26928 6.76866L2.95813 7.02856L4.67344 7.67574C5.74075 8.07844 6.19075 7.87499 6.59344 6.80768C6.6335 6.7015 6.58197 6.58252 6.47579 6.54246C6.24708 6.45617 6.13348 6.20492 6.21875 5.97893C6.30674 5.75397 6.55799 5.64038 6.78669 5.72667ZM3.47401 6.24656C3.43394 6.35275 3.31394 6.407 3.20776 6.36694C3.10157 6.32687 3.04732 6.20687 3.08738 6.10069L3.36269 5.371C3.40276 5.26481 3.52276 5.21056 3.62894 5.25062C3.73513 5.29069 3.78938 5.41069 3.74932 5.51687L3.47401 6.24656ZM4.15099 4.45229C4.11092 4.55848 3.99092 4.61273 3.88474 4.57267C3.77855 4.5326 3.7243 4.4126 3.76436 4.30642L4.03967 3.57673C4.07974 3.47054 4.19974 3.41629 4.30592 3.45635C4.41211 3.49642 4.46636 3.61642 4.4263 3.7226L4.15099 4.45229Z" fill="#260B64"/>
</svg>
