<svg width="10" height="10" viewBox="0 0 10 10" fill="none" xmlns="http://www.w3.org/2000/svg">
<path d="M6.31078 2.19548C6.31148 2.19895 6.31148 2.19895 6.31217 2.20242C6.22472 2.21636 6.13726 2.2303 6.04357 2.2491L3.37143 2.78529L3.66894 2.34293C3.94009 1.93113 4.25152 1.54012 4.68531 1.45308C5.12256 1.36534 5.56072 1.60593 5.96975 1.88125L6.20308 2.03659C6.26072 2.07196 6.29755 2.12955 6.31078 2.19548Z" fill="white"/>
<path d="M8.14918 4.79044C8.28452 4.76328 8.36982 4.63064 8.34196 4.49183L8.28069 4.18644C8.00702 2.82261 7.50772 2.49321 6.14736 2.76618L3.96107 3.20488L3.07961 3.38175C1.71925 3.65472 1.38637 4.15471 1.65934 5.51507L1.68929 5.6643C1.71714 5.80311 1.84631 5.8891 1.98165 5.86194C2.27315 5.80345 2.55302 5.99278 2.61081 6.28081C2.66861 6.56885 2.48415 6.85495 2.19264 6.91345C2.0573 6.9406 1.97131 7.06977 1.99916 7.20858L2.0291 7.35781C2.30277 8.72164 2.80207 9.05104 4.16243 8.77807L5.04042 8.6019L7.22671 8.1632C8.58707 7.89023 8.91994 7.39023 8.64697 6.02987C8.61982 5.89453 8.48995 5.80507 8.35461 5.83223C8.06311 5.89072 7.78394 5.70486 7.72614 5.41683C7.67182 5.1281 7.85767 4.84893 8.14918 4.79044ZM5.06815 7.46278C5.09531 7.59812 5.00655 7.73145 4.8712 7.75861C4.73586 7.78577 4.60253 7.697 4.57537 7.56166L4.38875 6.63162C4.36159 6.49628 4.45036 6.36295 4.5857 6.33579C4.72104 6.30863 4.85438 6.3974 4.88153 6.53274L5.06815 7.46278ZM4.60926 5.17585C4.63642 5.31119 4.54765 5.44452 4.41231 5.47168C4.27697 5.49884 4.14364 5.41007 4.11648 5.27473L3.92986 4.34469C3.9027 4.20935 3.99147 4.07601 4.12681 4.04886C4.26215 4.0217 4.39548 4.11047 4.42264 4.24581L4.60926 5.17585Z" fill="white"/>
</svg>
